<?xml version="1.0" encoding="utf-8"?>
<!-- Generator: Adobe Illustrator 16.0.3, SVG Export Plug-In . SVG Version: 6.00 Build 0)  -->
<!DOCTYPE svg PUBLIC "-//W3C//DTD SVG 1.1//EN" "http://www.w3.org/Graphics/SVG/1.1/DTD/svg11.dtd">
<svg version="1.1" id="Layer_1" xmlns="http://www.w3.org/2000/svg" xmlns:xlink="http://www.w3.org/1999/xlink" x="0px" y="0px"
	 width="240px" height="240px" viewBox="0 0 240 240" enable-background="new 0 0 240 240" xml:space="preserve">
<g>
	
		<path  fill="#FFFFFF" stroke-width="11" stroke-linecap="round" stroke-linejoin="round" stroke-miterlimit="10" d="
		M162.798,75.75"/>
	<g>
		<line  fill="#FFFFFF" x1="66.662" y1="168.622" x2="15.617" y2="219.667"/>
		<path  fill="#FFFFFF" d="M15.617,223.521c-0.986,0-1.973-0.376-2.726-1.129c-1.505-1.506-1.505-3.946,0-5.451l51.045-51.045
			c1.506-1.506,3.946-1.506,5.452,0c1.505,1.505,1.505,3.945,0,5.451l-51.045,51.045C17.59,223.146,16.604,223.521,15.617,223.521z"
			/>
	</g>
	<path fill="#FFFFFF" d="M96.396,199c-0.005,0-0.009,0-0.014,0l-53.147-0.393c-2.119-0.006-3.833-1.823-3.841-3.942l-0.189-53.2
		c-0.003-1.029,0.405-2.042,1.134-2.769l119.363-118.78c0.723-0.721,1.701-0.917,2.722-0.917l0,0h53.118
		c1.022,0,1.805,0.187,2.529,0.909c0.723,0.723,0.93,1.483,0.93,2.506v53.117c0,1.021-0.209,2.002-0.932,2.725L99.023,197.666
		C98.3,198.389,97.418,199,96.396,199z M47.089,190.708l47.872,0.169L212,73.936V26.27l-47.828-0.002L46.998,142.995L47.089,190.708
		z"/>
	
		<path fill="#FFFFFF" stroke-width="11" stroke-linecap="round" stroke-linejoin="round" stroke-miterlimit="10" d="
		M163.174,75.373"/>
	<path  fill="#FFFFFF" d="M163,131.694c-2.129,0-4-1.727-4-3.855V22.711c0-2.129,1.871-3.855,4-3.855s4,1.726,4,3.855v105.128
		C167,129.968,165.129,131.694,163,131.694z"/>
	<path  fill="#FFFFFF" d="M215.646,79h-52.564c-2.129,0-3.854-1.371-3.854-3.5s1.726-3.5,3.854-3.5h52.564c2.128,0,3.854,1.371,3.854,3.5
		S217.773,79,215.646,79z"/>
	<path  fill="#FFFFFF" d="M95,198.275c-2.129,0-4-1.726-4-3.854V89.292c0-2.129,1.871-3.854,4-3.854s4,1.726,4,3.854v105.129
		C99,196.55,97.129,198.275,95,198.275z"/>
	<path  fill="#FFFFFF" d="M94.911,144.229c-0.987,0-1.974-0.376-2.726-1.129c-1.506-1.505-1.506-3.946,0-5.451l66.408-66.408
		c1.505-1.506,3.947-1.505,5.451,0c1.506,1.506,1.506,3.946,0,5.451L97.637,143.1C96.884,143.853,95.897,144.229,94.911,144.229z"/>
	<path  fill="#FFFFFF" d="M93.919,199.238c-0.986,0-1.973-0.377-2.726-1.13l-52.036-52.036c-1.505-1.505-1.505-3.945,0-5.45
		c1.506-1.506,3.946-1.506,5.452,0l52.035,52.036c1.506,1.505,1.506,3.945,0,5.45C95.892,198.861,94.905,199.238,93.919,199.238z"/>
</g>
</svg>
