<?xml version="1.0" encoding="utf-8"?>
<!-- Generator: Adobe Illustrator 16.0.3, SVG Export Plug-In . SVG Version: 6.00 Build 0)  -->
<!DOCTYPE svg PUBLIC "-//W3C//DTD SVG 1.1//EN" "http://www.w3.org/Graphics/SVG/1.1/DTD/svg11.dtd">
<svg version="1.1" id="Layer_1" xmlns="http://www.w3.org/2000/svg" xmlns:xlink="http://www.w3.org/1999/xlink" x="0px" y="0px"
	 width="240px" height="240px" viewBox="0 0 240 240" enable-background="new 0 0 240 240" xml:space="preserve">
<path fill="#FFFFFF" d="M238.683,1.357C237.838,0.513,236.693,0,235.499,0h-62.027c-1.191,0-2.333,0.511-3.178,1.353L30.913,140.315
	c-0.851,0.849-1.328,2.014-1.323,3.216l0.212,59.711L1.319,231.728c-1.758,1.758-1.758,4.608,0,6.366
	c0.879,0.879,2.031,1.318,3.183,1.318c1.152,0,2.304-0.438,3.183-1.317l27.986-28.157L96.355,210c0.006,0,0.012,0,0.016,0
	c1.195,0,2.34-0.324,3.185-1.168L238.681,69.701c0.846-0.845,1.319-1.903,1.319-3.097V4.579C240,3.385,239.526,2.201,238.683,1.357z
	 M230.996,62H178V9.078l52.831-0.104L230.996,62z M40.738,143.303L90,94.196v98.367L40.738,143.303z M169,63.719l-70,70.383V85.223
	l70-70.161V63.719z M99,196.856v-50.118c0-0.13,0.16-0.257,0.318-0.416L169,76.449v49.989L99,196.856z M178,71h46.526L178,117.432
	V71z M38.629,153.978l20.221,20.221l-20.078,20.078L38.629,153.978z M65.215,180.563l20.699,20.7l-41.253-0.146L65.215,180.563z"/>
</svg>
