<?xml version="1.0" encoding="iso-8859-1"?>
<!-- Generator: Adobe Illustrator 21.0.0, SVG Export Plug-In . SVG Version: 6.00 Build 0)  -->
<svg version="1.1" id="Capa_1" xmlns="http://www.w3.org/2000/svg" xmlns:xlink="http://www.w3.org/1999/xlink" x="0px" y="0px"
	 viewBox="0 0 480.153 480.153" style="enable-background:new 0 0 480.153 480.153;" xml:space="preserve">
<g>
	<g>
		<path fill="#212529" d="M455.033,182.608c19.846-24.268,28.526-55.785,23.904-86.792C469.968,34.614,413.084-7.73,351.881,1.239
			c-27.593,4.044-52.686,18.236-70.368,39.801c-13.958,17.828-37.096,25.779-59.064,20.296c-18.472-5.132-37.785-6.514-56.8-4.064
			c-64.287,8.68-115.018,58.948-124.288,123.152c-3.979,28.663,0.824,57.859,13.776,83.736
			c-30.894,0.446-55.577,25.852-55.131,56.745c0.401,27.801,21.159,51.089,48.731,54.671l8.632,88.536c0,8.837,7.163,16,16,16h46.68
			c4.671-0.004,9.108-2.05,12.144-5.6c3.16-3.773,4.453-8.768,3.52-13.6l-21.392-84.8h4c8.848,0.048,17.684,0.684,26.448,1.904
			c28.713,62.248,91.009,102.109,159.56,102.096c5.28,0,10.613-0.237,16-0.712c84.871-8.379,151.751-75.995,159.2-160.952
			c3.136-37.701-6.052-75.402-26.184-107.432C447.758,202.165,448.437,190.736,455.033,182.608z M48.049,359.312
			c-21.65-4.396-35.636-25.51-31.24-47.16c3.196-15.741,15.499-28.044,31.24-31.24V359.312z M120.049,464.112l-46.72-0.8l-8.48-87.2
			h32.952L120.049,464.112z M64.049,360.112v-80h16v80H64.049z M118.297,360.112H96.049v-80h22.248
			c23.217,0.008,46.282-3.736,68.304-11.088l37.448-12.48V383.68l-37.448-12.48C164.579,363.849,141.514,360.104,118.297,360.112z
			 M463.529,317.16c-7.067,87.941-84.085,153.502-172.026,146.436c-53.432-4.294-101.148-35.1-127.054-82.028
			c5.744,1.368,11.456,2.928,17.096,4.8l88,29.328c0.807,0.27,1.653,0.41,2.504,0.416c4.418,0,8-3.582,8-8v-40
			c17.673,0,32-14.327,32-32v-32c0-17.673-14.327-32-32-32v-40c0.001-4.418-3.58-8.001-7.998-8.002c-0.86,0-1.714,0.138-2.53,0.41
			l-88,29.328c-20.385,6.8-41.734,10.266-63.224,10.264H73.369c-14.383-24.619-20.072-53.358-16.152-81.6
			C66.885,112.529,131.455,63.633,201.438,73.3c5.634,0.778,11.21,1.932,16.691,3.452c28.079,7.201,57.765-2.813,75.744-25.552
			C327.366,10.137,387.805,4,428.869,37.492s47.201,93.932,13.708,134.996c-10.919,13.443-12.061,32.348-2.84,47.008
			C458.033,248.616,466.382,282.888,463.529,317.16z M240.049,389.016V251.208l24-8v153.808L240.049,389.016z M280.049,352.112v-64
			c8.837,0,16,7.163,16,16v32C296.049,344.949,288.885,352.112,280.049,352.112z"/>
	</g>
</g>
<g>
	<g>
		<rect fill="#212529" x="112.049" y="328.112" width="32" height="16"/>
	</g>
</g>
<g>
	<g>
		<rect fill="#212529" x="112.049" y="296.112" width="32" height="16"/>
	</g>
</g>
<g>
	<g>
		<path fill="#212529" d="M406.707,107.674c-0.586-0.878-1.339-1.632-2.218-2.218l-48-32c-3.675-2.452-8.643-1.461-11.095,2.215
			c-0.877,1.315-1.345,2.86-1.345,4.441v64c-0.001,2.951,1.622,5.663,4.224,7.056c2.603,1.393,5.761,1.239,8.216-0.4l48-32
			C408.165,116.317,409.158,111.35,406.707,107.674z M360.049,129.16V95.064l25.6,17.048L360.049,129.16z"/>
	</g>
</g>
<g>
	<g>
		<path fill="#212529" d="M368.049,40.112c-39.764,0-72,32.235-72,72c0.044,39.746,32.254,71.956,72,72c39.765,0,72-32.236,72-72
			C440.049,72.348,407.813,40.112,368.049,40.112z M368.049,168.112c-30.928,0-56-25.072-56-56c0.035-30.913,25.087-55.965,56-56
			c30.928,0,56,25.072,56,56C424.049,143.04,398.977,168.112,368.049,168.112z"/>
	</g>
</g>
<g>
	<g>
		<path fill="#212529" d="M208.049,144.112h-8c-4.418,0-8-3.582-8-8v-24c0-13.255-10.745-24-24-24s-24,10.745-24,24v24c0,4.418-3.582,8-8,8
			c0-4.418-3.582-8-8-8h-32c-4.418,0-8,3.582-8,8v88c0,4.418,3.582,8,8,8h32c4.418,0,8-3.582,8-8h72c13.255,0,24-10.745,24-24v-40
			C232.049,154.858,221.304,144.112,208.049,144.112z M120.049,224.112h-16v-72h16V224.112z M216.049,208.112c0,4.418-3.582,8-8,8
			h-72v-56c13.255,0,24-10.745,24-24v-24c0-4.418,3.582-8,8-8s8,3.582,8,8v24c0,13.255,10.745,24,24,24h8c4.418,0,8,3.582,8,8
			V208.112z"/>
	</g>
</g>
<g>
	<g>
		<path fill="#212529" d="M441.009,290.528l-3.408-3.424c-8.106-8.053-20.755-9.303-30.28-2.992l-8.648,5.768l-8.648-5.768
			c-9.524-6.317-22.177-5.067-30.28,2.992l-3.424,3.424c-9.369,9.372-9.369,24.564,0,33.936l36.688,36.68
			c3.124,3.123,8.188,3.123,11.312,0l36.688-36.68C450.378,315.092,450.378,299.9,441.009,290.528z M429.711,313.146
			c-0.002,0.002-0.004,0.004-0.006,0.006l-31.032,31.024l-31.024-30.992c-3.123-3.124-3.123-8.188,0-11.312l3.416-3.416
			c2.697-2.698,6.923-3.116,10.096-1l13.08,8.72c2.688,1.794,6.192,1.794,8.88,0l13.088-8.72c3.17-2.114,7.391-1.699,10.088,0.992
			l0-0.032l3.408,3.416C432.831,304.955,432.834,310.02,429.711,313.146z"/>
	</g>
</g>
<g>
	<g>
		<rect fill="#212529" x="299.556" y="224.124" transform="matrix(0.2428 -0.9701 0.9701 0.2428 14.1446 482.36)" width="32.984" height="15.992"/>
	</g>
</g>
<g>
	<g>
		<rect fill="#212529" x="326.165" y="248.114" transform="matrix(0.8944 -0.4472 0.4472 0.8944 -78.2145 180.9015)" width="35.776" height="16"/>
	</g>
</g>
<g>
	<g>
		
			<rect fill="#212529" x="308.044" y="399.622" transform="matrix(0.9701 -0.2425 0.2425 0.9701 -91.4845 89.0727)" width="15.992" height="32.984"/>
	</g>
</g>
<g>
	<g>
		<rect fill="#212529" x="336.052" y="374.211" transform="matrix(0.4472 -0.8944 0.8944 0.4472 -160.5168 524.4774)" width="16" height="35.776"/>
	</g>
</g>
<g>
	<g>
		<path fill="#212529" d="M8.049,216.112h16c0-108.56,64.376-176,168-176v-16C78.553,24.112,8.049,97.712,8.049,216.112z"/>
	</g>
</g>
</svg>
