<svg width="600" height="600" xmlns="http://www.w3.org/2000/svg">
 <g>
  <path id="svg_290" d="m17.812468,138.403321" opacity="0.5" fill-opacity="null" stroke="#d1d11f" fill="#fff"/>
  <g transform="matrix(0.19185843967120242,0,0,0.2084252609980382,-3362.2797732931795,-3815.126141320943) " stroke="null" id="svg_417">
   <g transform="rotate(-30 18116.177734374996,18491.75390625) " stroke="null" id="svg_401">
    <g stroke="null" id="svg_400">
     <path stroke="null" id="svg_399" d="m18169.277726,18489.774988l0,61.38l-14.22,0l-0.54,-15.12c-3.482,5.4 -8.28,9.571 -14.4,12.51s-13.441,4.41 -21.96,4.41c-11.042,0 -20.7,-2.458 -28.98,-7.38c-8.28,-4.919 -14.701,-11.97 -19.26,-21.15c-4.562,-9.18 -6.84,-20.07 -6.84,-32.67c0,-12.479 2.34,-23.31 7.02,-32.49c4.68,-9.18 11.278,-16.259 19.8,-21.24c8.519,-4.978 18.419,-7.47 29.7,-7.47c12.24,0 22.32,2.281 30.24,6.84c7.92,4.562 14.158,11.641 18.72,21.24l-17.64,8.46c-2.281,-6.48 -6.12,-11.399 -11.52,-14.76c-5.4,-3.358 -11.88,-5.04 -19.44,-5.04c-11.281,0 -20.222,3.901 -26.82,11.7c-6.601,7.802 -9.9,18.72 -9.9,32.76c0,14.282 3.15,25.29 9.45,33.03c6.3,7.74 15.508,11.61 27.63,11.61c9.478,0 17.159,-2.34 23.04,-7.02c5.878,-4.68 8.82,-11.458 8.82,-20.34l0,-3.42l-36.36,0l0,-15.84l53.46,0z" fill="rgba(0,0,0,0.1)"/>
    </g>
   </g>
   <g transform="rotate(-20 18126.498046875,19207.125) " stroke="null" id="svg_404">
    <g stroke="null" id="svg_403">
     <path stroke="null" id="svg_402" d="m18117.048055,19163.384986c-2.281,-2.098 -3.42,-5.068 -3.42,-8.91c0,-3.839 1.139,-6.778 3.42,-8.82c2.278,-2.039 5.459,-3.06 9.54,-3.06c4.078,0 7.229,1.021 9.449,3.06c2.22,2.042 3.33,4.981 3.33,8.82c0,3.842 -1.11,6.812 -3.33,8.91c-2.221,2.101 -5.371,3.15 -9.449,3.15c-4.081,0 -7.262,-1.049 -9.54,-3.15zm19.08,108.27l-19.261,0l0,-90l19.261,0l0,90z" fill="rgba(0,0,0,0.1)"/>
    </g>
   </g>
   <g transform="rotate(-140 17750.00390625,19550.90234375) " stroke="null" id="svg_407">
    <g stroke="null" id="svg_406">
     <path stroke="null" id="svg_405" d="m17752.974203,19526.783971l29.16,0l0,15.12l-28.62,0l0,74.88l-19.26,0l0,-74.88l-16.92,0l0,-15.12l16.92,0l0,-12.96c0,-9.118 2.759,-16.2 8.279,-21.24c5.519,-5.04 13.259,-7.56 23.221,-7.56c3.6,0 6.898,0.391 9.899,1.17c2.998,0.782 5.339,1.831 7.021,3.15l-3.601,14.04c-2.762,-1.8 -6.182,-2.7 -10.26,-2.7c-10.561,0 -15.84,4.86 -15.84,14.58l0,11.52l0.001,0z" fill="rgba(0,0,0,0.1)"/>
    </g>
   </g>
   <g transform="rotate(10 18510.96679687502,18882.517578124985) " stroke="null" id="svg_410">
    <g stroke="null" id="svg_409">
     <path stroke="null" id="svg_408" d="m18513.937055,18858.397719l29.16,0l0,15.12l-28.62,0l0,74.88l-19.26,0l0,-74.88l-16.92,0l0,-15.12l16.92,0l0,-12.96c0,-9.118 2.759,-16.2 8.279,-21.24c5.519,-5.04 13.259,-7.56 23.221,-7.56c3.6,0 6.898,0.391 9.899,1.17c2.998,0.781 5.339,1.83 7.021,3.15l-3.601,14.039c-2.762,-1.8 -6.182,-2.699 -10.26,-2.699c-10.561,0 -15.84,4.859 -15.84,14.58l0,11.52l0.001,0z" fill="rgba(0,0,0,0.1)"/>
    </g>
   </g>
   <g transform="rotate(-4 17740.152343750022,18847.078124999985) " stroke="null" id="svg_413">
    <g stroke="null" id="svg_412">
     <path stroke="null" id="svg_411" d="m17773.092539,18812.696986c7.92,8.28 11.881,19.741 11.881,34.38c0,14.642 -3.961,26.1 -11.881,34.38s-18.9,12.42 -32.939,12.42c-14.041,0 -25.021,-4.14 -32.94,-12.42s-11.88,-19.738 -11.88,-34.38c0,-14.639 3.96,-26.1 11.88,-34.38s18.899,-12.42 32.94,-12.42c14.039,0 25.019,4.14 32.939,12.42zm-51.75,10.89c-4.382,5.462 -6.57,13.292 -6.57,23.49c0,10.201 2.188,18.031 6.57,23.49c4.379,5.462 10.648,8.189 18.811,8.189c8.158,0 14.459,-2.759 18.9,-8.279c4.438,-5.519 6.658,-13.32 6.658,-23.4s-2.221,-17.879 -6.658,-23.4c-4.441,-5.518 -10.742,-8.279 -18.9,-8.279c-8.162,-0.001 -14.432,2.73 -18.811,8.189z" fill="rgba(0,0,0,0.1)"/>
    </g>
   </g>
   <g transform="rotate(60 18906.164062499996,19222.228515625) " stroke="null" id="svg_416">
    <g stroke="null" id="svg_415">
     <path stroke="null" id="svg_414" d="m18937.845048,19184.969656c6.3,5.76 9.45,14.04 9.45,24.84l0,58.32l-19.26,0l0,-52.2c0,-15.84 -6.421,-23.76 -19.261,-23.76c-6.722,0 -12.481,2.312 -17.279,6.93c-4.802,4.621 -7.2,11.731 -7.2,21.33l0,47.7l-19.26,0l0,-90l17.1,0l0.9,14.94c2.998,-5.64 7.138,-9.839 12.42,-12.601c5.278,-2.759 11.277,-4.14 18,-4.14c9.959,0.001 18.09,2.881 24.39,8.641z" fill="rgba(0,0,0,0.1)"/>
    </g>
   </g>
   <g stroke="null" id="svg_857">
    <g transform="rotate(140 18890.3359375,19557.703125000004) " stroke="null" id="svg_856">
     <path stroke="null" id="svg_855" d="m18880.88666,19513.962298c-2.281,-2.098 -3.42,-5.068 -3.42,-8.91c0,-3.839 1.139,-6.778 3.42,-8.82c2.278,-2.039 5.459,-3.06 9.54,-3.06c4.078,0 7.229,1.021 9.449,3.06c2.22,2.042 3.33,4.981 3.33,8.82c0,3.842 -1.11,6.812 -3.33,8.91c-2.221,2.101 -5.371,3.15 -9.449,3.15c-4.081,0 -7.262,-1.049 -9.54,-3.15zm19.08,108.27l-19.261,0l0,-90l19.261,0l0,90z" fill="rgba(0,0,0,0.1)"/>
    </g>
   </g>
  </g>
  <g transform="matrix(0.19185843967120242,0,0,0.2084252609980382,-3362.2797732931795,-3815.126141320943) " stroke="null" id="svg_880">
   <g transform="rotate(158 19767.783203124996,19228.75390625) " stroke="null" id="svg_861">
    <g stroke="null" id="svg_860">
     <path stroke="null" id="svg_859" d="m19820.882718,19226.774597l0,61.38l-14.22,0l-0.54,-15.12c-3.482,5.4 -8.28,9.571 -14.4,12.51s-13.441,4.41 -21.96,4.41c-11.042,0 -20.7,-2.458 -28.98,-7.38c-8.28,-4.919 -14.701,-11.97 -19.26,-21.15c-4.562,-9.18 -6.84,-20.07 -6.84,-32.67c0,-12.479 2.34,-23.31 7.02,-32.49c4.68,-9.18 11.278,-16.259 19.8,-21.24c8.519,-4.978 18.419,-7.47 29.7,-7.47c12.24,0 22.32,2.281 30.24,6.84c7.92,4.562 14.158,11.641 18.72,21.24l-17.64,8.46c-2.281,-6.48 -6.12,-11.399 -11.52,-14.76c-5.4,-3.358 -11.88,-5.04 -19.44,-5.04c-11.281,0 -20.222,3.901 -26.82,11.7c-6.601,7.802 -9.9,18.72 -9.9,32.76c0,14.282 3.15,25.29 9.45,33.03c6.3,7.74 15.508,11.61 27.63,11.61c9.478,0 17.159,-2.34 23.04,-7.02c5.878,-4.68 8.82,-11.458 8.82,-20.34l0,-3.42l-36.36,0l0,-15.84l53.46,0z" fill="rgba(0,0,0,0.1)"/>
    </g>
   </g>
   <g transform="rotate(90 19336.76953125,18881.457031250004) " stroke="null" id="svg_864">
    <g stroke="null" id="svg_863">
     <path stroke="null" id="svg_862" d="m19327.319318,18837.716966c-2.281,-2.098 -3.42,-5.068 -3.42,-8.91c0,-3.839 1.139,-6.778 3.42,-8.82c2.278,-2.039 5.459,-3.06 9.54,-3.06c4.078,0 7.229,1.021 9.449,3.06c2.22,2.042 3.33,4.981 3.33,8.82c0,3.842 -1.11,6.812 -3.33,8.91c-2.221,2.101 -5.371,3.15 -9.449,3.15c-4.081,0 -7.262,-1.049 -9.54,-3.15zm19.08,108.27l-19.261,0l0,-90l19.261,0l0,90z" fill="rgba(0,0,0,0.1)"/>
    </g>
   </g>
   <g transform="rotate(-140 20053.64453125,19945.21875) " stroke="null" id="svg_867">
    <g stroke="null" id="svg_866">
     <path stroke="null" id="svg_865" d="m20056.57979,19921.110462l29.16,0l0,15.12l-28.62,0l0,74.88l-19.26,0l0,-74.88l-16.92,0l0,-15.12l16.92,0l0,-12.96c0,-9.118 2.759,-16.2 8.279,-21.24c5.519,-5.04 13.259,-7.56 23.221,-7.56c3.6,0 6.898,0.391 9.899,1.17c2.998,0.782 5.339,1.831 7.021,3.15l-3.601,14.04c-2.762,-1.8 -6.182,-2.7 -10.26,-2.7c-10.561,0 -15.84,4.86 -15.84,14.58l0,11.52l0.001,0z" fill="rgba(0,0,0,0.1)"/>
    </g>
   </g>
   <g transform="rotate(87 19689.23828125,18500.0546875) " stroke="null" id="svg_870">
    <g stroke="null" id="svg_869">
     <path stroke="null" id="svg_868" d="m19692.208277,18475.935378l29.16,0l0,15.12l-28.62,0l0,74.88l-19.26,0l0,-74.88l-16.92,0l0,-15.12l16.92,0l0,-12.96c0,-9.118 2.759,-16.2 8.279,-21.24c5.519,-5.04 13.259,-7.56 23.221,-7.56c3.6,0 6.898,0.391 9.899,1.17c2.998,0.781 5.339,1.83 7.021,3.15l-3.601,14.039c-2.762,-1.8 -6.182,-2.699 -10.26,-2.699c-10.561,0 -15.84,4.859 -15.84,14.58l0,11.52l0.001,0z" fill="rgba(0,0,0,0.1)"/>
    </g>
   </g>
   <g transform="rotate(-83 19297.08984375,19570.744140625) " stroke="null" id="svg_873">
    <g stroke="null" id="svg_872">
     <path stroke="null" id="svg_871" d="m19330.030783,19536.36325c7.92,8.28 11.881,19.741 11.881,34.38c0,14.642 -3.961,26.1 -11.881,34.38s-18.9,12.42 -32.939,12.42c-14.041,0 -25.021,-4.14 -32.94,-12.42s-11.88,-19.738 -11.88,-34.38c0,-14.639 3.96,-26.1 11.88,-34.38s18.899,-12.42 32.94,-12.42c14.039,0 25.019,4.14 32.939,12.42zm-51.75,10.89c-4.382,5.462 -6.57,13.292 -6.57,23.49c0,10.201 2.188,18.031 6.57,23.49c4.379,5.462 10.648,8.189 18.811,8.189c8.158,0 14.459,-2.759 18.9,-8.279c4.438,-5.519 6.658,-13.32 6.658,-23.4s-2.221,-17.879 -6.658,-23.4c-4.441,-5.518 -10.742,-8.279 -18.9,-8.279c-8.162,-0.001 -14.432,2.73 -18.811,8.189z" fill="rgba(0,0,0,0.1)"/>
    </g>
   </g>
   <g transform="rotate(-23 20056.417968749996,18861.794921875) " stroke="null" id="svg_876">
    <g stroke="null" id="svg_875">
     <path stroke="null" id="svg_874" d="m20088.116258,18824.634944c6.3,5.76 9.45,14.04 9.45,24.84l0,58.32l-19.26,0l0,-52.2c0,-15.84 -6.421,-23.76 -19.261,-23.76c-6.722,0 -12.481,2.312 -17.279,6.93c-4.802,4.621 -7.2,11.731 -7.2,21.33l0,47.7l-19.26,0l0,-90l17.1,0l0.9,14.94c2.998,-5.64 7.138,-9.839 12.42,-12.601c5.278,-2.759 11.277,-4.14 18,-4.14c9.959,0.001 18.09,2.881 24.39,8.641z" fill="rgba(0,0,0,0.1)"/>
    </g>
   </g>
   <g transform="rotate(140 20447.275390625,18498.617187500004) " stroke="null" id="svg_879">
    <g stroke="null" id="svg_878">
     <path stroke="null" id="svg_877" d="m20437.82616,18454.963729c-2.281,-2.098 -3.42,-5.068 -3.42,-8.91c0,-3.839 1.139,-6.778 3.42,-8.82c2.278,-2.039 5.459,-3.06 9.54,-3.06c4.078,0 7.229,1.021 9.449,3.06c2.22,2.042 3.33,4.981 3.33,8.82c0,3.842 -1.11,6.812 -3.33,8.91c-2.221,2.101 -5.371,3.15 -9.449,3.15c-4.081,0 -7.262,-1.049 -9.54,-3.15zm19.08,108.27l-19.261,0l0,-90l19.261,0l0,90z" fill="rgba(0,0,0,0.1)"/>
    </g>
   </g>
  </g>
  <g transform="matrix(0.19185843967120242,0,0,0.2084252609980382,-3362.2797732931795,-3815.126141320943) " stroke="null" id="svg_902">
   <g transform="rotate(37 18494.722656250004,20009.76953125) " stroke="null" id="svg_883">
    <g transform="rotate(37 18451.867187499993,19924.058593750004) " stroke="null" id="svg_882">
     <path stroke="null" id="svg_881" d="m18504.973754,19922.036593l0,61.38l-14.22,0l-0.54,-15.12c-3.482,5.4 -8.28,9.571 -14.4,12.51s-13.441,4.41 -21.96,4.41c-11.042,0 -20.7,-2.458 -28.98,-7.38c-8.28,-4.919 -14.701,-11.97 -19.26,-21.15c-4.562,-9.18 -6.84,-20.07 -6.84,-32.67c0,-12.479 2.34,-23.31 7.02,-32.49c4.68,-9.18 11.278,-16.259 19.8,-21.24c8.519,-4.978 18.419,-7.47 29.7,-7.47c12.24,0 22.32,2.281 30.24,6.84c7.92,4.562 14.158,11.641 18.72,21.24l-17.64,8.46c-2.281,-6.48 -6.12,-11.399 -11.52,-14.76c-5.4,-3.358 -11.88,-5.04 -19.44,-5.04c-11.281,0 -20.222,3.901 -26.82,11.7c-6.601,7.802 -9.9,18.72 -9.9,32.76c0,14.282 3.15,25.29 9.45,33.03c6.3,7.74 15.508,11.61 27.63,11.61c9.478,0 17.159,-2.34 23.04,-7.02c5.878,-4.68 8.82,-11.458 8.82,-20.34l0,-3.42l-36.36,0l0,-15.84l53.46,0z" fill="rgba(0,0,0,0.1)"/>
    </g>
   </g>
   <g transform="rotate(8 19894.152343750022,20502.249999999996) " stroke="null" id="svg_886">
    <g stroke="null" id="svg_885">
     <path stroke="null" id="svg_884" d="m19884.743916,20458.504969c-2.281,-2.098 -3.42,-5.068 -3.42,-8.91c0,-3.839 1.139,-6.778 3.42,-8.82c2.278,-2.039 5.459,-3.06 9.54,-3.06c4.078,0 7.229,1.021 9.449,3.06c2.22,2.042 3.33,4.981 3.33,8.82c0,3.842 -1.11,6.812 -3.33,8.91c-2.221,2.101 -5.371,3.15 -9.449,3.15c-4.081,0 -7.262,-1.049 -9.54,-3.15zm19.08,108.27l-19.261,0l0,-90l19.261,0l0,90z" fill="rgba(0,0,0,0.1)"/>
    </g>
   </g>
   <g transform="rotate(-140 18500.556640625,20988.87890625) " stroke="null" id="svg_889">
    <g stroke="null" id="svg_888">
     <path stroke="null" id="svg_887" d="m18503.527081,20964.761114l29.16,0l0,15.12l-28.62,0l0,74.88l-19.26,0l0,-74.88l-16.92,0l0,-15.12l16.92,0l0,-12.96c0,-9.118 2.759,-16.2 8.279,-21.24c5.519,-5.04 13.259,-7.56 23.221,-7.56c3.6,0 6.898,0.391 9.899,1.17c2.998,0.782 5.339,1.831 7.021,3.15l-3.601,14.04c-2.762,-1.8 -6.182,-2.7 -10.26,-2.7c-10.561,0 -15.84,4.86 -15.84,14.58l0,11.52l0.001,0z" fill="rgba(0,0,0,0.1)"/>
    </g>
   </g>
   <g transform="rotate(10 19261.519531250004,20320.494140624996) " stroke="null" id="svg_892">
    <g stroke="null" id="svg_891">
     <path stroke="null" id="svg_890" d="m19264.489933,20296.374862l29.16,0l0,15.12l-28.62,0l0,74.88l-19.26,0l0,-74.88l-16.92,0l0,-15.12l16.92,0l0,-12.96c0,-9.118 2.759,-16.2 8.279,-21.24c5.519,-5.04 13.259,-7.56 23.221,-7.56c3.6,0 6.898,0.391 9.899,1.17c2.998,0.781 5.339,1.83 7.021,3.15l-3.601,14.039c-2.762,-1.8 -6.182,-2.699 -10.26,-2.699c-10.561,0 -15.84,4.859 -15.84,14.58l0,11.52l0.001,0z" fill="rgba(0,0,0,0.1)"/>
    </g>
   </g>
   <g transform="rotate(60 18118.707031249996,20649.720703125) " stroke="null" id="svg_895">
    <g stroke="null" id="svg_894">
     <path stroke="null" id="svg_893" d="m18151.645423,20615.34079c7.92,8.28 11.881,19.741 11.881,34.38c0,14.642 -3.961,26.1 -11.881,34.38s-18.9,12.42 -32.939,12.42c-14.041,0 -25.021,-4.14 -32.94,-12.42s-11.88,-19.738 -11.88,-34.38c0,-14.639 3.96,-26.1 11.88,-34.38s18.899,-12.42 32.94,-12.42c14.039,0 25.019,4.14 32.939,12.42zm-51.75,10.89c-4.382,5.462 -6.57,13.292 -6.57,23.49c0,10.201 2.188,18.031 6.57,23.49c4.379,5.462 10.648,8.189 18.811,8.189c8.158,0 14.459,-2.759 18.9,-8.279c4.438,-5.519 6.658,-13.32 6.658,-23.4s-2.221,-17.879 -6.658,-23.4c-4.441,-5.518 -10.742,-8.279 -18.9,-8.279c-8.162,-0.001 -14.432,2.73 -18.811,8.189z" fill="rgba(0,0,0,0.1)"/>
    </g>
   </g>
   <g transform="rotate(-29 17718.220703124996,20488.785156250004) " stroke="null" id="svg_898">
    <g stroke="null" id="svg_897">
     <path stroke="null" id="svg_896" d="m17749.826257,20451.518207c6.3,5.76 9.45,14.04 9.45,24.84l0,58.32l-19.26,0l0,-52.2c0,-15.84 -6.421,-23.76 -19.261,-23.76c-6.722,0 -12.481,2.312 -17.279,6.93c-4.802,4.621 -7.2,11.731 -7.2,21.33l0,47.7l-19.26,0l0,-90l17.1,0l0.9,14.94c2.998,-5.64 7.138,-9.839 12.42,-12.601c5.278,-2.759 11.277,-4.14 18,-4.14c9.959,0.001 18.09,2.881 24.39,8.641z" fill="rgba(0,0,0,0.1)"/>
    </g>
   </g>
   <g transform="rotate(140 19640.890625,20995.681640625) " stroke="null" id="svg_901">
    <g stroke="null" id="svg_900">
     <path stroke="null" id="svg_899" d="m19631.440794,20951.94289c-2.281,-2.098 -3.42,-5.068 -3.42,-8.91c0,-3.839 1.139,-6.778 3.42,-8.82c2.278,-2.039 5.459,-3.06 9.54,-3.06c4.078,0 7.229,1.021 9.449,3.06c2.22,2.042 3.33,4.981 3.33,8.82c0,3.842 -1.11,6.812 -3.33,8.91c-2.221,2.101 -5.371,3.15 -9.449,3.15c-4.081,0 -7.262,-1.049 -9.54,-3.15zm19.08,108.27l-19.261,0l0,-90l19.261,0l0,90z" fill="rgba(0,0,0,0.1)"/>
    </g>
   </g>
  </g>
  <g transform="rotate(90 8436.071289062502,-7541.420410156251) matrix(0.19185843967120242,0,0,0.2084252609980382,-3362.2797732931795,-3815.126141320943) " stroke="null" id="svg_924">
   <g transform="rotate(-30 565.6701660156249,113.18291473388658) matrix(0.007173644064498802,0.19600014500291138,-0.20428355566632928,-0.007173644064498802,15969.48298250527,-10712.823895426081) " stroke="null" id="svg_905">
    <g stroke="null" id="svg_904">
     <path stroke="null" id="svg_903" d="m19746.88261,18511.861926l0,61.38l-14.22,0l-0.54,-15.12c-3.482,5.4 -8.28,9.571 -14.4,12.51s-13.441,4.41 -21.96,4.41c-11.042,0 -20.7,-2.458 -28.98,-7.38c-8.28,-4.919 -14.701,-11.97 -19.26,-21.15c-4.562,-9.18 -6.84,-20.07 -6.84,-32.67c0,-12.479 2.34,-23.31 7.02,-32.49c4.68,-9.18 11.278,-16.259 19.8,-21.24c8.519,-4.978 18.419,-7.47 29.7,-7.47c12.24,0 22.32,2.281 30.24,6.84c7.92,4.562 14.158,11.641 18.72,21.24l-17.64,8.46c-2.281,-6.48 -6.12,-11.399 -11.52,-14.76c-5.4,-3.358 -11.88,-5.04 -19.44,-5.04c-11.281,0 -20.222,3.901 -26.82,11.7c-6.601,7.802 -9.9,18.72 -9.9,32.76c0,14.282 3.15,25.29 9.45,33.03c6.3,7.74 15.508,11.61 27.63,11.61c9.478,0 17.159,-2.34 23.04,-7.02c5.878,-4.68 8.82,-11.458 8.82,-20.34l0,-3.42l-36.36,0l0,-15.84l53.46,0z" fill="rgba(0,0,0,0.1)"/>
    </g>
   </g>
   <g transform="rotate(-20 416.5691528320313,115.16317749023425) matrix(0.005324473740390384,0.19379638962583656,-0.2064873110434041,-0.005324473740390377,11982.817459379765,-9045.041755192113) " stroke="null" id="svg_908">
    <g stroke="null" id="svg_907">
     <path stroke="null" id="svg_906" d="m19694.652939,19185.471924c-2.281,-2.098 -3.42,-5.068 -3.42,-8.91c0,-3.839 1.139,-6.778 3.42,-8.82c2.278,-2.039 5.459,-3.06 9.54,-3.06c4.078,0 7.229,1.021 9.449,3.06c2.22,2.042 3.33,4.981 3.33,8.82c0,3.842 -1.11,6.812 -3.33,8.91c-2.221,2.101 -5.371,3.15 -9.449,3.15c-4.081,0 -7.262,-1.049 -9.54,-3.15zm19.08,108.27l-19.261,0l0,-90l19.261,0l0,90z" fill="rgba(0,0,0,0.1)"/>
    </g>
   </g>
   <g transform="rotate(-140 344.9138488769531,42.929393768310504) matrix(-0.008157567042717931,0.198703451168051,-0.20158024950118963,0.008157567042717959,50526.07992691922,18331.929901683518) " stroke="null" id="svg_911">
    <g stroke="null" id="svg_910">
     <path stroke="null" id="svg_909" d="m19330.579087,19548.870909l29.16,0l0,15.12l-28.62,0l0,74.88l-19.26,0l0,-74.88l-16.92,0l0,-15.12l16.92,0l0,-12.96c0,-9.118 2.759,-16.2 8.279,-21.24c5.519,-5.04 13.259,-7.56 23.221,-7.56c3.6,0 6.898,0.391 9.899,1.17c2.998,0.782 5.339,1.831 7.021,3.15l-3.601,14.04c-2.762,-1.8 -6.182,-2.7 -10.26,-2.7c-10.561,0 -15.84,4.86 -15.84,14.58l0,11.52l0.001,0z" fill="rgba(0,0,0,0.1)"/>
    </g>
   </g>
   <g transform="rotate(10 484.22570800781267,188.927993774414) matrix(-0.0028330933023275606,0.19235799045926724,-0.2079257102099734,0.0028330933023275606,1519.7809250054092,-40.23551779336958) " stroke="null" id="svg_914">
    <g stroke="null" id="svg_913">
     <path stroke="null" id="svg_912" d="m20091.541939,18880.484657l29.16,0l0,15.12l-28.62,0l0,74.88l-19.26,0l0,-74.88l-16.92,0l0,-15.12l16.92,0l0,-12.96c0,-9.118 2.759,-16.2 8.279,-21.24c5.519,-5.04 13.259,-7.56 23.221,-7.56c3.6,0 6.898,0.391 9.899,1.17c2.998,0.781 5.339,1.83 7.021,3.15l-3.601,14.039c-2.762,-1.8 -6.182,-2.699 -10.26,-2.699c-10.561,0 -15.84,4.859 -15.84,14.58l0,11.52l0.001,0z" fill="rgba(0,0,0,0.1)"/>
    </g>
   </g>
   <g transform="rotate(-4 491.61242675781233,41.04021453857482) matrix(0.0011528279485535434,0.1919390532543641,-0.2083446474148765,-0.0011528279485535434,5759.87559927209,-4912.420155521538) " stroke="null" id="svg_917">
    <g stroke="null" id="svg_916">
     <path stroke="null" id="svg_915" d="m19350.697423,18834.783924c7.92,8.28 11.881,19.741 11.881,34.38c0,14.642 -3.961,26.1 -11.881,34.38s-18.9,12.42 -32.939,12.42c-14.041,0 -25.021,-4.14 -32.94,-12.42s-11.88,-19.738 -11.88,-34.38c0,-14.639 3.96,-26.1 11.88,-34.38s18.899,-12.42 32.94,-12.42c14.039,0 25.019,4.14 32.939,12.42zm-51.75,10.89c-4.382,5.462 -6.57,13.292 -6.57,23.49c0,10.201 2.188,18.031 6.57,23.49c4.379,5.462 10.648,8.189 18.811,8.189c8.158,0 14.459,-2.759 18.9,-8.279c4.438,-5.519 6.658,-13.32 6.658,-23.4s-2.221,-17.879 -6.658,-23.4c-4.441,-5.518 -10.742,-8.279 -18.9,-8.279c-8.162,-0.001 -14.432,2.73 -18.811,8.189z" fill="rgba(0,0,0,0.1)"/>
    </g>
   </g>
   <g transform="rotate(60 413.42001342773426,264.7512817382813) matrix(-0.007173644064498788,0.20428355566632925,-0.19600014500291135,0.007173644064498816,-2069.367154168145,22813.421918948123) " stroke="null" id="svg_920">
    <g stroke="null" id="svg_919">
     <path stroke="null" id="svg_918" d="m20515.449932,19207.056594c6.3,5.76 9.45,14.04 9.45,24.84l0,58.32l-19.26,0l0,-52.2c0,-15.84 -6.421,-23.76 -19.261,-23.76c-6.722,0 -12.481,2.312 -17.279,6.93c-4.802,4.621 -7.2,11.731 -7.2,21.33l0,47.7l-19.26,0l0,-90l17.1,0l0.9,14.94c2.998,-5.64 7.138,-9.839 12.42,-12.601c5.278,-2.759 11.277,-4.14 18,-4.14c9.959,0.001 18.09,2.881 24.39,8.641z" fill="rgba(0,0,0,0.1)"/>
    </g>
   </g>
   <g transform="rotate(140 343.49578857421875,261.7146301269531) matrix(0.008157567042717931,0.198703451168051,-0.20158024950118963,-0.008157567042717959,27246.667658914914,43406.73498702168) " stroke="null" id="svg_923">
    <g stroke="null" id="svg_922">
     <path stroke="null" id="svg_921" d="m20458.4928,19536.052685c-2.281,-2.098 -3.42,-5.068 -3.42,-8.91c0,-3.839 1.139,-6.778 3.42,-8.82c2.278,-2.039 5.459,-3.06 9.54,-3.06c4.078,0 7.229,1.021 9.449,3.06c2.22,2.042 3.33,4.981 3.33,8.82c0,3.842 -1.11,6.812 -3.33,8.91c-2.221,2.101 -5.371,3.15 -9.449,3.15c-4.081,0 -7.262,-1.049 -9.54,-3.15zm19.08,108.27l-19.261,0l0,-90l19.261,0l0,90z" fill="rgba(0,0,0,0.1)"/>
    </g>
   </g>
  </g>
 </g>
</svg>