<svg width="899.9999999999999" height="899.9999999999999" xmlns="http://www.w3.org/2000/svg">
 
 <g>
  <g transform="matrix(0.21013269397429066,0,0,0.21013269397429066,-765.5389907293962,-840.5338593641425) " stroke="null" id="svg_276">
   <g stroke="null" id="svg_277">
    <path stroke="null" id="svg_278" d="m4957.575352,4900.025195l0,61.38l-14.22,0l-0.54,-15.12c-3.482,5.4 -8.28,9.571 -14.4,12.51s-13.441,4.41 -21.96,4.41c-11.042,0 -20.7,-2.458 -28.98,-7.38c-8.28,-4.919 -14.701,-11.97 -19.26,-21.15c-4.562,-9.18 -6.84,-20.07 -6.84,-32.67c0,-12.479 2.34,-23.31 7.02,-32.49c4.68,-9.18 11.278,-16.259 19.8,-21.24c8.519,-4.978 18.419,-7.47 29.7,-7.47c12.24,0 22.32,2.281 30.24,6.84c7.92,4.562 14.158,11.641 18.72,21.24l-17.64,8.46c-2.281,-6.48 -6.12,-11.399 -11.52,-14.76c-5.4,-3.358 -11.88,-5.04 -19.44,-5.04c-11.281,0 -20.222,3.901 -26.82,11.7c-6.601,7.802 -9.9,18.72 -9.9,32.76c0,14.282 3.15,25.29 9.45,33.03c6.3,7.74 15.508,11.61 27.63,11.61c9.478,0 17.159,-2.34 23.04,-7.02c5.878,-4.68 8.82,-11.458 8.82,-20.34l0,-3.42l-36.36,0l0,-15.84l53.46,0z" fill="rgba(0,0,0,0.1)"/>
   </g>
  </g>
  <g transform="matrix(0.21013269397429066,0,0,0.21013269397429066,-765.5389907293962,-840.5338593641425) " stroke="null" id="svg_279">
   <g stroke="null" id="svg_280">
    <path stroke="null" id="svg_281" d="m5947.782702,4507.958256c-2.281,-2.098 -3.42,-5.068 -3.42,-8.91c0,-3.839 1.139,-6.778 3.42,-8.82c2.278,-2.039 5.459,-3.06 9.54,-3.06c4.078,0 7.229,1.021 9.449,3.06c2.22,2.042 3.33,4.981 3.33,8.82c0,3.842 -1.11,6.812 -3.33,8.91c-2.221,2.101 -5.371,3.15 -9.449,3.15c-4.081,0 -7.262,-1.049 -9.54,-3.15zm19.08,108.27l-19.261,0l0,-90l19.261,0l0,90z" fill="rgba(0,0,0,0.1)"/>
   </g>
  </g>
  <g transform="matrix(0.21013269397429066,0,0,0.21013269397429066,-765.5389907293962,-840.5338593641425) " stroke="null" id="svg_288">
   <g stroke="null" id="svg_289">
    <path stroke="null" id="svg_290" d="m4565.580172,6307.835968c7.92,8.28 11.881,19.741 11.881,34.38c0,14.642 -3.961,26.1 -11.881,34.38s-18.9,12.42 -32.939,12.42c-14.041,0 -25.021,-4.14 -32.94,-12.42s-11.88,-19.738 -11.88,-34.38c0,-14.639 3.96,-26.1 11.88,-34.38s18.899,-12.42 32.94,-12.42c14.039,0 25.019,4.14 32.939,12.42zm-51.75,10.89c-4.382,5.462 -6.57,13.292 -6.57,23.49c0,10.201 2.188,18.031 6.57,23.49c4.379,5.462 10.648,8.189 18.811,8.189c8.158,0 14.459,-2.759 18.9,-8.279c4.438,-5.519 6.658,-13.32 6.658,-23.4s-2.221,-17.879 -6.658,-23.4c-4.441,-5.518 -10.742,-8.279 -18.9,-8.279c-8.162,-0.001 -14.432,2.73 -18.811,8.189z" fill="rgba(0,0,0,0.1)"/>
   </g>
  </g>
  <g transform="matrix(0.21013269397429066,0,0,0.21013269397429066,-765.5389907293962,-840.5338593641425) " stroke="null" id="svg_291">
   <g stroke="null" id="svg_292">
    <path stroke="null" id="svg_293" d="m6308.57326,6670.734231c6.3,5.76 9.45,14.04 9.45,24.84l0,58.32l-19.26,0l0,-52.2c0,-15.84 -6.421,-23.76 -19.261,-23.76c-6.722,0 -12.481,2.312 -17.279,6.93c-4.802,4.621 -7.2,11.731 -7.2,21.33l0,47.7l-19.26,0l0,-90l17.1,0l0.9,14.94c2.998,-5.64 7.138,-9.839 12.42,-12.601c5.278,-2.759 11.277,-4.14 18,-4.14c9.959,0.001 18.09,2.881 24.39,8.641z" fill="rgba(0,0,0,0.1)"/>
   </g>
  </g>
  <path id="svg_295" d="m298.023036,188.011801c30.50072,-0.50001 61.6671,-19.16636 76.00014,-34.66673c14.33304,-15.50037 33.99915,-34.83344 75.33405,-34.66615" fill-opacity="null" stroke-opacity="null" stroke-width="2" stroke="#000" opacity="0.1" fill="none"/>
  <g id="svg_311">
   <g transform="matrix(0.21013269397429066,0,0,0.21013269397429066,-765.5389907293962,-840.5338593641425) " stroke="null" id="svg_306">
    <g stroke="null" id="svg_305">
     <path stroke="null" id="svg_304" d="m7397.023775,4906.715188l29.16,0l0,15.12l-28.62,0l0,74.88l-19.26,0l0,-74.88l-16.92,0l0,-15.12l16.92,0l0,-12.96c0,-9.118 2.759,-16.2 8.279,-21.24c5.519,-5.04 13.259,-7.56 23.221,-7.56c3.6,0 6.898,0.391 9.899,1.17c2.998,0.782 5.339,1.831 7.021,3.15l-3.601,14.04c-2.762,-1.8 -6.182,-2.7 -10.26,-2.7c-10.561,0 -15.84,4.86 -15.84,14.58l0,11.52l0.001,0z" fill="rgba(0,0,0,0.1)"/>
    </g>
   </g>
   <g transform="matrix(0.21013269397429066,0,0,0.21013269397429066,-765.5389907293962,-840.5338593641425) " stroke="null" id="svg_309">
    <g stroke="null" id="svg_308">
     <path stroke="null" id="svg_307" d="m8459.596335,5600.943458l29.16,0l0,15.12l-28.62,0l0,74.88l-19.26,0l0,-74.88l-16.92,0l0,-15.12l16.92,0l0,-12.96c0,-9.118 2.759,-16.2 8.279,-21.24c5.519,-5.04 13.259,-7.56 23.221,-7.56c3.6,0 6.898,0.391 9.899,1.17c2.998,0.781 5.339,1.83 7.021,3.15l-3.601,14.039c-2.762,-1.8 -6.182,-2.699 -10.26,-2.699c-10.561,0 -15.84,4.859 -15.84,14.58l0,11.52l0.001,0z" fill="rgba(0,0,0,0.1)"/>
    </g>
   </g>
   <path id="svg_310" d="m822.047103,193.322094c28.66745,0 66.66862,56.00164 74.66886,66.66862c8.00023,10.66698 46.00144,83.33579 76.00222,84.00246" fill-opacity="null" stroke-opacity="null" stroke-width="2" stroke="#000" opacity="0.1" fill="none"/>
  </g>
  <g id="svg_319">
   <g transform="matrix(0.21013269397429066,0,0,0.21013269397429066,-765.5389907293962,-840.5338593641425) " stroke="null" id="svg_314">
    <g stroke="null" id="svg_313">
     <path stroke="null" id="svg_312" d="m3116.965124,4906.715188l29.16,0l0,15.12l-28.62,0l0,74.88l-19.26,0l0,-74.88l-16.92,0l0,-15.12l16.92,0l0,-12.96c0,-9.118 2.759,-16.2 8.279,-21.24c5.519,-5.04 13.259,-7.56 23.221,-7.56c3.6,0 6.898,0.391 9.899,1.17c2.998,0.782 5.339,1.831 7.021,3.15l-3.601,14.04c-2.762,-1.8 -6.182,-2.7 -10.26,-2.7c-10.561,0 -15.84,4.86 -15.84,14.58l0,11.52l0.001,0z" fill="rgba(0,0,0,0.1)"/>
    </g>
   </g>
   <g transform="matrix(0.21013269397429066,0,0,0.21013269397429066,-765.5389907293962,-840.5338593641425) " stroke="null" id="svg_317">
    <g stroke="null" id="svg_316">
     <path stroke="null" id="svg_315" d="m4179.537684,5600.943458l29.16,0l0,15.12l-28.62,0l0,74.88l-19.26,0l0,-74.88l-16.92,0l0,-15.12l16.92,0l0,-12.96c0,-9.118 2.759,-16.2 8.279,-21.24c5.519,-5.04 13.259,-7.56 23.221,-7.56c3.6,0 6.898,0.391 9.899,1.17c2.998,0.781 5.339,1.83 7.021,3.15l-3.601,14.039c-2.762,-1.8 -6.182,-2.699 -10.26,-2.699c-10.561,0 -15.84,4.859 -15.84,14.58l0,11.52l0.001,0z" fill="rgba(0,0,0,0.1)"/>
    </g>
   </g>
   <path id="svg_318" d="m-77.333161,193.322094c28.66745,0 66.66862,56.00164 74.66886,66.66862c8.00023,10.66698 46.00144,83.33579 76.00222,84.00246" fill-opacity="null" stroke-opacity="null" stroke-width="2" stroke="#000" opacity="0.1" fill="none"/>
  </g>
  <path id="svg_320" d="m292.649047,490.687643" fill-opacity="null" stroke-opacity="null" stroke-width="2" stroke="#000" opacity="0.1" fill="none"/>
  <path stroke="#000" opacity="0.1" id="svg_321" d="m223.297772,489.354224c52.221598,-0.16658 130.88256,31.16915 154.091834,39.35492c23.592818,9.31421 80.80216,36.48336 140.6072,37.98336" fill-opacity="null" stroke-opacity="null" stroke-width="2" fill="none"/>
  <g transform="matrix(0.21013269397429066,0,0,0.21013269397429066,-765.5389907293962,-840.5338593641425) " stroke="null" id="svg_324">
   <g stroke="null" id="svg_323">
    <path stroke="null" id="svg_322" d="m5600.974188,8092.544438l29.16,0l0,15.12l-28.62,0l0,74.88l-19.26,0l0,-74.88l-16.92,0l0,-15.12l16.92,0l0,-12.96c0,-9.118 2.759,-16.2 8.279,-21.24c5.519,-5.04 13.259,-7.56 23.221,-7.56c3.6,0 6.898,0.391 9.899,1.17c2.998,0.782 5.339,1.831 7.021,3.15l-3.601,14.04c-2.762,-1.8 -6.182,-2.7 -10.26,-2.7c-10.561,0 -15.84,4.86 -15.84,14.58l0,11.52l0.001,0z" fill="rgba(0,0,0,0.1)"/>
   </g>
  </g>
  <g transform="matrix(0.21013269397429066,0,0,0.21013269397429066,-765.5389907293962,-840.5338593641425) " stroke="null" id="svg_332">
   <g stroke="null" id="svg_331">
    <path stroke="null" id="svg_330" d="m7066.018215,7729.385289c7.92,8.28 11.881,19.741 11.881,34.38c0,14.642 -3.961,26.1 -11.881,34.38s-18.9,12.42 -32.939,12.42c-14.041,0 -25.021,-4.14 -32.94,-12.42s-11.88,-19.738 -11.88,-34.38c0,-14.639 3.96,-26.1 11.88,-34.38s18.899,-12.42 32.94,-12.42c14.039,0 25.019,4.14 32.939,12.42zm-51.75,10.89c-4.382,5.462 -6.57,13.292 -6.57,23.49c0,10.201 2.188,18.031 6.57,23.49c4.379,5.462 10.648,8.189 18.811,8.189c8.158,0 14.459,-2.759 18.9,-8.279c4.438,-5.519 6.658,-13.32 6.658,-23.4s-2.221,-17.879 -6.658,-23.4c-4.441,-5.518 -10.742,-8.279 -18.9,-8.279c-8.162,-0.001 -14.432,2.73 -18.811,8.189z" fill="rgba(0,0,0,0.1)"/>
   </g>
  </g>
  <path id="svg_333" d="m449.317277,868.001069c40.832146,0.499883 92.848154,-34.506022 110.684101,-44.006932c17.835947,-9.50091 68.518412,-33.172478 114.684731,-33.338584" fill-opacity="null" stroke-opacity="null" stroke-width="2" stroke="#000" opacity="0.1" fill="none"/>
 </g>
</svg>