<svg width="358.00000000000006" height="647" xmlns="http://www.w3.org/2000/svg">
 <!-- Created with Method Draw - http://github.com/duopixel/Method-Draw/ -->
 <defs>
  <linearGradient y2="1" x2="0" y1="0" x1="0" id="svg_106">
   <stop offset="0" stop-color="#one"/>
   <stop offset="1" stop-color="#NaNNaN11"/>
  </linearGradient>
 </defs>
 <g>
  <title>background</title>
  <rect fill="none" id="canvas_background" height="649" width="360" y="-1" x="-1"/>
  <g display="none" overflow="visible" y="0" x="0" height="100%" width="100%" id="canvasGrid">
   <rect fill="url(#gridpattern)" stroke-width="0" y="0" x="0" height="100%" width="100%"/>
  </g>
 </g>
 <g>
  <title>Layer 1</title>
  <g stroke="null" id="svg_103">
   <g stroke="null" transform="matrix(0.497779031302518,0,0,0.497779031302518,-5277.324241042657,-3711.035338780335) " id="svg_8">
    <g stroke="null" id="svg_10">
     <path stroke="null" id="svg_11" d="m10856.300645,7634.211017c43.881,-14.181 87.874,-27.651 133.874,-29.908l0,-5.944c-17,0.821 -33.56,2.638 -50.254,5.977c-23.403,4.681 -46.309,11.625 -69.024,18.869c-43.114,13.75 -86.809,30.025 -132.51,31.668c-23.092,0.83 -45.977,-2.982 -67.372,-11.76c-26.235,-10.762 -48.697,-29.162 -67.935,-49.674c-2.651,-2.828 -6.887,1.424 -4.243,4.242c18.279,19.49 39.197,36.601 63.455,48.086c19.805,9.377 41.338,14.221 63.189,15.092c44.836,1.787 88.738,-13.049 130.82,-26.648z" fill="#212529"/>
     <path stroke="null" id="svg_12" d="m11019.174645,7603.774017l0,-5.954c-3,-0.023 -6.254,-0.023 -9.426,0c-3.242,0.023 -6.574,0.079 -9.574,0.164l0,5.981c6,-0.151 13,-0.225 19,-0.191z" fill="#212529"/>
     <path stroke="null" id="svg_13" d="m11284.651645,8209.077017c1.092,-7.4 1.613,-14.819 1.549,-22.19c-0.367,-0.376 -0.731,-0.743 -1.122,-1.101c-1.569,-1.435 -3.246,-2.69 -5.043,-3.769c0.467,10.109 -0.217,20.354 -1.987,30.532c-0.746,4.289 -1.873,8.532 -2.873,12.726l0,18.695c4.999,-11.166 7.703,-22.879 9.476,-34.893z" fill="#212529"/>
     <path stroke="null" id="svg_14" d="m11218.580645,7730.375017c-1.89,-13.955 -6.406,-27.286 -12.406,-40.024l0,6.42l-3.378,0c5.024,12 8.521,23.401 10.036,35.567c2.057,16.516 0.342,33.616 -6.658,48.819l0,5.614l3.316,0c8.466,-17 11.788,-36.469 9.09,-56.396z"/>
     <path stroke="null" id="svg_15" d="m11029.174645,7603.923017c36,0.897 72.807,5.947 105.328,22.129c25.102,12.492 47.182,33.286 61.569,58.129c0.008,-3.431 0.365,-6.662 1.007,-9.698c-13.297,-20.421 -31.625,-37.781 -52.265,-49.699c-34.746,-20.062 -75.639,-25.79 -115.639,-26.802l0,5.941z" fill="#212529"/>
     <path stroke="null" id="svg_16" d="m11039.272645,8088.240017c0.255,2.266 0.682,4.288 1.264,6.084c2.895,-1.496 5.78,-3.008 8.647,-4.551c6.914,-3.721 13.65,-7.765 20.532,-11.539c-0.189,-2.216 -0.523,-4.24 -1.017,-6.049c-3.497,1.809 -6.966,3.703 -10.411,5.673c-6.269,3.585 -12.61,7.046 -19.015,10.382z" fill="#212529"/>
     <path stroke="null" id="svg_17" d="m11003.033645,8105.318017c-34.063,14.372 -73.261,26.095 -110.002,18.532c-42.892,-8.829 -66.741,-50.851 -70.424,-91.962c-3.991,-44.541 14.021,-91.229 45.746,-122.492c18.88,-18.606 44.144,-30.983 69.072,-39.182c26.933,-8.858 55.253,-11.981 83.398,-14.016c27.65,-1.999 55.364,-3.15 82.771,-7.59c24.109,-3.906 49.259,-9.762 70.317,-22.606c12.821,-7.82 23.176,-18.193 30.764,-30.178l-4.104,-4.104c-9.683,15.58 -24.402,27.271 -40.896,35.17c-11.297,5.41 -23.554,8.513 -35.666,11.491c-14.163,3.483 -28.615,5.685 -43.102,7.282c-27.687,3.054 -55.576,3.666 -83.281,6.529c-50.946,5.266 -105.385,20.954 -140.605,60.411c-29.088,32.587 -44.493,78.433 -40.163,121.945c3.953,39.723 26.496,80.209 66.165,92.891c37.191,11.89 79.254,0.221 114.282,-13.412c2.663,-1.036 5.311,-2.112 7.95,-3.207c-0.834,-1.765 -1.569,-3.604 -2.222,-5.502z" fill="#212529"/>
     <path stroke="null" id="svg_19" d="m11279.015645,8170.412017c2.264,0.892 4.426,1.96 6.475,3.215c-3.205,-30.966 -16.692,-60.231 -39.872,-82.275c-33.618,-31.971 -80.596,-44.246 -125.919,-36.89c-5.042,0.818 -9.969,1.918 -14.808,3.24c0.712,1.827 1.334,3.72 1.869,5.675c45.271,-12.086 94.408,-2.486 130.213,28.239c23.939,20.544 38.046,48.686 42.042,78.796z" fill="#212529"/>
     <path stroke="null" id="svg_20" d="m11029.887645,8093.003017c-5.828,2.885 -11.712,5.656 -17.65,8.307c0.631,1.94 1.371,3.793 2.223,5.556c5.741,-2.547 11.43,-5.213 17.064,-7.99c-0.682,-1.81 -1.228,-3.767 -1.637,-5.873z" fill="#212529"/>
     <path stroke="null" id="svg_21" d="m11077.775645,8067.740017c0.584,1.757 1.049,3.638 1.39,5.645c5.854,-2.75 11.872,-5.133 18.013,-7.158c-0.521,-1.94 -1.138,-3.804 -1.864,-5.579c-5.967,2.047 -11.801,4.436 -17.539,7.092z" fill="#212529"/>
    </g>
    <g stroke="null" id="svg_22">
     <g stroke="null" id="svg_23">
      <g stroke="null" id="svg_24">
       <path stroke="null" id="svg_25" d="m10777.857645,7576.258017l0,61.38l-14.22,0l-0.54,-15.12c-3.482,5.4 -8.28,9.571 -14.4,12.51s-13.441,4.41 -21.96,4.41c-11.042,0 -20.7,-2.458 -28.98,-7.38c-8.28,-4.919 -14.701,-11.97 -19.26,-21.15c-4.562,-9.18 -6.84,-20.07 -6.84,-32.67c0,-12.479 2.34,-23.31 7.02,-32.49c4.68,-9.18 11.278,-16.259 19.8,-21.24c8.519,-4.978 18.419,-7.47 29.7,-7.47c12.24,0 22.32,2.281 30.24,6.84c7.92,4.562 14.158,11.641 18.72,21.24l-17.64,8.46c-2.281,-6.48 -6.12,-11.399 -11.52,-14.76c-5.4,-3.358 -11.88,-5.04 -19.44,-5.04c-11.281,0 -20.222,3.901 -26.82,11.7c-6.601,7.802 -9.9,18.72 -9.9,32.76c0,14.282 3.15,25.29 9.45,33.03c6.3,7.74 15.508,11.61 27.63,11.61c9.478,0 17.159,-2.34 23.04,-7.02c5.878,-4.68 8.82,-11.458 8.82,-20.34l0,-3.42l-36.36,0l0,-15.84l53.46,0z" fill="#212529"/>
      </g>
     </g>
     <g stroke="null" id="svg_26">
      <g stroke="null" id="svg_27">
       <path stroke="null" id="svg_28" d="m11000.294645,7545.868017c-2.281,-2.098 -3.42,-5.068 -3.42,-8.91c0,-3.839 1.139,-6.778 3.42,-8.82c2.278,-2.039 5.459,-3.06 9.54,-3.06c4.078,0 7.229,1.021 9.449,3.06c2.22,2.042 3.33,4.981 3.33,8.82c0,3.842 -1.11,6.812 -3.33,8.91c-2.221,2.101 -5.371,3.15 -9.449,3.15c-4.081,0 -7.262,-1.049 -9.54,-3.15zm19.08,108.27l-19.261,0l0,-90l19.261,0l0,90z" fill="#212529"/>
      </g>
     </g>
     <g stroke="null" id="svg_29">
      <g stroke="null" id="svg_30">
       <path stroke="null" id="svg_31" d="m11224.838645,7697.267017l29.16,0l0,15.12l-28.62,0l0,74.88l-19.26,0l0,-74.88l-16.92,0l0,-15.12l16.92,0l0,-12.96c0,-9.118 2.759,-16.2 8.279,-21.24c5.519,-5.04 13.259,-7.56 23.221,-7.56c3.6,0 6.898,0.391 9.899,1.17c2.998,0.782 5.339,1.831 7.021,3.15l-3.601,14.04c-2.762,-1.8 -6.182,-2.7 -10.26,-2.7c-10.561,0 -15.84,4.86 -15.84,14.58l0,11.52l0.001,0z" fill="#212529"/>
      </g>
     </g>
     <g stroke="null" id="svg_32">
      <g stroke="null" id="svg_33">
       <path stroke="null" id="svg_34" d="m10777.183645,7890.214017l29.16,0l0,15.12l-28.62,0l0,74.88l-19.26,0l0,-74.88l-16.92,0l0,-15.12l16.92,0l0,-12.96c0,-9.118 2.759,-16.2 8.279,-21.24c5.519,-5.04 13.259,-7.56 23.221,-7.56c3.6,0 6.898,0.391 9.899,1.17c2.998,0.781 5.339,1.83 7.021,3.15l-3.601,14.039c-2.762,-1.8 -6.182,-2.699 -10.26,-2.699c-10.561,0 -15.84,4.859 -15.84,14.58l0,11.52l0.001,0z" fill="#212529"/>
      </g>
     </g>
     <g stroke="null" id="svg_35">
      <g stroke="null" id="svg_36">
       <path stroke="null" id="svg_37" d="m11087.289645,8048.180017c7.92,8.28 11.881,19.741 11.881,34.38c0,14.642 -3.961,26.1 -11.881,34.38s-18.9,12.42 -32.939,12.42c-14.041,0 -25.021,-4.14 -32.94,-12.42s-11.88,-19.738 -11.88,-34.38c0,-14.639 3.96,-26.1 11.88,-34.38s18.899,-12.42 32.94,-12.42c14.039,0 25.019,4.14 32.939,12.42zm-51.75,10.89c-4.382,5.462 -6.57,13.292 -6.57,23.49c0,10.201 2.188,18.031 6.57,23.49c4.379,5.462 10.648,8.189 18.811,8.189c8.158,0 14.459,-2.759 18.9,-8.279c4.438,-5.519 6.658,-13.32 6.658,-23.4s-2.221,-17.879 -6.658,-23.4c-4.441,-5.518 -10.742,-8.279 -18.9,-8.279c-8.162,-0.001 -14.432,2.73 -18.811,8.189z" fill="#212529"/>
      </g>
     </g>
     <g stroke="null" id="svg_38">
      <g stroke="null" id="svg_39">
       <path stroke="null" id="svg_40" d="m11285.091645,8185.786017c6.3,5.76 9.45,14.04 9.45,24.84l0,58.32l-19.26,0l0,-52.2c0,-15.84 -6.421,-23.76 -19.261,-23.76c-6.722,0 -12.481,2.312 -17.279,6.93c-4.802,4.621 -7.2,11.731 -7.2,21.33l0,47.7l-19.26,0l0,-90l17.1,0l0.9,14.94c2.998,-5.64 7.138,-9.839 12.42,-12.601c5.278,-2.759 11.277,-4.14 18,-4.14c9.959,0.001 18.09,2.881 24.39,8.641z" fill="#212529"/>
      </g>
     </g>
    </g>
   </g>
   <g stroke="null" transform="matrix(0.497779031302518,0,0,0.497779031302518,-5277.324241042657,-3711.035338780335) " display="none" id="svg_7">
    <g stroke="null" id="svg_41" display="inline">
     <g stroke="null" id="svg_42">
      <path stroke="null" id="svg_43" d="m10598.835645,7597.681017c18.279,19.49 39.198,36.601 63.456,48.086c19.805,9.377 41.323,14.221 63.175,15.092c44.834,1.787 88.723,-13.049 130.805,-26.648c45.676,-14.761 91.184,-28.76 139.529,-30.134c46.729,-1.329 96.172,0.762 138.803,21.976c40.233,20.021 72.577,61.368 78.203,106.534c2.343,18.809 -0.723,38.057 -9.707,54.806c-9.532,17.768 -25.431,30.883 -43.422,39.499c-11.297,5.41 -23.554,8.513 -35.666,11.491c-14.163,3.483 -28.615,5.685 -43.102,7.282c-27.687,3.054 -55.576,3.666 -83.281,6.529c-50.946,5.266 -105.385,20.954 -140.605,60.411c-29.088,32.587 -44.493,78.433 -40.163,121.945c3.953,39.723 26.496,80.209 66.165,92.891c37.191,11.89 79.254,0.221 114.282,-13.412c17.8,-6.928 35.065,-15.207 51.878,-24.256c7.991,-4.301 15.733,-9.058 23.753,-13.299c10.287,-5.44 21.19,-9.613 32.395,-12.724c45.664,-12.674 95.462,-3.184 131.643,27.865c34.921,29.968 48.929,76.104 41.131,120.934c-6.866,39.474 -30.131,75.437 -63.6,97.491c-3.216,2.119 -0.214,7.317 3.027,5.182c36.366,-23.964 60.827,-63.123 67.173,-106.146c6.391,-43.326 -7.168,-87.371 -39.087,-117.726c-33.618,-31.971 -80.596,-44.246 -125.919,-36.89c-22.115,3.59 -42.104,12.356 -61.411,23.396c-15.802,9.035 -32.038,17.324 -48.707,24.642c-35.526,15.593 -77.431,29.402 -116.549,21.351c-42.892,-8.829 -66.741,-50.851 -70.424,-91.962c-3.991,-44.541 14.021,-91.229 45.746,-122.492c18.88,-18.606 44.144,-30.983 69.072,-39.182c26.933,-8.858 55.253,-11.981 83.398,-14.016c27.65,-1.999 55.364,-3.15 82.771,-7.59c24.109,-3.906 49.259,-9.762 70.317,-22.606c33.056,-20.162 49.805,-57.239 44.64,-95.379c-5.934,-43.825 -35.765,-83.978 -73.626,-105.838c-40.467,-23.365 -89.356,-27.295 -135.107,-26.966c-23.603,0.169 -46.754,1.881 -69.929,6.517c-23.403,4.681 -46.293,11.625 -69.009,18.869c-43.114,13.75 -86.801,30.025 -132.502,31.668c-23.092,0.83 -45.973,-2.982 -67.368,-11.76c-26.237,-10.761 -48.698,-29.161 -67.936,-49.673c-2.651,-2.828 -6.886,1.424 -4.242,4.242l0,0z"/>
     </g>
    </g>
    <g stroke="null" id="svg_44" display="inline">
     <g stroke="null" id="svg_45">
      <g stroke="null" id="svg_46">
       <path stroke="null" id="svg_47" d="m10726.737645,7644.438017c-11.903,0 -22.513,-2.719 -31.535,-8.082c-9.083,-5.396 -16.21,-13.209 -21.184,-23.224c-4.885,-9.831 -7.362,-21.571 -7.362,-34.894c0,-13.219 2.545,-24.914 7.565,-34.761c5.102,-10.004 12.413,-17.838 21.733,-23.286c9.259,-5.41 20.1,-8.153 32.223,-8.153c13.067,0 24.081,2.526 32.734,7.507c8.778,5.056 15.756,12.938 20.742,23.427l-2.354,6.654l-17.64,8.46l-6.878,-2.848c-1.91,-5.425 -5,-9.408 -9.445,-12.175c-4.572,-2.843 -10.224,-4.285 -16.798,-4.285c-9.826,0 -17.35,3.248 -23.002,9.929c-5.785,6.837 -8.717,16.772 -8.717,29.531c0,13.034 2.802,23.084 8.328,29.874c5.349,6.572 13.119,9.767 23.752,9.767c8.275,0 14.979,-1.996 19.926,-5.933c4.324,-3.442 6.589,-8.31 6.897,-14.848l-31.323,0l-5,-5l0,-15.84l5,-5l53.46,0l5,5l0,61.38l-5,5l-14.22,0l-4.997,-4.822l-0.107,-3.007c-2.324,1.81 -4.885,3.388 -7.671,4.727c-6.777,3.252 -14.893,4.902 -24.127,4.902z"/>
       <path stroke="null" id="svg_48" d="m10728.177645,7517.038017c12.24,0 22.32,2.281 30.24,6.84c7.92,4.562 14.158,11.641 18.72,21.24l-17.64,8.46c-2.281,-6.48 -6.12,-11.399 -11.52,-14.76c-5.4,-3.358 -11.88,-5.04 -19.44,-5.04c-11.281,0 -20.222,3.901 -26.82,11.7c-6.601,7.802 -9.9,18.72 -9.9,32.76c0,14.282 3.15,25.29 9.45,33.03c6.3,7.74 15.508,11.61 27.63,11.61c9.478,0 17.159,-2.34 23.04,-7.02c5.878,-4.68 8.82,-11.458 8.82,-20.34l0,-3.42l-36.36,0l0,-15.84l53.46,0l0,61.38l-14.22,0l-0.54,-15.12c-3.482,5.4 -8.28,9.571 -14.4,12.51s-13.441,4.41 -21.96,4.41c-11.042,0 -20.7,-2.458 -28.98,-7.38c-8.28,-4.919 -14.701,-11.97 -19.26,-21.15c-4.562,-9.18 -6.84,-20.07 -6.84,-32.67c0,-12.479 2.34,-23.31 7.02,-32.49c4.68,-9.18 11.278,-16.259 19.8,-21.24c8.519,-4.978 18.419,-7.47 29.7,-7.47m0,-10c-13.021,0 -24.711,2.973 -34.746,8.836c-10.16,5.938 -18.121,14.461 -23.663,25.332c-5.382,10.557 -8.111,23.017 -8.111,37.032c0,14.102 2.653,26.591 7.884,37.12c5.408,10.89 13.183,19.401 23.108,25.297c9.803,5.827 21.272,8.783 34.087,8.783c9.989,0 18.834,-1.815 26.289,-5.395c1.528,-0.734 2.996,-1.533 4.402,-2.396l6.208,5.991l14.22,0l10,-10l0,-61.38l-10,-10l-53.46,0l-10,10l0,15.84l10,10l25.427,0c-1.028,3.113 -2.72,4.826 -4.116,5.937c-4.095,3.258 -9.595,4.843 -16.811,4.843c-9.034,0 -15.535,-2.592 -19.875,-7.923c-4.781,-5.874 -7.205,-14.863 -7.205,-26.717c0,-11.543 2.535,-20.392 7.534,-26.301c4.709,-5.566 10.806,-8.159 19.186,-8.159c5.707,0 10.337,1.155 14.159,3.532c3.44,2.141 5.852,5.278 7.369,9.588l13.757,5.697l17.64,-8.46l4.708,-13.309c-5.429,-11.424 -13.087,-20.041 -22.76,-25.613c-9.424,-5.425 -21.277,-8.175 -35.231,-8.175l0,0z" fill="#FFFFFF"/>
      </g>
     </g>
     <g stroke="null" id="svg_49">
      <g stroke="null" id="svg_50">
       <path stroke="null" id="svg_51" d="m11000.113645,7659.138017l-5,-5l0,-90l5,-5l19.261,0l5,5l0,90l-5,5l-19.261,0zm9.721,-105.12c-5.36,0 -9.71,-1.505 -12.93,-4.474c-3.336,-3.068 -5.03,-7.305 -5.03,-12.586c0,-5.304 1.711,-9.525 5.085,-12.545c3.214,-2.876 7.546,-4.334 12.875,-4.334c5.351,0 9.668,1.473 12.831,4.377c3.284,3.022 4.948,7.228 4.948,12.503c0,5.253 -1.647,9.473 -4.896,12.544c-3.166,2.995 -7.501,4.515 -12.883,4.515z"/>
       <path stroke="null" id="svg_52" d="m11009.834645,7525.078017c4.078,0 7.229,1.021 9.449,3.06c2.22,2.042 3.33,4.981 3.33,8.82c0,3.842 -1.11,6.812 -3.33,8.91c-2.221,2.101 -5.371,3.15 -9.449,3.15c-4.081,0 -7.262,-1.049 -9.54,-3.15c-2.281,-2.098 -3.42,-5.068 -3.42,-8.91c0,-3.839 1.139,-6.778 3.42,-8.82c2.278,-2.039 5.459,-3.06 9.54,-3.06m9.54,39.06l0,90l-19.261,0l0,-90l19.261,0m-9.54,-49.06c-6.598,0 -12.051,1.887 -16.209,5.608c-3.08,2.757 -6.751,7.818 -6.751,16.271c0,8.392 3.616,13.48 6.65,16.271c1.332,1.228 2.799,2.262 4.396,3.102l-7.808,7.808l0,90l10,10l19.262,0l10,-10l0,-90l-7.762,-7.762c1.66,-0.869 3.177,-1.951 4.544,-3.244c2.943,-2.783 6.457,-7.851 6.457,-16.174c0,-8.385 -3.567,-13.426 -6.56,-16.179c-4.121,-3.785 -9.576,-5.701 -16.219,-5.701l0,0z" fill="#FFFFFF"/>
      </g>
     </g>
     <g stroke="null" id="svg_53">
      <g stroke="null" id="svg_54">
       <path stroke="null" id="svg_55" d="m11206.118645,7792.267017l-5,-5l0,-69.88l-11.92,0l-5,-5l0,-15.12l5,-5l11.92,0l0,-7.96c0,-10.542 3.334,-18.931 9.908,-24.933c6.442,-5.884 15.39,-8.868 26.592,-8.868c4.002,0 7.755,0.448 11.156,1.331c3.711,0.968 6.604,2.294 8.85,4.056l1.757,5.176l-3.601,14.04l-7.573,2.946c-1.923,-1.253 -4.456,-1.889 -7.529,-1.889c-8.996,0 -10.84,3.83 -10.84,9.58l0,6.52l24.16,0l5,5l0,15.12l-5,5l-23.62,0l0,69.88l-5,5l-19.26,0l0,0.001z"/>
       <path stroke="null" id="svg_56" d="m11237.618645,7655.507017c3.6,0 6.898,0.391 9.899,1.17c2.998,0.782 5.339,1.831 7.021,3.15l-3.601,14.04c-2.762,-1.8 -6.182,-2.7 -10.26,-2.7c-10.561,0 -15.84,4.86 -15.84,14.58l0,11.52l29.16,0l0,15.12l-28.62,0l0,74.88l-19.26,0l0,-74.88l-16.92,0l0,-15.12l16.92,0l0,-12.96c0,-9.118 2.759,-16.2 8.279,-21.24c5.52,-5.04 13.26,-7.56 23.222,-7.56m0,-10c-12.489,0 -22.571,3.424 -29.965,10.176c-7.653,6.988 -11.535,16.619 -11.535,28.624l0,2.96l-6.92,0l-10,10l0,15.12l10,10l6.92,0l0,64.88l10,10l19.26,0l10,-10l0,-64.88l18.62,0l10,-10l0,-15.12l-10,-10l-19.16,0l0,-1.52c0,-2.292 0.46,-3.327 0.732,-3.578c0.404,-0.372 1.936,-1.002 5.107,-1.002c2.088,0 3.702,0.362 4.799,1.078l15.147,-5.894l3.601,-14.04l-3.514,-10.352c-2.796,-2.193 -6.286,-3.815 -10.67,-4.958c-3.82,-0.992 -7.996,-1.494 -12.422,-1.494l0,0z" fill="#FFFFFF"/>
      </g>
     </g>
     <g stroke="null" id="svg_57">
      <g stroke="null" id="svg_58">
       <path stroke="null" id="svg_59" d="m10758.463645,7985.214017l-5,-5l0,-69.88l-11.92,0l-5,-5l0,-15.12l5,-5l11.92,0l0,-7.96c0,-10.542 3.333,-18.931 9.908,-24.933c6.442,-5.884 15.389,-8.867 26.592,-8.867c4.003,0 7.756,0.447 11.156,1.33c3.712,0.968 6.606,2.294 8.852,4.058l1.755,5.175l-3.601,14.039l-7.573,2.946c-1.922,-1.252 -4.456,-1.888 -7.53,-1.888c-8.997,0 -10.84,3.83 -10.84,9.58l0,6.52l24.16,0l5,5l0,15.12l-5,5l-23.62,0l0,69.88l-5,5l-19.259,0z"/>
       <path stroke="null" id="svg_60" d="m10789.963645,7848.455017c3.6,0 6.898,0.391 9.899,1.17c2.998,0.781 5.339,1.83 7.021,3.15l-3.601,14.039c-2.762,-1.8 -6.182,-2.699 -10.26,-2.699c-10.561,0 -15.84,4.859 -15.84,14.58l0,11.52l29.16,0l0,15.12l-28.62,0l0,74.88l-19.26,0l0,-74.88l-16.92,0l0,-15.12l16.92,0l0,-12.96c0,-9.118 2.759,-16.2 8.279,-21.24c5.52,-5.041 13.26,-7.56 23.222,-7.56m0,-10c-12.49,0 -22.571,3.424 -29.964,10.176c-7.654,6.987 -11.536,16.619 -11.536,28.624l0,2.96l-6.92,0l-10,10l0,15.12l10,10l6.92,0l0,64.88l10,10l19.26,0l10,-10l0,-64.88l18.62,0l10,-10l0,-15.12l-10,-10l-19.16,0l0,-1.52c0,-2.292 0.46,-3.327 0.732,-3.578c0.405,-0.372 1.936,-1.002 5.108,-1.002c2.088,0 3.703,0.362 4.8,1.077l15.146,-5.894l3.601,-14.039l-3.511,-10.35c-2.797,-2.196 -6.289,-3.819 -10.674,-4.962c-3.819,-0.99 -7.995,-1.492 -12.422,-1.492l0,0z" fill="#FFFFFF"/>
      </g>
     </g>
     <g stroke="null" id="svg_61">
      <g stroke="null" id="svg_62">
       <path stroke="null" id="svg_63" d="m11054.350645,8134.360017c-15.393,0 -27.691,-4.698 -36.554,-13.964c-8.803,-9.203 -13.267,-21.934 -13.267,-37.836s4.464,-28.633 13.267,-37.836c8.862,-9.266 21.161,-13.964 36.554,-13.964s27.69,4.698 36.553,13.964c8.804,9.204 13.268,21.935 13.268,37.836s-4.464,28.632 -13.268,37.836c-8.863,9.266 -21.161,13.964 -36.553,13.964zm0,-78.48c-6.623,0 -11.5,2.066 -14.91,6.318c-3.63,4.524 -5.471,11.375 -5.471,20.361c0,8.988 1.84,15.839 5.47,20.36c3.409,4.253 8.286,6.319 14.911,6.319s11.532,-2.098 15.005,-6.413c3.685,-4.583 5.554,-11.402 5.554,-20.267c0,-8.862 -1.869,-15.682 -5.556,-20.269c-3.472,-4.31 -8.38,-6.409 -15.003,-6.409z"/>
       <path stroke="null" id="svg_64" d="m11054.350645,8035.760017c14.039,0 25.02,4.14 32.939,12.42s11.881,19.741 11.881,34.38c0,14.642 -3.961,26.1 -11.881,34.38s-18.9,12.42 -32.939,12.42c-14.041,0 -25.021,-4.14 -32.94,-12.42s-11.88,-19.738 -11.88,-34.38c0,-14.639 3.96,-26.1 11.88,-34.38s18.899,-12.42 32.94,-12.42m0,78.48c8.158,0 14.459,-2.759 18.9,-8.279c4.438,-5.519 6.658,-13.32 6.658,-23.4s-2.221,-17.879 -6.658,-23.4c-4.441,-5.518 -10.742,-8.279 -18.9,-8.279c-8.162,0 -14.432,2.73 -18.811,8.189c-4.382,5.462 -6.57,13.292 -6.57,23.49c0,10.201 2.188,18.031 6.57,23.49c4.379,5.461 10.649,8.189 18.811,8.189m0,-88.48c-16.811,0 -30.324,5.218 -40.167,15.508c-9.724,10.166 -14.653,24.059 -14.653,41.292s4.93,31.126 14.653,41.292c9.843,10.29 23.356,15.508 40.167,15.508c16.81,0 30.323,-5.218 40.166,-15.508c9.724,-10.166 14.654,-24.059 14.654,-41.292s-4.931,-31.126 -14.654,-41.292c-9.843,-10.29 -23.357,-15.508 -40.166,-15.508l0,0zm0,78.48c-6.674,0 -9.479,-2.536 -11.009,-4.444c-2.902,-3.616 -4.372,-9.413 -4.372,-17.235c0,-7.82 1.471,-13.618 4.37,-17.232c1.532,-1.909 4.339,-4.447 11.011,-4.447c6.676,0 9.538,2.597 11.11,4.55c2.95,3.671 4.448,9.436 4.448,17.13c0,7.696 -1.498,13.461 -4.451,17.134c-1.569,1.948 -4.429,4.544 -11.107,4.544l0,0z" fill="#FFFFFF"/>
      </g>
     </g>
     <g stroke="null" id="svg_65">
      <g stroke="null" id="svg_66">
       <path stroke="null" id="svg_67" d="m11275.281645,8273.946017l-5,-5l0,-52.2c0,-16.531 -7.209,-18.76 -14.261,-18.76c-5.427,0 -9.944,1.81 -13.812,5.532c-3.761,3.619 -5.668,9.584 -5.668,17.728l0,47.7l-5,5l-19.26,0l-5,-5l0,-90l5,-5l17.1,0l4.991,4.699l0.128,2.125c1.807,-1.503 3.771,-2.81 5.885,-3.915c5.978,-3.125 12.813,-4.709 20.316,-4.709c11.201,0 20.542,3.348 27.764,9.949c7.35,6.72 11.076,16.318 11.076,28.53l0,58.32l-5,5l-19.259,0l0,0.001z"/>
       <path stroke="null" id="svg_68" d="m11260.701645,8177.146017c9.959,0 18.09,2.88 24.39,8.64s9.45,14.04 9.45,24.84l0,58.32l-19.26,0l0,-52.2c0,-15.84 -6.421,-23.76 -19.261,-23.76c-6.722,0 -12.481,2.312 -17.279,6.93c-4.802,4.621 -7.2,11.731 -7.2,21.33l0,47.7l-19.26,0l0,-90l17.1,0l0.9,14.94c2.998,-5.64 7.138,-9.839 12.42,-12.601c5.279,-2.758 11.278,-4.139 18,-4.139m0,-10c-8.318,0 -15.933,1.775 -22.632,5.277c-1.063,0.556 -2.092,1.154 -3.087,1.797l-5.602,-5.274l-17.1,0l-10,10l0,90l10,10l19.26,0l10,-10l0,-47.7c0,-6.732 1.391,-11.484 4.135,-14.125c2.931,-2.821 6.218,-4.135 10.345,-4.135c4.126,0 9.261,0 9.261,13.76l0,52.2l10,10l19.26,0l10,-10l0,-58.32c0,-13.674 -4.273,-24.514 -12.702,-32.22c-8.172,-7.472 -18.648,-11.26 -31.138,-11.26l0,0z" fill="#FFFFFF"/>
      </g>
     </g>
    </g>
    <g stroke="null" id="svg_69" display="inline">
     <g stroke="null" id="svg_70">
      <g stroke="null" id="svg_71">
       <path stroke="null" id="svg_72" d="m10726.737645,7644.438017c-11.903,0 -22.513,-2.719 -31.535,-8.082c-9.083,-5.396 -16.21,-13.209 -21.184,-23.224c-4.885,-9.831 -7.362,-21.571 -7.362,-34.894c0,-13.219 2.545,-24.914 7.565,-34.761c5.102,-10.004 12.413,-17.838 21.733,-23.286c9.259,-5.41 20.1,-8.153 32.223,-8.153c13.067,0 24.081,2.526 32.734,7.507c8.778,5.056 15.756,12.938 20.742,23.427l-2.354,6.654l-17.64,8.46l-6.878,-2.848c-1.91,-5.425 -5,-9.408 -9.445,-12.175c-4.572,-2.843 -10.224,-4.285 -16.798,-4.285c-9.826,0 -17.35,3.248 -23.002,9.929c-5.785,6.837 -8.717,16.772 -8.717,29.531c0,13.034 2.802,23.084 8.328,29.874c5.349,6.572 13.119,9.767 23.752,9.767c8.275,0 14.979,-1.996 19.926,-5.933c4.324,-3.442 6.589,-8.31 6.897,-14.848l-31.323,0l-5,-5l0,-15.84l5,-5l53.46,0l5,5l0,61.38l-5,5l-14.22,0l-4.997,-4.822l-0.107,-3.007c-2.324,1.81 -4.885,3.388 -7.671,4.727c-6.777,3.252 -14.893,4.902 -24.127,4.902z"/>
       <path stroke="null" id="svg_73" d="m10728.177645,7517.038017c12.24,0 22.32,2.281 30.24,6.84c7.92,4.562 14.158,11.641 18.72,21.24l-17.64,8.46c-2.281,-6.48 -6.12,-11.399 -11.52,-14.76c-5.4,-3.358 -11.88,-5.04 -19.44,-5.04c-11.281,0 -20.222,3.901 -26.82,11.7c-6.601,7.802 -9.9,18.72 -9.9,32.76c0,14.282 3.15,25.29 9.45,33.03c6.3,7.74 15.508,11.61 27.63,11.61c9.478,0 17.159,-2.34 23.04,-7.02c5.878,-4.68 8.82,-11.458 8.82,-20.34l0,-3.42l-36.36,0l0,-15.84l53.46,0l0,61.38l-14.22,0l-0.54,-15.12c-3.482,5.4 -8.28,9.571 -14.4,12.51s-13.441,4.41 -21.96,4.41c-11.042,0 -20.7,-2.458 -28.98,-7.38c-8.28,-4.919 -14.701,-11.97 -19.26,-21.15c-4.562,-9.18 -6.84,-20.07 -6.84,-32.67c0,-12.479 2.34,-23.31 7.02,-32.49c4.68,-9.18 11.278,-16.259 19.8,-21.24c8.519,-4.978 18.419,-7.47 29.7,-7.47m0,-10c-13.021,0 -24.711,2.973 -34.746,8.836c-10.16,5.938 -18.121,14.461 -23.663,25.332c-5.382,10.557 -8.111,23.017 -8.111,37.032c0,14.102 2.653,26.591 7.884,37.12c5.408,10.89 13.183,19.401 23.108,25.297c9.803,5.827 21.272,8.783 34.087,8.783c9.989,0 18.834,-1.815 26.289,-5.395c1.528,-0.734 2.996,-1.533 4.402,-2.396l6.208,5.991l14.22,0l10,-10l0,-61.38l-10,-10l-53.46,0l-10,10l0,15.84l10,10l25.427,0c-1.028,3.113 -2.72,4.826 -4.116,5.937c-4.095,3.258 -9.595,4.843 -16.811,4.843c-9.034,0 -15.535,-2.592 -19.875,-7.923c-4.781,-5.874 -7.205,-14.863 -7.205,-26.717c0,-11.543 2.535,-20.392 7.534,-26.301c4.709,-5.566 10.806,-8.159 19.186,-8.159c5.707,0 10.337,1.155 14.159,3.532c3.44,2.141 5.852,5.278 7.369,9.588l13.757,5.697l17.64,-8.46l4.708,-13.309c-5.429,-11.424 -13.087,-20.041 -22.76,-25.613c-9.424,-5.425 -21.277,-8.175 -35.231,-8.175l0,0z" fill="#FFFFFF"/>
      </g>
     </g>
     <g stroke="null" id="svg_74">
      <g stroke="null" id="svg_75">
       <path stroke="null" id="svg_76" d="m11000.113645,7659.138017l-5,-5l0,-90l5,-5l19.261,0l5,5l0,90l-5,5l-19.261,0zm9.721,-105.12c-5.36,0 -9.71,-1.505 -12.93,-4.474c-3.336,-3.068 -5.03,-7.305 -5.03,-12.586c0,-5.304 1.711,-9.525 5.085,-12.545c3.214,-2.876 7.546,-4.334 12.875,-4.334c5.351,0 9.668,1.473 12.831,4.377c3.284,3.022 4.948,7.228 4.948,12.503c0,5.253 -1.647,9.473 -4.896,12.544c-3.166,2.995 -7.501,4.515 -12.883,4.515z"/>
       <path stroke="null" id="svg_77" d="m11009.834645,7525.078017c4.078,0 7.229,1.021 9.449,3.06c2.22,2.042 3.33,4.981 3.33,8.82c0,3.842 -1.11,6.812 -3.33,8.91c-2.221,2.101 -5.371,3.15 -9.449,3.15c-4.081,0 -7.262,-1.049 -9.54,-3.15c-2.281,-2.098 -3.42,-5.068 -3.42,-8.91c0,-3.839 1.139,-6.778 3.42,-8.82c2.278,-2.039 5.459,-3.06 9.54,-3.06m9.54,39.06l0,90l-19.261,0l0,-90l19.261,0m-9.54,-49.06c-6.598,0 -12.051,1.887 -16.209,5.608c-3.08,2.757 -6.751,7.818 -6.751,16.271c0,8.392 3.616,13.48 6.65,16.271c1.332,1.228 2.799,2.262 4.396,3.102l-7.808,7.808l0,90l10,10l19.262,0l10,-10l0,-90l-7.762,-7.762c1.66,-0.869 3.177,-1.951 4.544,-3.244c2.943,-2.783 6.457,-7.851 6.457,-16.174c0,-8.385 -3.567,-13.426 -6.56,-16.179c-4.121,-3.785 -9.576,-5.701 -16.219,-5.701l0,0z" fill="#FFFFFF"/>
      </g>
     </g>
     <g stroke="null" id="svg_78">
      <g stroke="null" id="svg_79">
       <path stroke="null" id="svg_80" d="m11206.118645,7792.267017l-5,-5l0,-69.88l-11.92,0l-5,-5l0,-15.12l5,-5l11.92,0l0,-7.96c0,-10.542 3.334,-18.931 9.908,-24.933c6.442,-5.884 15.39,-8.868 26.592,-8.868c4.002,0 7.755,0.448 11.156,1.331c3.711,0.968 6.604,2.294 8.85,4.056l1.757,5.176l-3.601,14.04l-7.573,2.946c-1.923,-1.253 -4.456,-1.889 -7.529,-1.889c-8.996,0 -10.84,3.83 -10.84,9.58l0,6.52l24.16,0l5,5l0,15.12l-5,5l-23.62,0l0,69.88l-5,5l-19.26,0l0,0.001z"/>
       <path stroke="null" id="svg_81" d="m11237.618645,7655.507017c3.6,0 6.898,0.391 9.899,1.17c2.998,0.782 5.339,1.831 7.021,3.15l-3.601,14.04c-2.762,-1.8 -6.182,-2.7 -10.26,-2.7c-10.561,0 -15.84,4.86 -15.84,14.58l0,11.52l29.16,0l0,15.12l-28.62,0l0,74.88l-19.26,0l0,-74.88l-16.92,0l0,-15.12l16.92,0l0,-12.96c0,-9.118 2.759,-16.2 8.279,-21.24c5.52,-5.04 13.26,-7.56 23.222,-7.56m0,-10c-12.489,0 -22.571,3.424 -29.965,10.176c-7.653,6.988 -11.535,16.619 -11.535,28.624l0,2.96l-6.92,0l-10,10l0,15.12l10,10l6.92,0l0,64.88l10,10l19.26,0l10,-10l0,-64.88l18.62,0l10,-10l0,-15.12l-10,-10l-19.16,0l0,-1.52c0,-2.292 0.46,-3.327 0.732,-3.578c0.404,-0.372 1.936,-1.002 5.107,-1.002c2.088,0 3.702,0.362 4.799,1.078l15.147,-5.894l3.601,-14.04l-3.514,-10.352c-2.796,-2.193 -6.286,-3.815 -10.67,-4.958c-3.82,-0.992 -7.996,-1.494 -12.422,-1.494l0,0z" fill="#FFFFFF"/>
      </g>
     </g>
     <g stroke="null" id="svg_82">
      <g stroke="null" id="svg_83">
       <path stroke="null" id="svg_84" d="m10758.463645,7985.214017l-5,-5l0,-69.88l-11.92,0l-5,-5l0,-15.12l5,-5l11.92,0l0,-7.96c0,-10.542 3.333,-18.931 9.908,-24.933c6.442,-5.884 15.389,-8.867 26.592,-8.867c4.003,0 7.756,0.447 11.156,1.33c3.712,0.968 6.606,2.294 8.852,4.058l1.755,5.175l-3.601,14.039l-7.573,2.946c-1.922,-1.252 -4.456,-1.888 -7.53,-1.888c-8.997,0 -10.84,3.83 -10.84,9.58l0,6.52l24.16,0l5,5l0,15.12l-5,5l-23.62,0l0,69.88l-5,5l-19.259,0z"/>
       <path stroke="null" id="svg_85" d="m10789.963645,7848.455017c3.6,0 6.898,0.391 9.899,1.17c2.998,0.781 5.339,1.83 7.021,3.15l-3.601,14.039c-2.762,-1.8 -6.182,-2.699 -10.26,-2.699c-10.561,0 -15.84,4.859 -15.84,14.58l0,11.52l29.16,0l0,15.12l-28.62,0l0,74.88l-19.26,0l0,-74.88l-16.92,0l0,-15.12l16.92,0l0,-12.96c0,-9.118 2.759,-16.2 8.279,-21.24c5.52,-5.041 13.26,-7.56 23.222,-7.56m0,-10c-12.49,0 -22.571,3.424 -29.964,10.176c-7.654,6.987 -11.536,16.619 -11.536,28.624l0,2.96l-6.92,0l-10,10l0,15.12l10,10l6.92,0l0,64.88l10,10l19.26,0l10,-10l0,-64.88l18.62,0l10,-10l0,-15.12l-10,-10l-19.16,0l0,-1.52c0,-2.292 0.46,-3.327 0.732,-3.578c0.405,-0.372 1.936,-1.002 5.108,-1.002c2.088,0 3.703,0.362 4.8,1.077l15.146,-5.894l3.601,-14.039l-3.511,-10.35c-2.797,-2.196 -6.289,-3.819 -10.674,-4.962c-3.819,-0.99 -7.995,-1.492 -12.422,-1.492l0,0z" fill="#FFFFFF"/>
      </g>
     </g>
     <g stroke="null" id="svg_86">
      <g stroke="null" id="svg_87">
       <path stroke="null" id="svg_88" d="m11054.350645,8134.360017c-15.393,0 -27.691,-4.698 -36.554,-13.964c-8.803,-9.203 -13.267,-21.934 -13.267,-37.836s4.464,-28.633 13.267,-37.836c8.862,-9.266 21.161,-13.964 36.554,-13.964s27.69,4.698 36.553,13.964c8.804,9.204 13.268,21.935 13.268,37.836s-4.464,28.632 -13.268,37.836c-8.863,9.266 -21.161,13.964 -36.553,13.964zm0,-78.48c-6.623,0 -11.5,2.066 -14.91,6.318c-3.63,4.524 -5.471,11.375 -5.471,20.361c0,8.988 1.84,15.839 5.47,20.36c3.409,4.253 8.286,6.319 14.911,6.319s11.532,-2.098 15.005,-6.413c3.685,-4.583 5.554,-11.402 5.554,-20.267c0,-8.862 -1.869,-15.682 -5.556,-20.269c-3.472,-4.31 -8.38,-6.409 -15.003,-6.409z"/>
       <path stroke="null" id="svg_89" d="m11054.350645,8035.760017c14.039,0 25.02,4.14 32.939,12.42s11.881,19.741 11.881,34.38c0,14.642 -3.961,26.1 -11.881,34.38s-18.9,12.42 -32.939,12.42c-14.041,0 -25.021,-4.14 -32.94,-12.42s-11.88,-19.738 -11.88,-34.38c0,-14.639 3.96,-26.1 11.88,-34.38s18.899,-12.42 32.94,-12.42m0,78.48c8.158,0 14.459,-2.759 18.9,-8.279c4.438,-5.519 6.658,-13.32 6.658,-23.4s-2.221,-17.879 -6.658,-23.4c-4.441,-5.518 -10.742,-8.279 -18.9,-8.279c-8.162,0 -14.432,2.73 -18.811,8.189c-4.382,5.462 -6.57,13.292 -6.57,23.49c0,10.201 2.188,18.031 6.57,23.49c4.379,5.461 10.649,8.189 18.811,8.189m0,-88.48c-16.811,0 -30.324,5.218 -40.167,15.508c-9.724,10.166 -14.653,24.059 -14.653,41.292s4.93,31.126 14.653,41.292c9.843,10.29 23.356,15.508 40.167,15.508c16.81,0 30.323,-5.218 40.166,-15.508c9.724,-10.166 14.654,-24.059 14.654,-41.292s-4.931,-31.126 -14.654,-41.292c-9.843,-10.29 -23.357,-15.508 -40.166,-15.508l0,0zm0,78.48c-6.674,0 -9.479,-2.536 -11.009,-4.444c-2.902,-3.616 -4.372,-9.413 -4.372,-17.235c0,-7.82 1.471,-13.618 4.37,-17.232c1.532,-1.909 4.339,-4.447 11.011,-4.447c6.676,0 9.538,2.597 11.11,4.55c2.95,3.671 4.448,9.436 4.448,17.13c0,7.696 -1.498,13.461 -4.451,17.134c-1.569,1.948 -4.429,4.544 -11.107,4.544l0,0z" fill="#FFFFFF"/>
      </g>
     </g>
     <g stroke="null" id="svg_90">
      <g stroke="null" id="svg_91">
       <path stroke="null" id="svg_92" d="m11275.281645,8273.946017l-5,-5l0,-52.2c0,-16.531 -7.209,-18.76 -14.261,-18.76c-5.427,0 -9.944,1.81 -13.812,5.532c-3.761,3.619 -5.668,9.584 -5.668,17.728l0,47.7l-5,5l-19.26,0l-5,-5l0,-90l5,-5l17.1,0l4.991,4.699l0.128,2.125c1.807,-1.503 3.771,-2.81 5.885,-3.915c5.978,-3.125 12.813,-4.709 20.316,-4.709c11.201,0 20.542,3.348 27.764,9.949c7.35,6.72 11.076,16.318 11.076,28.53l0,58.32l-5,5l-19.259,0l0,0.001z"/>
       <path stroke="null" id="svg_93" d="m11260.701645,8177.146017c9.959,0 18.09,2.88 24.39,8.64s9.45,14.04 9.45,24.84l0,58.32l-19.26,0l0,-52.2c0,-15.84 -6.421,-23.76 -19.261,-23.76c-6.722,0 -12.481,2.312 -17.279,6.93c-4.802,4.621 -7.2,11.731 -7.2,21.33l0,47.7l-19.26,0l0,-90l17.1,0l0.9,14.94c2.998,-5.64 7.138,-9.839 12.42,-12.601c5.279,-2.758 11.278,-4.139 18,-4.139m0,-10c-8.318,0 -15.933,1.775 -22.632,5.277c-1.063,0.556 -2.092,1.154 -3.087,1.797l-5.602,-5.274l-17.1,0l-10,10l0,90l10,10l19.26,0l10,-10l0,-47.7c0,-6.732 1.391,-11.484 4.135,-14.125c2.931,-2.821 6.218,-4.135 10.345,-4.135c4.126,0 9.261,0 9.261,13.76l0,52.2l10,10l19.26,0l10,-10l0,-58.32c0,-13.674 -4.273,-24.514 -12.702,-32.22c-8.172,-7.472 -18.648,-11.26 -31.138,-11.26l0,0z" fill="#FFFFFF"/>
      </g>
     </g>
    </g>
   </g>
   <g stroke="null" transform="matrix(0.497779031302518,0,0,0.497779031302518,-5277.324241042657,-3711.035338780335) " display="none" id="svg_6">
    <text stroke="null" x="10601.174645" y="7476.771017" id="svg_94" font-size="180" font-family="'WorkSans-Medium'" transform="matrix(1,0,0,1,808,992.3672) ">G</text>
    <text stroke="null" x="10601.174645" y="7476.771017" id="svg_95" font-size="180" font-family="'WorkSans-Medium'" transform="matrix(1,0,0,1,1089,1030.3672) ">I</text>
    <text stroke="null" x="10601.174645" y="7476.771017" id="svg_96" font-size="180" font-family="'WorkSans-Medium'" transform="matrix(1,0,0,1,1288.1641,1157.4961) ">F</text>
    <text stroke="null" x="10601.174645" y="7476.771017" id="svg_97" font-size="180" font-family="'WorkSans-Medium'" transform="matrix(1,0,0,1,840.5088,1350.4434) ">F</text>
    <text stroke="null" x="10601.174645" y="7476.771017" id="svg_98" font-size="180" font-family="'WorkSans-Medium'" transform="matrix(1,0,0,1,1103.6348,1497.7891) ">O</text>
    <text stroke="null" x="10601.174645" y="7476.771017" id="svg_99" font-size="180" font-family="'WorkSans-Medium'" transform="matrix(1,0,0,1,1301.167,1459.1748) ">N</text>
    <g stroke="null" id="svg_100" display="inline">
     <g stroke="null" id="svg_101">
      <path stroke="null" id="svg_102" d="m11303.835645,8444.681017c18.279,19.49 39.198,36.602 63.455,48.086c19.806,9.377 41.324,14.222 63.176,15.092c44.834,1.787 88.723,-13.049 130.805,-26.648c45.675,-14.76 91.183,-28.76 139.528,-30.134c46.729,-1.329 96.172,0.762 138.803,21.976c40.233,20.021 72.577,61.368 78.203,106.534c2.343,18.809 -0.723,38.057 -9.707,54.806c-9.532,17.769 -25.431,30.883 -43.422,39.499c-11.297,5.41 -23.554,8.513 -35.666,11.491c-14.163,3.483 -28.615,5.685 -43.102,7.282c-27.688,3.054 -55.576,3.666 -83.281,6.529c-50.946,5.266 -105.386,20.954 -140.605,60.411c-29.089,32.587 -44.493,78.433 -40.163,121.945c3.953,39.723 26.496,80.209 66.165,92.891c37.191,11.891 79.254,0.221 114.281,-13.412c17.801,-6.928 35.065,-15.207 51.878,-24.256c7.991,-4.301 15.733,-9.058 23.753,-13.299c10.287,-5.44 21.19,-9.613 32.395,-12.724c45.664,-12.674 95.462,-3.184 131.643,27.865c34.921,29.968 48.929,76.104 41.131,120.934c-6.866,39.474 -30.131,75.437 -63.6,97.491c-3.216,2.119 -0.214,7.317 3.027,5.182c36.366,-23.965 60.827,-63.123 67.173,-106.146c6.391,-43.326 -7.168,-87.371 -39.087,-117.726c-33.617,-31.971 -80.596,-44.246 -125.919,-36.89c-22.115,3.59 -42.104,12.356 -61.411,23.396c-15.802,9.036 -32.038,17.325 -48.707,24.643c-35.526,15.593 -77.431,29.402 -116.549,21.351c-42.892,-8.829 -66.741,-50.851 -70.425,-91.962c-3.99,-44.541 14.021,-91.229 45.746,-122.492c18.88,-18.606 44.144,-30.983 69.072,-39.182c26.932,-8.858 55.252,-11.981 83.398,-14.016c27.65,-1.999 55.364,-3.15 82.771,-7.59c24.109,-3.906 49.259,-9.762 70.317,-22.606c33.056,-20.162 49.805,-57.239 44.64,-95.379c-5.934,-43.825 -35.765,-83.978 -73.626,-105.839c-40.467,-23.365 -89.356,-27.295 -135.107,-26.966c-23.603,0.169 -46.754,1.882 -69.929,6.518c-23.403,4.681 -46.293,11.625 -69.009,18.869c-43.114,13.75 -86.801,30.025 -132.502,31.668c-23.092,0.83 -45.974,-2.981 -67.368,-11.76c-26.235,-10.763 -48.695,-29.163 -67.934,-49.675c-2.65,-2.827 -6.884,1.425 -4.241,4.243l0,0z"/>
     </g>
    </g>
   </g>
  </g>
  <path stroke="url(#svg_106)" transform="rotate(14.906466484069824 174.29675292968702,514.8254394531251) " id="svg_104" d="m305.088138,374.161795c1.423085,54.160997 -54.703288,80.409775 -123.774537,64.188492c-70.117761,-19.360869 -157.844772,52.702624 -134.561029,133.808983c27.706915,84.803587 98.488356,81.962139 122.71577,82.449304" stroke-width="3" fill="none"/>
 </g>
</svg>