<?xml version="1.0" encoding="utf-8"?>
<!-- Generator: Adobe Illustrator 16.0.3, SVG Export Plug-In . SVG Version: 6.00 Build 0)  -->
<!DOCTYPE svg PUBLIC "-//W3C//DTD SVG 1.1//EN" "http://www.w3.org/Graphics/SVG/1.1/DTD/svg11.dtd">
<svg version="1.1" xmlns="http://www.w3.org/2000/svg" xmlns:xlink="http://www.w3.org/1999/xlink" x="0px" y="0px" width="720px"
	 height="835.86px" viewBox="0 0 720 835.86" enable-background="new 0 0 720 835.86" xml:space="preserve">
<g id="Layer_1">
	<g>
		<path fill="#212529" d="M255.126,157.44C299.007,143.259,343,129.789,389,127.532v-5.944c-17,0.821-33.56,2.638-50.254,5.977
			c-23.403,4.681-46.309,11.625-69.024,18.869c-43.114,13.75-86.809,30.025-132.51,31.668c-23.092,0.83-45.977-2.982-67.372-11.76
			C43.605,155.58,21.143,137.18,1.905,116.668c-2.651-2.828-6.887,1.424-4.243,4.242c18.279,19.49,39.197,36.601,63.455,48.086
			c19.805,9.377,41.338,14.221,63.189,15.092C169.142,185.875,213.044,171.039,255.126,157.44z"/>
		<path fill="#212529" d="M418,127.003v-5.954c-3-0.023-6.254-0.023-9.426,0c-3.242,0.023-6.574,0.079-9.574,0.164v5.981
			C405,127.043,412,126.969,418,127.003z"/>
		<path fill="#212529" d="M683.477,732.306c1.092-7.4,1.613-14.819,1.549-22.19c-0.367-0.376-0.731-0.743-1.122-1.101
			c-1.569-1.435-3.246-2.69-5.043-3.769c0.467,10.109-0.217,20.354-1.987,30.532c-0.746,4.289-1.873,8.532-2.873,12.726v18.695
			C679,756.033,681.704,744.32,683.477,732.306z"/>
		<path d="M617.406,253.604C615.516,239.649,611,226.318,605,213.58V220h-3.378c5.024,12,8.521,23.401,10.036,35.567
			c2.057,16.516,0.342,33.616-6.658,48.819V310h3.316C616.782,293,620.104,273.531,617.406,253.604z"/>
		<path d="M428,127.152c36,0.897,72.807,5.947,105.328,22.129c25.102,12.492,47.182,33.286,61.569,58.129
			c0.008-3.431,0.365-6.662,1.007-9.698c-13.297-20.421-31.625-37.781-52.265-49.699C508.893,127.951,468,122.223,428,121.211
			V127.152z"/>
		<path d="M438.098,611.469c0.255,2.266,0.682,4.288,1.264,6.084c2.895-1.496,5.78-3.008,8.647-4.551
			c6.914-3.721,13.65-7.765,20.532-11.539c-0.189-2.216-0.523-4.24-1.017-6.049c-3.497,1.809-6.966,3.703-10.411,5.673
			C450.844,604.672,444.503,608.133,438.098,611.469z"/>
		<path d="M401.859,628.547c-34.063,14.372-73.261,26.095-110.002,18.532c-42.892-8.829-66.741-50.851-70.424-91.962
			c-3.991-44.541,14.021-91.229,45.746-122.492c18.88-18.606,44.144-30.983,69.072-39.182c26.933-8.858,55.253-11.981,83.398-14.016
			c27.65-1.999,55.364-3.15,82.771-7.59c24.109-3.906,49.259-9.762,70.317-22.606c12.821-7.82,23.176-18.193,30.764-30.178
			l-4.104-4.104c-9.683,15.58-24.402,27.271-40.896,35.17c-11.297,5.41-23.554,8.513-35.666,11.491
			c-14.163,3.483-28.615,5.685-43.102,7.282c-27.687,3.054-55.576,3.666-83.281,6.529c-50.946,5.266-105.385,20.954-140.605,60.411
			c-29.088,32.587-44.493,78.433-40.163,121.945c3.953,39.723,26.496,80.209,66.165,92.891
			c37.191,11.89,79.254,0.221,114.282-13.412c2.663-1.036,5.311-2.112,7.95-3.207C403.247,632.284,402.512,630.445,401.859,628.547z
			"/>
		<path d="M664,775.178c-11,23.362-28.872,43.692-50.724,58.092c-3.216,2.119-0.241,7.317,3.001,5.182
			C636.049,825.422,652,807.895,664,787.703V775.178z"/>
		<path d="M677.841,693.641c2.264,0.892,4.426,1.96,6.475,3.215c-3.205-30.966-16.692-60.231-39.872-82.275
			c-33.618-31.971-80.596-44.246-125.919-36.89c-5.042,0.818-9.969,1.918-14.808,3.24c0.712,1.827,1.334,3.72,1.869,5.675
			c45.271-12.086,94.408-2.486,130.213,28.239C659.738,635.389,673.845,663.531,677.841,693.641z"/>
		<path d="M428.713,616.232c-5.828,2.885-11.712,5.656-17.65,8.307c0.631,1.94,1.371,3.793,2.223,5.556
			c5.741-2.547,11.43-5.213,17.064-7.99C429.668,620.295,429.122,618.338,428.713,616.232z"/>
		<path d="M476.601,590.969c0.584,1.757,1.049,3.638,1.39,5.645c5.854-2.75,11.872-5.133,18.013-7.158
			c-0.521-1.94-1.138-3.804-1.864-5.579C488.173,585.924,482.339,588.313,476.601,590.969z"/>
	</g>
	<g>
		<g>
			<g>
				<path fill="#212529" d="M176.683,99.487v61.38h-14.22l-0.54-15.12c-3.482,5.4-8.28,9.571-14.4,12.51s-13.441,4.41-21.96,4.41
					c-11.042,0-20.7-2.458-28.98-7.38c-8.28-4.919-14.701-11.97-19.26-21.15c-4.562-9.18-6.84-20.07-6.84-32.67
					c0-12.479,2.34-23.31,7.02-32.49c4.68-9.18,11.278-16.259,19.8-21.24c8.519-4.978,18.419-7.47,29.7-7.47
					c12.24,0,22.32,2.281,30.24,6.84c7.92,4.562,14.158,11.641,18.72,21.24l-17.64,8.46c-2.281-6.48-6.12-11.399-11.52-14.76
					c-5.4-3.358-11.88-5.04-19.44-5.04c-11.281,0-20.222,3.901-26.82,11.7c-6.601,7.802-9.9,18.72-9.9,32.76
					c0,14.282,3.15,25.29,9.45,33.03c6.3,7.74,15.508,11.61,27.63,11.61c9.478,0,17.159-2.34,23.04-7.02
					c5.878-4.68,8.82-11.458,8.82-20.34v-3.42h-36.36v-15.84H176.683z"/>
			</g>
		</g>
		<g>
			<g>
				<path fill="#212529" d="M399.12,69.097c-2.281-2.098-3.42-5.068-3.42-8.91c0-3.839,1.139-6.778,3.42-8.82c2.278-2.039,5.459-3.06,9.54-3.06
					c4.078,0,7.229,1.021,9.449,3.06c2.22,2.042,3.33,4.981,3.33,8.82c0,3.842-1.11,6.812-3.33,8.91
					c-2.221,2.101-5.371,3.15-9.449,3.15C404.579,72.247,401.398,71.198,399.12,69.097z M418.2,177.367h-19.261v-90H418.2V177.367z"
					/>
			</g>
		</g>
		<g>
			<g>
				<path fill="#212529" d="M623.664,220.496h29.16v15.12h-28.62v74.88h-19.26v-74.88h-16.92v-15.12h16.92v-12.96c0-9.118,2.759-16.2,8.279-21.24
					c5.519-5.04,13.259-7.56,23.221-7.56c3.6,0,6.898,0.391,9.899,1.17c2.998,0.782,5.339,1.831,7.021,3.15l-3.601,14.04
					c-2.762-1.8-6.182-2.7-10.26-2.7c-10.561,0-15.84,4.86-15.84,14.58V220.496z"/>
			</g>
		</g>
		<g>
			<g>
				<path fill="#212529" d="M176.009,413.443h29.16v15.12h-28.62v74.88h-19.26v-74.88h-16.92v-15.12h16.92v-12.96c0-9.118,2.759-16.2,8.279-21.24
					c5.519-5.04,13.259-7.56,23.221-7.56c3.6,0,6.898,0.391,9.899,1.17c2.998,0.781,5.339,1.83,7.021,3.15l-3.601,14.039
					c-2.762-1.8-6.182-2.699-10.26-2.699c-10.561,0-15.84,4.859-15.84,14.58V413.443z"/>
			</g>
		</g>
		<g>
			<g>
				<path fill="#212529" d="M486.115,571.409c7.92,8.28,11.881,19.741,11.881,34.38c0,14.642-3.961,26.1-11.881,34.38s-18.9,12.42-32.939,12.42
					c-14.041,0-25.021-4.14-32.94-12.42s-11.88-19.738-11.88-34.38c0-14.639,3.96-26.1,11.88-34.38s18.899-12.42,32.94-12.42
					C467.215,558.989,478.195,563.129,486.115,571.409z M434.365,582.299c-4.382,5.462-6.57,13.292-6.57,23.49
					c0,10.201,2.188,18.031,6.57,23.49c4.379,5.462,10.648,8.189,18.811,8.189c8.158,0,14.459-2.759,18.9-8.279
					c4.438-5.519,6.658-13.32,6.658-23.4s-2.221-17.879-6.658-23.4c-4.441-5.518-10.742-8.279-18.9-8.279
					C445.014,574.109,438.744,576.84,434.365,582.299z"/>
			</g>
		</g>
		<g>
			<g>
				<path fill="#212529" d="M683.917,709.015c6.3,5.76,9.45,14.04,9.45,24.84v58.32h-19.26v-52.2c0-15.84-6.421-23.76-19.261-23.76
					c-6.722,0-12.481,2.312-17.279,6.93c-4.802,4.621-7.2,11.731-7.2,21.33v47.7h-19.26v-90h17.1l0.9,14.94
					c2.998-5.64,7.138-9.839,12.42-12.601c5.278-2.759,11.277-4.14,18-4.14C669.486,700.375,677.617,703.255,683.917,709.015z"/>
			</g>
		</g>
	</g>
</g>
<g id="Layer_1_copy" display="none">
	<g display="inline">
		<g>
			<path d="M-2.339,120.91c18.279,19.49,39.198,36.601,63.456,48.086c19.805,9.377,41.323,14.221,63.175,15.092
				c44.834,1.787,88.723-13.049,130.805-26.648c45.676-14.761,91.184-28.76,139.529-30.134
				c46.729-1.329,96.172,0.762,138.803,21.976c40.233,20.021,72.577,61.368,78.203,106.534c2.343,18.809-0.723,38.057-9.707,54.806
				c-9.532,17.768-25.431,30.883-43.422,39.499c-11.297,5.41-23.554,8.513-35.666,11.491c-14.163,3.483-28.615,5.685-43.102,7.282
				c-27.687,3.054-55.576,3.666-83.281,6.529c-50.946,5.266-105.385,20.954-140.605,60.411
				c-29.088,32.587-44.493,78.433-40.163,121.945c3.953,39.723,26.496,80.209,66.165,92.891
				c37.191,11.89,79.254,0.221,114.282-13.412c17.8-6.928,35.065-15.207,51.878-24.256c7.991-4.301,15.733-9.058,23.753-13.299
				c10.287-5.44,21.19-9.613,32.395-12.724c45.664-12.674,95.462-3.184,131.643,27.865c34.921,29.968,48.929,76.104,41.131,120.934
				c-6.866,39.474-30.131,75.437-63.6,97.491c-3.216,2.119-0.214,7.317,3.027,5.182c36.366-23.964,60.827-63.123,67.173-106.146
				c6.391-43.326-7.168-87.371-39.087-117.726c-33.618-31.971-80.596-44.246-125.919-36.89
				c-22.115,3.59-42.104,12.356-61.411,23.396c-15.802,9.035-32.038,17.324-48.707,24.642
				c-35.526,15.593-77.431,29.402-116.549,21.351c-42.892-8.829-66.741-50.851-70.424-91.962
				c-3.991-44.541,14.021-91.229,45.746-122.492c18.88-18.606,44.144-30.983,69.072-39.182
				c26.933-8.858,55.253-11.981,83.398-14.016c27.65-1.999,55.364-3.15,82.771-7.59c24.109-3.906,49.259-9.762,70.317-22.606
				c33.056-20.162,49.805-57.239,44.64-95.379c-5.934-43.825-35.765-83.978-73.626-105.838
				c-40.467-23.365-89.356-27.295-135.107-26.966c-23.603,0.169-46.754,1.881-69.929,6.517
				c-23.403,4.681-46.293,11.625-69.009,18.869c-43.114,13.75-86.801,30.025-132.502,31.668c-23.092,0.83-45.973-2.982-67.368-11.76
				C43.602,155.58,21.141,137.18,1.903,116.668C-0.748,113.84-4.983,118.092-2.339,120.91L-2.339,120.91z"/>
		</g>
	</g>
	<g display="inline">
		<g>
			<g>
				<path d="M125.563,167.667c-11.903,0-22.513-2.719-31.535-8.082c-9.083-5.396-16.21-13.209-21.184-23.224
					c-4.885-9.831-7.362-21.571-7.362-34.894c0-13.219,2.545-24.914,7.565-34.761C78.149,56.702,85.46,48.868,94.78,43.42
					c9.259-5.41,20.1-8.153,32.223-8.153c13.067,0,24.081,2.526,32.734,7.507c8.778,5.056,15.756,12.938,20.742,23.427l-2.354,6.654
					l-17.64,8.46l-6.878-2.848c-1.91-5.425-5-9.408-9.445-12.175c-4.572-2.843-10.224-4.285-16.798-4.285
					c-9.826,0-17.35,3.248-23.002,9.929c-5.785,6.837-8.717,16.772-8.717,29.531c0,13.034,2.802,23.084,8.328,29.874
					c5.349,6.572,13.119,9.767,23.752,9.767c8.275,0,14.979-1.996,19.926-5.933c4.324-3.442,6.589-8.31,6.897-14.848h-31.323l-5-5
					v-15.84l5-5h53.46l5,5v61.38l-5,5h-14.22l-4.997-4.822l-0.107-3.007c-2.324,1.81-4.885,3.388-7.671,4.727
					C142.913,166.017,134.797,167.667,125.563,167.667z"/>
				<path fill="#FFFFFF" d="M127.003,40.267c12.24,0,22.32,2.281,30.24,6.84c7.92,4.562,14.158,11.641,18.72,21.24l-17.64,8.46
					c-2.281-6.48-6.12-11.399-11.52-14.76c-5.4-3.358-11.88-5.04-19.44-5.04c-11.281,0-20.222,3.901-26.82,11.7
					c-6.601,7.802-9.9,18.72-9.9,32.76c0,14.282,3.15,25.29,9.45,33.03c6.3,7.74,15.508,11.61,27.63,11.61
					c9.478,0,17.159-2.34,23.04-7.02c5.878-4.68,8.82-11.458,8.82-20.34v-3.42h-36.36v-15.84h53.46v61.38h-14.22l-0.54-15.12
					c-3.482,5.4-8.28,9.571-14.4,12.51s-13.441,4.41-21.96,4.41c-11.042,0-20.7-2.458-28.98-7.38
					c-8.28-4.919-14.701-11.97-19.26-21.15c-4.562-9.18-6.84-20.07-6.84-32.67c0-12.479,2.34-23.31,7.02-32.49
					c4.68-9.18,11.278-16.259,19.8-21.24C105.822,42.759,115.722,40.267,127.003,40.267 M127.003,30.267
					c-13.021,0-24.711,2.973-34.746,8.836c-10.16,5.938-18.121,14.461-23.663,25.332c-5.382,10.557-8.111,23.017-8.111,37.032
					c0,14.102,2.653,26.591,7.884,37.12c5.408,10.89,13.183,19.401,23.108,25.297c9.803,5.827,21.272,8.783,34.087,8.783
					c9.989,0,18.834-1.815,26.289-5.395c1.528-0.734,2.996-1.533,4.402-2.396l6.208,5.991h14.22l10-10v-61.38l-10-10h-53.46l-10,10
					v15.84l10,10h25.427c-1.028,3.113-2.72,4.826-4.116,5.937c-4.095,3.258-9.595,4.843-16.811,4.843
					c-9.034,0-15.535-2.592-19.875-7.923c-4.781-5.874-7.205-14.863-7.205-26.717c0-11.543,2.535-20.392,7.534-26.301
					c4.709-5.566,10.806-8.159,19.186-8.159c5.707,0,10.337,1.155,14.159,3.532c3.44,2.141,5.852,5.278,7.369,9.588l13.757,5.697
					l17.64-8.46l4.708-13.309c-5.429-11.424-13.087-20.041-22.76-25.613C152.81,33.017,140.957,30.267,127.003,30.267
					L127.003,30.267z"/>
			</g>
		</g>
		<g>
			<g>
				<path d="M398.939,182.367l-5-5v-90l5-5H418.2l5,5v90l-5,5H398.939z M408.66,77.247c-5.36,0-9.71-1.505-12.93-4.474
					c-3.336-3.068-5.03-7.305-5.03-12.586c0-5.304,1.711-9.525,5.085-12.545c3.214-2.876,7.546-4.334,12.875-4.334
					c5.351,0,9.668,1.473,12.831,4.377c3.284,3.022,4.948,7.228,4.948,12.503c0,5.253-1.647,9.473-4.896,12.544
					C418.377,75.727,414.042,77.247,408.66,77.247z"/>
				<path fill="#FFFFFF" d="M408.66,48.307c4.078,0,7.229,1.021,9.449,3.06c2.22,2.042,3.33,4.981,3.33,8.82
					c0,3.842-1.11,6.812-3.33,8.91c-2.221,2.101-5.371,3.15-9.449,3.15c-4.081,0-7.262-1.049-9.54-3.15
					c-2.281-2.098-3.42-5.068-3.42-8.91c0-3.839,1.139-6.778,3.42-8.82C401.398,49.328,404.579,48.307,408.66,48.307 M418.2,87.367
					v90h-19.261v-90H418.2 M408.66,38.307c-6.598,0-12.051,1.887-16.209,5.608c-3.08,2.757-6.751,7.818-6.751,16.271
					c0,8.392,3.616,13.48,6.65,16.271c1.332,1.228,2.799,2.262,4.396,3.102l-7.808,7.808v90l10,10H418.2l10-10v-90l-7.762-7.762
					c1.66-0.869,3.177-1.951,4.544-3.244c2.943-2.783,6.457-7.851,6.457-16.174c0-8.385-3.567-13.426-6.56-16.179
					C420.758,40.223,415.303,38.307,408.66,38.307L408.66,38.307z"/>
			</g>
		</g>
		<g>
			<g>
				<path d="M604.944,315.496l-5-5v-69.88h-11.92l-5-5v-15.12l5-5h11.92v-7.96c0-10.542,3.334-18.931,9.908-24.933
					c6.442-5.884,15.39-8.868,26.592-8.868c4.002,0,7.755,0.448,11.156,1.331c3.711,0.968,6.604,2.294,8.85,4.056l1.757,5.176
					l-3.601,14.04l-7.573,2.946c-1.923-1.253-4.456-1.889-7.529-1.889c-8.996,0-10.84,3.83-10.84,9.58v6.52h24.16l5,5v15.12l-5,5
					h-23.62v69.88l-5,5H604.944z"/>
				<path fill="#FFFFFF" d="M636.444,178.736c3.6,0,6.898,0.391,9.899,1.17c2.998,0.782,5.339,1.831,7.021,3.15l-3.601,14.04
					c-2.762-1.8-6.182-2.7-10.26-2.7c-10.561,0-15.84,4.86-15.84,14.58v11.52h29.16v15.12h-28.62v74.88h-19.26v-74.88h-16.92v-15.12
					h16.92v-12.96c0-9.118,2.759-16.2,8.279-21.24C618.742,181.256,626.482,178.736,636.444,178.736 M636.444,168.736
					c-12.489,0-22.571,3.424-29.965,10.176c-7.653,6.988-11.535,16.619-11.535,28.624v2.96h-6.92l-10,10v15.12l10,10h6.92v64.88
					l10,10h19.26l10-10v-64.88h18.62l10-10v-15.12l-10-10h-19.16v-1.52c0-2.292,0.46-3.327,0.732-3.578
					c0.404-0.372,1.936-1.002,5.107-1.002c2.088,0,3.702,0.362,4.799,1.078l15.147-5.894l3.601-14.04l-3.514-10.352
					c-2.796-2.193-6.286-3.815-10.67-4.958C645.046,169.238,640.87,168.736,636.444,168.736L636.444,168.736z"/>
			</g>
		</g>
		<g>
			<g>
				<path d="M157.289,508.443l-5-5v-69.88h-11.92l-5-5v-15.12l5-5h11.92v-7.96c0-10.542,3.333-18.931,9.908-24.933
					c6.442-5.884,15.389-8.867,26.592-8.867c4.003,0,7.756,0.447,11.156,1.33c3.712,0.968,6.606,2.294,8.852,4.058l1.755,5.175
					l-3.601,14.039l-7.573,2.946c-1.922-1.252-4.456-1.888-7.53-1.888c-8.997,0-10.84,3.83-10.84,9.58v6.52h24.16l5,5v15.12l-5,5
					h-23.62v69.88l-5,5H157.289z"/>
				<path fill="#FFFFFF" d="M188.789,371.684c3.6,0,6.898,0.391,9.899,1.17c2.998,0.781,5.339,1.83,7.021,3.15l-3.601,14.039
					c-2.762-1.8-6.182-2.699-10.26-2.699c-10.561,0-15.84,4.859-15.84,14.58v11.52h29.16v15.12h-28.62v74.88h-19.26v-74.88h-16.92
					v-15.12h16.92v-12.96c0-9.118,2.759-16.2,8.279-21.24C171.087,374.203,178.827,371.684,188.789,371.684 M188.789,361.684
					c-12.49,0-22.571,3.424-29.964,10.176c-7.654,6.987-11.536,16.619-11.536,28.624v2.96h-6.92l-10,10v15.12l10,10h6.92v64.88
					l10,10h19.26l10-10v-64.88h18.62l10-10v-15.12l-10-10h-19.16v-1.52c0-2.292,0.46-3.327,0.732-3.578
					c0.405-0.372,1.936-1.002,5.108-1.002c2.088,0,3.703,0.362,4.8,1.077l15.146-5.894l3.601-14.039l-3.511-10.35
					c-2.797-2.196-6.289-3.819-10.674-4.962C197.392,362.186,193.216,361.684,188.789,361.684L188.789,361.684z"/>
			</g>
		</g>
		<g>
			<g>
				<path d="M453.176,657.589c-15.393,0-27.691-4.698-36.554-13.964c-8.803-9.203-13.267-21.934-13.267-37.836
					s4.464-28.633,13.267-37.836c8.862-9.266,21.161-13.964,36.554-13.964s27.69,4.698,36.553,13.964
					c8.804,9.204,13.268,21.935,13.268,37.836s-4.464,28.632-13.268,37.836C480.866,652.891,468.568,657.589,453.176,657.589z
					 M453.176,579.109c-6.623,0-11.5,2.066-14.91,6.318c-3.63,4.524-5.471,11.375-5.471,20.361c0,8.988,1.84,15.839,5.47,20.36
					c3.409,4.253,8.286,6.319,14.911,6.319s11.532-2.098,15.005-6.413c3.685-4.583,5.554-11.402,5.554-20.267
					c0-8.862-1.869-15.682-5.556-20.269C464.707,581.208,459.799,579.109,453.176,579.109z"/>
				<path fill="#FFFFFF" d="M453.176,558.989c14.039,0,25.02,4.14,32.939,12.42s11.881,19.741,11.881,34.38
					c0,14.642-3.961,26.1-11.881,34.38s-18.9,12.42-32.939,12.42c-14.041,0-25.021-4.14-32.94-12.42s-11.88-19.738-11.88-34.38
					c0-14.639,3.96-26.1,11.88-34.38S439.135,558.989,453.176,558.989 M453.176,637.469c8.158,0,14.459-2.759,18.9-8.279
					c4.438-5.519,6.658-13.32,6.658-23.4s-2.221-17.879-6.658-23.4c-4.441-5.518-10.742-8.279-18.9-8.279
					c-8.162,0-14.432,2.73-18.811,8.189c-4.382,5.462-6.57,13.292-6.57,23.49c0,10.201,2.188,18.031,6.57,23.49
					C438.744,634.741,445.014,637.469,453.176,637.469 M453.176,548.989c-16.811,0-30.324,5.218-40.167,15.508
					c-9.724,10.166-14.653,24.059-14.653,41.292s4.93,31.126,14.653,41.292c9.843,10.29,23.356,15.508,40.167,15.508
					c16.81,0,30.323-5.218,40.166-15.508c9.724-10.166,14.654-24.059,14.654-41.292s-4.931-31.126-14.654-41.292
					C483.499,554.207,469.985,548.989,453.176,548.989L453.176,548.989z M453.176,627.469c-6.674,0-9.479-2.536-11.009-4.444
					c-2.902-3.616-4.372-9.413-4.372-17.235c0-7.82,1.471-13.618,4.37-17.232c1.532-1.909,4.339-4.447,11.011-4.447
					c6.676,0,9.538,2.597,11.11,4.55c2.95,3.671,4.448,9.436,4.448,17.13c0,7.696-1.498,13.461-4.451,17.134
					C462.714,624.873,459.854,627.469,453.176,627.469L453.176,627.469z"/>
			</g>
		</g>
		<g>
			<g>
				<path d="M674.107,797.175l-5-5v-52.2c0-16.531-7.209-18.76-14.261-18.76c-5.427,0-9.944,1.81-13.812,5.532
					c-3.761,3.619-5.668,9.584-5.668,17.728v47.7l-5,5h-19.26l-5-5v-90l5-5h17.1l4.991,4.699l0.128,2.125
					c1.807-1.503,3.771-2.81,5.885-3.915c5.978-3.125,12.813-4.709,20.316-4.709c11.201,0,20.542,3.348,27.764,9.949
					c7.35,6.72,11.076,16.318,11.076,28.53v58.32l-5,5H674.107z"/>
				<path fill="#FFFFFF" d="M659.527,700.375c9.959,0,18.09,2.88,24.39,8.64s9.45,14.04,9.45,24.84v58.32h-19.26v-52.2
					c0-15.84-6.421-23.76-19.261-23.76c-6.722,0-12.481,2.312-17.279,6.93c-4.802,4.621-7.2,11.731-7.2,21.33v47.7h-19.26v-90h17.1
					l0.9,14.94c2.998-5.64,7.138-9.839,12.42-12.601C646.806,701.756,652.805,700.375,659.527,700.375 M659.527,690.375
					c-8.318,0-15.933,1.775-22.632,5.277c-1.063,0.556-2.092,1.154-3.087,1.797l-5.602-5.274h-17.1l-10,10v90l10,10h19.26l10-10
					v-47.7c0-6.732,1.391-11.484,4.135-14.125c2.931-2.821,6.218-4.135,10.345-4.135c4.126,0,9.261,0,9.261,13.76v52.2l10,10h19.26
					l10-10v-58.32c0-13.674-4.273-24.514-12.702-32.22C682.493,694.163,672.017,690.375,659.527,690.375L659.527,690.375z"/>
			</g>
		</g>
	</g>
	<g display="inline">
		<g>
			<g>
				<path d="M125.563,167.667c-11.903,0-22.513-2.719-31.535-8.082c-9.083-5.396-16.21-13.209-21.184-23.224
					c-4.885-9.831-7.362-21.571-7.362-34.894c0-13.219,2.545-24.914,7.565-34.761C78.149,56.702,85.46,48.868,94.78,43.42
					c9.259-5.41,20.1-8.153,32.223-8.153c13.067,0,24.081,2.526,32.734,7.507c8.778,5.056,15.756,12.938,20.742,23.427l-2.354,6.654
					l-17.64,8.46l-6.878-2.848c-1.91-5.425-5-9.408-9.445-12.175c-4.572-2.843-10.224-4.285-16.798-4.285
					c-9.826,0-17.35,3.248-23.002,9.929c-5.785,6.837-8.717,16.772-8.717,29.531c0,13.034,2.802,23.084,8.328,29.874
					c5.349,6.572,13.119,9.767,23.752,9.767c8.275,0,14.979-1.996,19.926-5.933c4.324-3.442,6.589-8.31,6.897-14.848h-31.323l-5-5
					v-15.84l5-5h53.46l5,5v61.38l-5,5h-14.22l-4.997-4.822l-0.107-3.007c-2.324,1.81-4.885,3.388-7.671,4.727
					C142.913,166.017,134.797,167.667,125.563,167.667z"/>
				<path fill="#FFFFFF" d="M127.003,40.267c12.24,0,22.32,2.281,30.24,6.84c7.92,4.562,14.158,11.641,18.72,21.24l-17.64,8.46
					c-2.281-6.48-6.12-11.399-11.52-14.76c-5.4-3.358-11.88-5.04-19.44-5.04c-11.281,0-20.222,3.901-26.82,11.7
					c-6.601,7.802-9.9,18.72-9.9,32.76c0,14.282,3.15,25.29,9.45,33.03c6.3,7.74,15.508,11.61,27.63,11.61
					c9.478,0,17.159-2.34,23.04-7.02c5.878-4.68,8.82-11.458,8.82-20.34v-3.42h-36.36v-15.84h53.46v61.38h-14.22l-0.54-15.12
					c-3.482,5.4-8.28,9.571-14.4,12.51s-13.441,4.41-21.96,4.41c-11.042,0-20.7-2.458-28.98-7.38
					c-8.28-4.919-14.701-11.97-19.26-21.15c-4.562-9.18-6.84-20.07-6.84-32.67c0-12.479,2.34-23.31,7.02-32.49
					c4.68-9.18,11.278-16.259,19.8-21.24C105.822,42.759,115.722,40.267,127.003,40.267 M127.003,30.267
					c-13.021,0-24.711,2.973-34.746,8.836c-10.16,5.938-18.121,14.461-23.663,25.332c-5.382,10.557-8.111,23.017-8.111,37.032
					c0,14.102,2.653,26.591,7.884,37.12c5.408,10.89,13.183,19.401,23.108,25.297c9.803,5.827,21.272,8.783,34.087,8.783
					c9.989,0,18.834-1.815,26.289-5.395c1.528-0.734,2.996-1.533,4.402-2.396l6.208,5.991h14.22l10-10v-61.38l-10-10h-53.46l-10,10
					v15.84l10,10h25.427c-1.028,3.113-2.72,4.826-4.116,5.937c-4.095,3.258-9.595,4.843-16.811,4.843
					c-9.034,0-15.535-2.592-19.875-7.923c-4.781-5.874-7.205-14.863-7.205-26.717c0-11.543,2.535-20.392,7.534-26.301
					c4.709-5.566,10.806-8.159,19.186-8.159c5.707,0,10.337,1.155,14.159,3.532c3.44,2.141,5.852,5.278,7.369,9.588l13.757,5.697
					l17.64-8.46l4.708-13.309c-5.429-11.424-13.087-20.041-22.76-25.613C152.81,33.017,140.957,30.267,127.003,30.267
					L127.003,30.267z"/>
			</g>
		</g>
		<g>
			<g>
				<path d="M398.939,182.367l-5-5v-90l5-5H418.2l5,5v90l-5,5H398.939z M408.66,77.247c-5.36,0-9.71-1.505-12.93-4.474
					c-3.336-3.068-5.03-7.305-5.03-12.586c0-5.304,1.711-9.525,5.085-12.545c3.214-2.876,7.546-4.334,12.875-4.334
					c5.351,0,9.668,1.473,12.831,4.377c3.284,3.022,4.948,7.228,4.948,12.503c0,5.253-1.647,9.473-4.896,12.544
					C418.377,75.727,414.042,77.247,408.66,77.247z"/>
				<path fill="#FFFFFF" d="M408.66,48.307c4.078,0,7.229,1.021,9.449,3.06c2.22,2.042,3.33,4.981,3.33,8.82
					c0,3.842-1.11,6.812-3.33,8.91c-2.221,2.101-5.371,3.15-9.449,3.15c-4.081,0-7.262-1.049-9.54-3.15
					c-2.281-2.098-3.42-5.068-3.42-8.91c0-3.839,1.139-6.778,3.42-8.82C401.398,49.328,404.579,48.307,408.66,48.307 M418.2,87.367
					v90h-19.261v-90H418.2 M408.66,38.307c-6.598,0-12.051,1.887-16.209,5.608c-3.08,2.757-6.751,7.818-6.751,16.271
					c0,8.392,3.616,13.48,6.65,16.271c1.332,1.228,2.799,2.262,4.396,3.102l-7.808,7.808v90l10,10H418.2l10-10v-90l-7.762-7.762
					c1.66-0.869,3.177-1.951,4.544-3.244c2.943-2.783,6.457-7.851,6.457-16.174c0-8.385-3.567-13.426-6.56-16.179
					C420.758,40.223,415.303,38.307,408.66,38.307L408.66,38.307z"/>
			</g>
		</g>
		<g>
			<g>
				<path d="M604.944,315.496l-5-5v-69.88h-11.92l-5-5v-15.12l5-5h11.92v-7.96c0-10.542,3.334-18.931,9.908-24.933
					c6.442-5.884,15.39-8.868,26.592-8.868c4.002,0,7.755,0.448,11.156,1.331c3.711,0.968,6.604,2.294,8.85,4.056l1.757,5.176
					l-3.601,14.04l-7.573,2.946c-1.923-1.253-4.456-1.889-7.529-1.889c-8.996,0-10.84,3.83-10.84,9.58v6.52h24.16l5,5v15.12l-5,5
					h-23.62v69.88l-5,5H604.944z"/>
				<path fill="#FFFFFF" d="M636.444,178.736c3.6,0,6.898,0.391,9.899,1.17c2.998,0.782,5.339,1.831,7.021,3.15l-3.601,14.04
					c-2.762-1.8-6.182-2.7-10.26-2.7c-10.561,0-15.84,4.86-15.84,14.58v11.52h29.16v15.12h-28.62v74.88h-19.26v-74.88h-16.92v-15.12
					h16.92v-12.96c0-9.118,2.759-16.2,8.279-21.24C618.742,181.256,626.482,178.736,636.444,178.736 M636.444,168.736
					c-12.489,0-22.571,3.424-29.965,10.176c-7.653,6.988-11.535,16.619-11.535,28.624v2.96h-6.92l-10,10v15.12l10,10h6.92v64.88
					l10,10h19.26l10-10v-64.88h18.62l10-10v-15.12l-10-10h-19.16v-1.52c0-2.292,0.46-3.327,0.732-3.578
					c0.404-0.372,1.936-1.002,5.107-1.002c2.088,0,3.702,0.362,4.799,1.078l15.147-5.894l3.601-14.04l-3.514-10.352
					c-2.796-2.193-6.286-3.815-10.67-4.958C645.046,169.238,640.87,168.736,636.444,168.736L636.444,168.736z"/>
			</g>
		</g>
		<g>
			<g>
				<path d="M157.289,508.443l-5-5v-69.88h-11.92l-5-5v-15.12l5-5h11.92v-7.96c0-10.542,3.333-18.931,9.908-24.933
					c6.442-5.884,15.389-8.867,26.592-8.867c4.003,0,7.756,0.447,11.156,1.33c3.712,0.968,6.606,2.294,8.852,4.058l1.755,5.175
					l-3.601,14.039l-7.573,2.946c-1.922-1.252-4.456-1.888-7.53-1.888c-8.997,0-10.84,3.83-10.84,9.58v6.52h24.16l5,5v15.12l-5,5
					h-23.62v69.88l-5,5H157.289z"/>
				<path fill="#FFFFFF" d="M188.789,371.684c3.6,0,6.898,0.391,9.899,1.17c2.998,0.781,5.339,1.83,7.021,3.15l-3.601,14.039
					c-2.762-1.8-6.182-2.699-10.26-2.699c-10.561,0-15.84,4.859-15.84,14.58v11.52h29.16v15.12h-28.62v74.88h-19.26v-74.88h-16.92
					v-15.12h16.92v-12.96c0-9.118,2.759-16.2,8.279-21.24C171.087,374.203,178.827,371.684,188.789,371.684 M188.789,361.684
					c-12.49,0-22.571,3.424-29.964,10.176c-7.654,6.987-11.536,16.619-11.536,28.624v2.96h-6.92l-10,10v15.12l10,10h6.92v64.88
					l10,10h19.26l10-10v-64.88h18.62l10-10v-15.12l-10-10h-19.16v-1.52c0-2.292,0.46-3.327,0.732-3.578
					c0.405-0.372,1.936-1.002,5.108-1.002c2.088,0,3.703,0.362,4.8,1.077l15.146-5.894l3.601-14.039l-3.511-10.35
					c-2.797-2.196-6.289-3.819-10.674-4.962C197.392,362.186,193.216,361.684,188.789,361.684L188.789,361.684z"/>
			</g>
		</g>
		<g>
			<g>
				<path d="M453.176,657.589c-15.393,0-27.691-4.698-36.554-13.964c-8.803-9.203-13.267-21.934-13.267-37.836
					s4.464-28.633,13.267-37.836c8.862-9.266,21.161-13.964,36.554-13.964s27.69,4.698,36.553,13.964
					c8.804,9.204,13.268,21.935,13.268,37.836s-4.464,28.632-13.268,37.836C480.866,652.891,468.568,657.589,453.176,657.589z
					 M453.176,579.109c-6.623,0-11.5,2.066-14.91,6.318c-3.63,4.524-5.471,11.375-5.471,20.361c0,8.988,1.84,15.839,5.47,20.36
					c3.409,4.253,8.286,6.319,14.911,6.319s11.532-2.098,15.005-6.413c3.685-4.583,5.554-11.402,5.554-20.267
					c0-8.862-1.869-15.682-5.556-20.269C464.707,581.208,459.799,579.109,453.176,579.109z"/>
				<path fill="#FFFFFF" d="M453.176,558.989c14.039,0,25.02,4.14,32.939,12.42s11.881,19.741,11.881,34.38
					c0,14.642-3.961,26.1-11.881,34.38s-18.9,12.42-32.939,12.42c-14.041,0-25.021-4.14-32.94-12.42s-11.88-19.738-11.88-34.38
					c0-14.639,3.96-26.1,11.88-34.38S439.135,558.989,453.176,558.989 M453.176,637.469c8.158,0,14.459-2.759,18.9-8.279
					c4.438-5.519,6.658-13.32,6.658-23.4s-2.221-17.879-6.658-23.4c-4.441-5.518-10.742-8.279-18.9-8.279
					c-8.162,0-14.432,2.73-18.811,8.189c-4.382,5.462-6.57,13.292-6.57,23.49c0,10.201,2.188,18.031,6.57,23.49
					C438.744,634.741,445.014,637.469,453.176,637.469 M453.176,548.989c-16.811,0-30.324,5.218-40.167,15.508
					c-9.724,10.166-14.653,24.059-14.653,41.292s4.93,31.126,14.653,41.292c9.843,10.29,23.356,15.508,40.167,15.508
					c16.81,0,30.323-5.218,40.166-15.508c9.724-10.166,14.654-24.059,14.654-41.292s-4.931-31.126-14.654-41.292
					C483.499,554.207,469.985,548.989,453.176,548.989L453.176,548.989z M453.176,627.469c-6.674,0-9.479-2.536-11.009-4.444
					c-2.902-3.616-4.372-9.413-4.372-17.235c0-7.82,1.471-13.618,4.37-17.232c1.532-1.909,4.339-4.447,11.011-4.447
					c6.676,0,9.538,2.597,11.11,4.55c2.95,3.671,4.448,9.436,4.448,17.13c0,7.696-1.498,13.461-4.451,17.134
					C462.714,624.873,459.854,627.469,453.176,627.469L453.176,627.469z"/>
			</g>
		</g>
		<g>
			<g>
				<path d="M674.107,797.175l-5-5v-52.2c0-16.531-7.209-18.76-14.261-18.76c-5.427,0-9.944,1.81-13.812,5.532
					c-3.761,3.619-5.668,9.584-5.668,17.728v47.7l-5,5h-19.26l-5-5v-90l5-5h17.1l4.991,4.699l0.128,2.125
					c1.807-1.503,3.771-2.81,5.885-3.915c5.978-3.125,12.813-4.709,20.316-4.709c11.201,0,20.542,3.348,27.764,9.949
					c7.35,6.72,11.076,16.318,11.076,28.53v58.32l-5,5H674.107z"/>
				<path fill="#FFFFFF" d="M659.527,700.375c9.959,0,18.09,2.88,24.39,8.64s9.45,14.04,9.45,24.84v58.32h-19.26v-52.2
					c0-15.84-6.421-23.76-19.261-23.76c-6.722,0-12.481,2.312-17.279,6.93c-4.802,4.621-7.2,11.731-7.2,21.33v47.7h-19.26v-90h17.1
					l0.9,14.94c2.998-5.64,7.138-9.839,12.42-12.601C646.806,701.756,652.805,700.375,659.527,700.375 M659.527,690.375
					c-8.318,0-15.933,1.775-22.632,5.277c-1.063,0.556-2.092,1.154-3.087,1.797l-5.602-5.274h-17.1l-10,10v90l10,10h19.26l10-10
					v-47.7c0-6.732,1.391-11.484,4.135-14.125c2.931-2.821,6.218-4.135,10.345-4.135c4.126,0,9.261,0,9.261,13.76v52.2l10,10h19.26
					l10-10v-58.32c0-13.674-4.273-24.514-12.702-32.22C682.493,694.163,672.017,690.375,659.527,690.375L659.527,690.375z"/>
			</g>
		</g>
	</g>
</g>
<g id="Layer_2" display="none">
	<text transform="matrix(1 0 0 1 808 992.3672)" display="inline" font-family="'WorkSans-Medium'" font-size="180">G</text>
	<text transform="matrix(1 0 0 1 1089 1030.3672)" display="inline" font-family="'WorkSans-Medium'" font-size="180">I</text>
	<text transform="matrix(1 0 0 1 1288.1641 1157.4961)" display="inline" font-family="'WorkSans-Medium'" font-size="180">F</text>
	<text transform="matrix(1 0 0 1 840.5088 1350.4434)" display="inline" font-family="'WorkSans-Medium'" font-size="180">F</text>
	<text transform="matrix(1 0 0 1 1103.6348 1497.7891)" display="inline" font-family="'WorkSans-Medium'" font-size="180">O</text>
	<text transform="matrix(1 0 0 1 1301.167 1459.1748)" display="inline" font-family="'WorkSans-Medium'" font-size="180">N</text>
	<g display="inline">
		<g>
			<path d="M702.661,967.91c18.279,19.49,39.198,36.602,63.455,48.086c19.806,9.377,41.324,14.222,63.176,15.092
				c44.834,1.787,88.723-13.049,130.805-26.648c45.675-14.76,91.183-28.76,139.528-30.134c46.729-1.329,96.172,0.762,138.803,21.976
				c40.233,20.021,72.577,61.368,78.203,106.534c2.343,18.809-0.723,38.057-9.707,54.806c-9.532,17.769-25.431,30.883-43.422,39.499
				c-11.297,5.41-23.554,8.513-35.666,11.491c-14.163,3.483-28.615,5.685-43.102,7.282c-27.688,3.054-55.576,3.666-83.281,6.529
				c-50.946,5.266-105.386,20.954-140.605,60.411c-29.089,32.587-44.493,78.433-40.163,121.945
				c3.953,39.723,26.496,80.209,66.165,92.891c37.191,11.891,79.254,0.221,114.281-13.412c17.801-6.928,35.065-15.207,51.878-24.256
				c7.991-4.301,15.733-9.058,23.753-13.299c10.287-5.44,21.19-9.613,32.395-12.724c45.664-12.674,95.462-3.184,131.643,27.865
				c34.921,29.968,48.929,76.104,41.131,120.934c-6.866,39.474-30.131,75.437-63.6,97.491c-3.216,2.119-0.214,7.317,3.027,5.182
				c36.366-23.965,60.827-63.123,67.173-106.146c6.391-43.326-7.168-87.371-39.087-117.726
				c-33.617-31.971-80.596-44.246-125.919-36.89c-22.115,3.59-42.104,12.356-61.411,23.396
				c-15.802,9.036-32.038,17.325-48.707,24.643c-35.526,15.593-77.431,29.402-116.549,21.351
				c-42.892-8.829-66.741-50.851-70.425-91.962c-3.99-44.541,14.021-91.229,45.746-122.492
				c18.88-18.606,44.144-30.983,69.072-39.182c26.932-8.858,55.252-11.981,83.398-14.016c27.65-1.999,55.364-3.15,82.771-7.59
				c24.109-3.906,49.259-9.762,70.317-22.606c33.056-20.162,49.805-57.239,44.64-95.379c-5.934-43.825-35.765-83.978-73.626-105.839
				c-40.467-23.365-89.356-27.295-135.107-26.966c-23.603,0.169-46.754,1.882-69.929,6.518
				c-23.403,4.681-46.293,11.625-69.009,18.869c-43.114,13.75-86.801,30.025-132.502,31.668c-23.092,0.83-45.974-2.981-67.368-11.76
				c-26.235-10.763-48.695-29.163-67.934-49.675C704.252,960.84,700.018,965.092,702.661,967.91L702.661,967.91z"/>
		</g>
	</g>
</g>
</svg>
