<svg height="512pt" viewBox="0 -13 512 512" width="512pt" xmlns="http://www.w3.org/2000/svg"><path d="m344.914062 36.058594h-.226562c-5.507812 0-9.972656 4.464844-9.972656 9.976562 0 5.511719 4.464844 9.976563 9.972656 9.976563h.226562c5.511719 0 9.976563-4.464844 9.976563-9.976563 0-5.511718-4.464844-9.976562-9.976563-9.976562zm0 0"/><path d="m379.386719 36.058594h-.226563c-5.507812 0-9.976562 4.464844-9.976562 9.976562 0 5.511719 4.46875 9.976563 9.976562 9.976563h.226563c5.511719 0 9.976562-4.464844 9.976562-9.976563 0-5.511718-4.464843-9.976562-9.976562-9.976562zm0 0"/><path d="m413.433594 36.058594h-.226563c-5.507812 0-9.976562 4.464844-9.976562 9.976562 0 5.511719 4.46875 9.976563 9.976562 9.976563h.226563c5.511718 0 9.976562-4.464844 9.976562-9.976563 0-5.511718-4.464844-9.976562-9.976562-9.976562zm0 0"/><path d="m464.601562 44.601562v-17.78125c0-14.789062-12.09375-26.820312-26.957031-26.820312h-357.648437c-14.863282 0-26.957032 12.03125-26.957032 26.820312v17.773438h-5.445312c-26.242188 0-47.59375 21.257812-47.59375 47.386719v271.652343c0 26.113282 21.351562 47.359376 47.59375 47.359376h150.832031l-5.726562 19.261718h-28.816407c-15.726562 0-28.519531 12.726563-28.519531 28.371094s12.792969 28.371094 28.519531 28.371094h184.234376c15.710937 0 28.488281-12.726563 28.488281-28.371094s-12.777344-28.371094-28.488281-28.371094h-28.816407l-5.726562-19.261718h150.804687c26.257813 0 47.621094-21.246094 47.621094-47.359376v-271.652343c0-26.054688-21.242188-47.257813-47.398438-47.378907zm-391.609374-17.78125c0-3.722656 3.207031-6.871093 7.003906-6.871093h357.648437c3.796875 0 7.003907 3.148437 7.003907 6.871093v45.832032h-371.65625zm-53.042969 65.160157c0-15.125 12.402343-27.433594 27.644531-27.433594h5.445312v269.84375h-33.089843zm328.167969 358.226562c4.707031 0 8.539062 3.777344 8.539062 8.421875 0 4.640625-3.832031 8.417969-8.539062 8.417969h-184.234376c-4.726562 0-8.566406-3.777344-8.566406-8.417969 0-4.644531 3.839844-8.421875 8.566406-8.421875zm-134.605469-19.953125 5.71875-19.234375h73.539062l5.71875 19.234375zm278.539062-66.621094c0 15.113282-12.414062 27.410157-27.671875 27.410157h-416.785156c-15.242188 0-27.640625-12.296875-27.640625-27.410157v-9.292968h193.625c5.507813 0 9.976563-4.464844 9.976563-9.976563 0-5.507812-4.46875-9.972656-9.976563-9.972656h-140.585937v-241.785156h371.65625v241.785156h-148.917969c-5.507813 0-9.976563 4.464844-9.976563 9.972656 0 5.511719 4.464844 9.976563 9.976563 9.976563h196.316406v9.292968zm0-29.242187h-27.449219v-269.839844c15.15625.121094 27.449219 12.378907 27.449219 27.429688zm0 0"/><path d="m255.984375 334.390625h-.167969c-5.507812 0-9.976562 4.464844-9.976562 9.972656 0 5.511719 4.464844 9.976563 9.976562 9.976563h.167969c5.511719 0 9.976563-4.464844 9.976563-9.976563 0-5.507812-4.464844-9.972656-9.976563-9.972656zm0 0"/><path d="m356.761719 227.738281c.09375-.441406.152343-.890625.1875-1.351562.621093-4.601563.949219-9.292969.949219-14.058594 0-29.222656-12.03125-55.699219-31.417969-74.796875-.445313-.539062-.949219-1.023438-1.496094-1.457031-19.011719-18.007813-44.726563-29.082031-72.996094-29.082031-53.058593 0-97.125 38.988281-104.761719 89.660156-.078124.386718-.132812.78125-.167968 1.183594-.65625 4.738281-1.003906 9.574218-1.003906 14.492187 0 29.042969 11.878906 55.378906 31.066406 74.453125.445312.539062.953125 1.023438 1.503906 1.457031 19.050781 18.210938 44.914062 29.421875 73.363281 29.421875 53.136719 0 97.25-39.121094 104.773438-89.921875zm-18.816407-15.410156c0 1.113281-.042968 2.21875-.085937 3.320313h-54.886719c-2.027344 0-3.746094-1.664063-3.746094-3.628907 0-1.984375 1.71875-3.660156 3.746094-3.660156h2.890625c13.050781 0 23.667969-10.578125 23.667969-23.582031 0-13.019532-10.617188-23.613282-23.667969-23.613282-2.027343 0-3.742187-1.660156-3.742187-3.628906 0-1.984375 1.714844-3.660156 3.742187-3.660156h28.695313c14.484375 15.289062 23.386718 35.851562 23.386718 58.453125zm-171.941406 0c0-1.226563.042969-2.445313.09375-3.660156h54.539063c2.011719 0 3.714843 1.664062 3.714843 3.632812 0 1.980469-1.703124 3.660157-3.714843 3.660157h-2.894531c-13.066407 0-23.695313 10.578124-23.695313 23.578124 0 13.019532 10.628906 23.613282 23.695313 23.613282 2.015624 0 3.71875 1.660156 3.71875 3.628906 0 1.984375-1.703126 3.660156-3.71875 3.660156h-28.671876c-14.296874-15.253906-23.066406-35.679687-23.066406-58.113281zm51.738282 78.066406c13.050781 0 23.667968-10.59375 23.667968-23.613281 0-13.003906-10.617187-23.582031-23.667968-23.582031-2.027344 0-3.746094-1.675781-3.746094-3.660157 0-1.964843 1.71875-3.628906 3.746094-3.628906h2.894531c13.050781 0 23.667969-10.589844 23.667969-23.609375 0-13.003906-10.617188-23.582031-23.667969-23.582031h-51.261719c10.34375-35.628906 43.449219-61.773438 82.613281-61.773438 12.074219 0 23.570313 2.496094 34.003907 6.980469h-.125c-13.066407 0-23.695313 10.589844-23.695313 23.609375 0 13.003906 10.628906 23.582032 23.695313 23.582032 2.015624 0 3.714843 1.675781 3.714843 3.660156 0 1.96875-1.699219 3.628906-3.714843 3.628906h-2.890626c-13.070312 0-23.699218 10.59375-23.699218 23.613281 0 13.003907 10.628906 23.582031 23.699218 23.582031h51.699219c-10.230469 35.800782-43.410156 62.109376-82.6875 62.109376-12.367187 0-24.125-2.628907-34.765625-7.316407zm0 0"/><path d="m365.921875 288.144531c.886719 4.804688 5.082031 8.164063 9.796875 8.164063.601562 0 1.210938-.054688 1.824219-.167969 3.253906-.601563 5.839843-2.722656 7.171875-5.496094l13.890625 13.804688c1.949219 1.9375 4.492187 2.902343 7.035156 2.902343 2.5625 0 5.125-.984374 7.074219-2.945312 3.882812-3.90625 3.863281-10.222656-.042969-14.105469l-13.78125-13.695312c2.773437-1.34375 4.890625-3.941407 5.480469-7.203125.980468-5.421875-2.617188-10.613282-8.039063-11.59375l-23.046875-4.167969c-.074218-.011719-.125-.011719-.195312-.023437-1.097656-.175782-2.238282-.183594-3.394532.03125-5.417968 1-8.996093 6.203124-7.996093 11.621093zm0 0"/></svg>