<?xml version="1.0" encoding="iso-8859-1"?>
<!-- Generator: Adobe Illustrator 19.0.0, SVG Export Plug-In . SVG Version: 6.00 Build 0)  -->
<svg version="1.1" id="Capa_1" xmlns="http://www.w3.org/2000/svg" xmlns:xlink="http://www.w3.org/1999/xlink" x="0px" y="0px"
	 viewBox="0 0 512 512" style="enable-background:new 0 0 512 512;" xml:space="preserve">
<g>
	<g>
		<path d="M309.126,158.729c-4.505-3.195-10.747-2.137-13.943,2.368l-0.194,0.273c-3.196,4.504-2.136,10.746,2.368,13.942
			c1.757,1.246,3.777,1.846,5.779,1.846c3.131,0,6.214-1.466,8.164-4.214l0.194-0.273
			C314.69,168.167,313.63,161.925,309.126,158.729z"/>
	</g>
</g>
<g>
	<g>
		<path d="M286.344,187.069c-3.502-4.271-9.803-4.892-14.073-1.389c-13.893,11.396-29.68,19.508-46.923,24.112
			c-5.336,1.425-8.507,6.905-7.082,12.241c1.194,4.472,5.236,7.423,9.655,7.423c0.854,0,1.722-0.11,2.586-0.342
			c20.017-5.345,38.335-14.756,54.447-27.972C289.225,197.64,289.847,191.338,286.344,187.069z"/>
	</g>
</g>
<g>
	<g>
		<path d="M482,226.47c-16.542,0-30,13.458-30,29.999v5.001c0,41.937-30.535,76.854-70.535,83.743
			c5.224-7.705,8.28-16.994,8.28-26.984v-6.946c0-26.58-21.625-48.204-48.205-48.204c-26.58,0-48.204,21.624-48.204,48.204v6.946
			c0,9.736,2.91,18.8,7.893,26.387c-38.429-8.146-67.357-42.326-67.357-83.146v-5.001c0-16.541-13.458-29.999-30-29.999
			s-30,13.458-30,29.999v5.001c0,20.297,4.13,39.926,12.098,58.061h-66.217h-1.826V218.823c0-4.464-2.958-8.388-7.25-9.614
			C57.288,193.94,20,144.509,20,89v-5c0-5.514,4.486-10,10-10s10,4.486,10,10v5c0,57.897,47.103,105,105,105h48.127
			c57.897,0,105-47.103,105-105v-5c0-5.514,4.486-10,10-10c5.514,0,10,4.486,10,10v5c0,15.371-2.769,30.386-8.231,44.625
			c-1.978,5.156,0.599,10.94,5.756,12.918c5.154,1.979,10.94-0.6,12.918-5.756c6.342-16.534,9.557-33.958,9.557-51.787v-5
			c0-16.542-13.458-30-30-30s-30,13.458-30,30v5c0,41.936-30.535,76.853-70.534,83.743c5.224-7.705,8.279-16.993,8.279-26.982
			v-6.946c0-26.58-21.625-48.205-48.205-48.205s-48.204,21.625-48.204,48.205v6.946c0,9.735,2.91,18.799,7.893,26.385
			C88.927,164,60,129.82,60,89v-5c0-16.542-13.458-30-30-30S0,67.458,0,84v5c0,32.106,10.322,62.548,29.849,88.033
			c17.344,22.635,41.309,39.875,68.079,49.118V329.53c0,5.522,4.477,10,10,10h1.826V502c0,5.522,4.477,10,10,10
			c5.523,0,10-4.478,10-10V339.53h66.96c2.186,3.399,4.521,6.726,7.008,9.972c0.662,0.864,1.351,1.704,2.032,2.552V502
			c0,5.522,4.477,10,10,10c5.523,0,10-4.478,10-10V372.49c13.625,11.419,29.286,20.342,46.047,26.13V502c0,5.522,4.477,10,10,10
			s10-4.478,10-10V391.292c0-4.464-2.958-8.388-7.25-9.614c-53.39-15.269-90.678-64.699-90.678-120.208v-5.001
			c0-5.514,4.486-9.999,10-9.999c5.514,0,10,4.485,10,9.999v5.001c0,57.897,47.103,105,105,105H367c57.897,0,105-47.103,105-105
			v-5.001c0-5.514,4.486-9.999,10-9.999c5.514,0,10,4.485,10,9.999v5.001c0,56.534-38.152,106.205-92.778,120.791
			c-4.376,1.168-7.42,5.132-7.42,9.661v72.411c0,5.522,4.477,10,10,10s10-4.478,10-10V399.39
			C471.176,380.101,512,324.459,512,261.47v-5.001C512,239.928,498.542,226.47,482,226.47z M139.463,138.814
			c0-15.553,12.652-28.205,28.204-28.205s28.205,12.652,28.205,28.205v6.946c0,15.552-12.652,28.204-28.205,28.204
			c-15.552,0-28.204-12.652-28.204-28.204V138.814z M369.745,318.229c0,15.552-12.652,28.204-28.205,28.204
			c-15.552,0-28.204-12.652-28.204-28.204v-6.946c0-15.552,12.652-28.204,28.204-28.204s28.205,12.652,28.205,28.204V318.229z"/>
	</g>
</g>
<g>
	<g>
		<path d="M408.87,494.93c-1.86-1.861-4.44-2.93-7.07-2.93s-5.21,1.069-7.07,2.93c-1.86,1.86-2.93,4.44-2.93,7.07
			s1.07,5.21,2.93,7.069c1.86,1.86,4.44,2.931,7.07,2.931s5.21-1.07,7.07-2.931c1.86-1.859,2.93-4.439,2.93-7.069
			S410.73,496.79,408.87,494.93z"/>
	</g>
</g>
<g>
	<g>
		<path d="M167.667,374c-5.523,0-10,4.478-10,10v118c0,5.522,4.477,10,10,10c5.523,0,10-4.478,10-10V384
			C177.667,378.478,173.19,374,167.667,374z"/>
	</g>
</g>
<g>
	<g>
		<path d="M466,82c-5.523,0-10,4.478-10,10v12.43c0,5.522,4.477,10,10,10s10-4.478,10-10V92C476,86.478,471.523,82,466,82z"/>
	</g>
</g>
<g>
	<g>
		<path d="M466,141.57c-5.523,0-10,4.478-10,10V164c0,5.522,4.477,10,10,10s10-4.478,10-10v-12.43
			C476,146.048,471.523,141.57,466,141.57z"/>
	</g>
</g>
<g>
	<g>
		<path d="M502,118h-12.43c-5.523,0-10,4.478-10,10c0,5.522,4.477,10,10,10H502c5.523,0,10-4.478,10-10
			C512,122.478,507.523,118,502,118z"/>
	</g>
</g>
<g>
	<g>
		<path d="M442.43,118H430c-5.523,0-10,4.478-10,10c0,5.522,4.477,10,10,10h12.43c5.523,0,10-4.478,10-10
			C452.43,122.478,447.953,118,442.43,118z"/>
	</g>
</g>
<g>
	<g>
		<path d="M219.873,0c-5.523,0-10,4.478-10,10v12.43c0,5.522,4.477,10,10,10c5.523,0,10-4.478,10-10V10
			C229.873,4.478,225.396,0,219.873,0z"/>
	</g>
</g>
<g>
	<g>
		<path d="M219.873,59.57c-5.523,0-10,4.478-10,10V82c0,5.522,4.477,10,10,10c5.523,0,10-4.478,10-10V69.57
			C229.873,64.048,225.396,59.57,219.873,59.57z"/>
	</g>
</g>
<g>
	<g>
		<path d="M255.873,36h-12.43c-5.523,0-10,4.478-10,10s4.477,10,10,10h12.43c5.523,0,10-4.478,10-10S261.396,36,255.873,36z"/>
	</g>
</g>
<g>
	<g>
		<path d="M196.303,36h-12.43c-5.523,0-10,4.478-10,10s4.477,10,10,10h12.43c5.523,0,10-4.478,10-10S201.826,36,196.303,36z"/>
	</g>
</g>
</svg>
