<svg xmlns="http://www.w3.org/2000/svg" height="512pt" version="1.1" viewBox="0 0 512.001 512" width="512pt">
<g id="surface1">
<path fill="#fff700" d="M 256 0 C 167.996094 0 96.398438 71.597656 96.398438 159.601562 C 96.398438 210.25 120.277344 257.511719 160.664062 287.605469 L 160.664062 300.933594 C 150.828125 309.578125 144.601562 322.238281 144.601562 336.332031 C 144.601562 348.742188 149.429688 360.042969 157.296875 368.46875 C 149.429688 376.894531 144.601562 388.191406 144.601562 400.601562 C 144.601562 421.742188 158.589844 439.675781 177.800781 445.628906 C 183.980469 483.222656 216.683594 512 256 512 C 295.316406 512 328.023438 483.222656 334.203125 445.628906 C 353.410156 439.671875 367.402344 421.742188 367.402344 400.597656 C 367.402344 388.191406 362.574219 376.890625 354.707031 368.464844 C 362.574219 360.039062 367.402344 348.742188 367.402344 336.332031 C 367.402344 322.238281 361.175781 309.578125 351.335938 300.929688 L 351.335938 287.605469 C 391.722656 257.511719 415.601562 210.25 415.601562 159.601562 C 415.601562 71.597656 344.003906 0 256 0 Z M 320.269531 319.199219 C 329.714844 319.199219 337.402344 326.886719 337.402344 336.332031 C 337.402344 345.78125 329.714844 353.46875 320.269531 353.46875 L 191.734375 353.46875 C 182.285156 353.46875 174.597656 345.78125 174.597656 336.332031 C 174.597656 326.886719 182.285156 319.199219 191.734375 319.199219 Z M 256 482 C 234.0625 482 215.429688 467.585938 209.066406 447.734375 L 302.933594 447.734375 C 296.574219 467.589844 277.9375 482 256 482 Z M 320.269531 417.734375 L 191.734375 417.734375 C 182.285156 417.734375 174.597656 410.046875 174.597656 400.601562 C 174.597656 391.152344 182.285156 383.46875 191.734375 383.46875 L 320.269531 383.46875 C 329.714844 383.46875 337.402344 391.152344 337.402344 400.601562 C 337.402344 410.046875 329.714844 417.734375 320.269531 417.734375 Z M 327.992188 267.378906 C 323.832031 270.164062 321.335938 274.839844 321.335938 279.84375 L 321.335938 289.226562 C 320.980469 289.21875 320.625 289.199219 320.269531 289.199219 L 303.132812 289.199219 L 303.132812 230.082031 L 324.671875 208.542969 C 330.53125 202.683594 330.53125 193.1875 324.671875 187.328125 C 318.816406 181.46875 309.316406 181.46875 303.460938 187.328125 L 277.527344 213.261719 C 274.714844 216.074219 273.132812 219.886719 273.132812 223.867188 L 273.132812 289.199219 L 238.867188 289.199219 L 238.867188 223.867188 C 238.867188 219.890625 237.285156 216.074219 234.472656 213.261719 L 208.539062 187.328125 C 202.683594 181.472656 193.1875 181.472656 187.328125 187.328125 C 181.46875 193.1875 181.46875 202.683594 187.328125 208.542969 L 208.867188 230.082031 L 208.867188 289.203125 L 191.734375 289.203125 C 191.375 289.203125 191.019531 289.21875 190.664062 289.226562 L 190.664062 279.84375 C 190.664062 274.839844 188.167969 270.164062 184.007812 267.378906 C 147.9375 243.230469 126.398438 202.941406 126.398438 159.601562 C 126.398438 88.136719 184.539062 30 256 30 C 327.460938 30 385.601562 88.136719 385.601562 159.601562 C 385.601562 202.941406 364.0625 243.230469 327.992188 267.378906 Z M 327.992188 267.378906 " style=" stroke:none;fill-rule:nonzero;fill-opacity:1;" />
<path fill="#fff700" d="M 62.132812 159.601562 C 62.132812 151.316406 55.417969 144.601562 47.132812 144.601562 L 15 144.601562 C 6.714844 144.601562 0 151.316406 0 159.601562 C 0 167.882812 6.714844 174.601562 15 174.601562 L 47.132812 174.601562 C 55.417969 174.601562 62.132812 167.882812 62.132812 159.601562 Z M 62.132812 159.601562 " style=" stroke:none;fill-rule:nonzero;fill-opacity:1;" />
<path fill="#fff700" d="M 497 144.601562 L 464.867188 144.601562 C 456.585938 144.601562 449.867188 151.316406 449.867188 159.601562 C 449.867188 167.882812 456.585938 174.601562 464.867188 174.601562 L 497 174.601562 C 505.285156 174.601562 512 167.882812 512 159.601562 C 512 151.316406 505.285156 144.601562 497 144.601562 Z M 497 144.601562 " style=" stroke:none;fill-rule:nonzero;fill-opacity:1;" />
<path fill="#fff700" d="M 67.613281 251.042969 L 39.785156 267.109375 C 32.613281 271.253906 30.15625 280.425781 34.296875 287.601562 C 37.074219 292.414062 42.117188 295.101562 47.300781 295.101562 C 49.84375 295.101562 52.425781 294.457031 54.785156 293.089844 L 82.613281 277.027344 C 89.789062 272.882812 92.246094 263.710938 88.105469 256.535156 C 83.964844 249.359375 74.789062 246.902344 67.613281 251.042969 Z M 67.613281 251.042969 " style=" stroke:none;fill-rule:nonzero;fill-opacity:1;" />
<path fill="#fff700" d="M 436.898438 70.171875 C 439.441406 70.171875 442.019531 69.523438 444.382812 68.160156 L 472.214844 52.089844 C 479.386719 47.949219 481.847656 38.777344 477.703125 31.601562 C 473.558594 24.425781 464.386719 21.96875 457.214844 26.113281 L 429.382812 42.179688 C 422.210938 46.320312 419.75 55.496094 423.894531 62.667969 C 426.671875 67.480469 431.714844 70.171875 436.898438 70.171875 Z M 436.898438 70.171875 " style=" stroke:none;fill-rule:nonzero;fill-opacity:1;" />
<path fill="#fff700" d="M 472.210938 267.109375 L 444.382812 251.046875 C 437.207031 246.90625 428.03125 249.363281 423.890625 256.539062 C 419.75 263.710938 422.210938 272.886719 429.382812 277.027344 L 457.214844 293.089844 C 459.574219 294.453125 462.152344 295.101562 464.699219 295.101562 C 469.882812 295.101562 474.925781 292.410156 477.703125 287.597656 C 481.847656 280.425781 479.386719 271.25 472.210938 267.109375 Z M 472.210938 267.109375 " style=" stroke:none;fill-rule:nonzero;fill-opacity:1;" />
<path fill="#fff700" d="M 82.617188 42.175781 L 54.789062 26.113281 C 47.613281 21.96875 38.441406 24.429688 34.300781 31.605469 C 30.15625 38.78125 32.617188 47.953125 39.789062 52.09375 L 67.617188 68.160156 C 69.980469 69.523438 72.558594 70.171875 75.101562 70.171875 C 80.289062 70.171875 85.328125 67.480469 88.109375 62.667969 C 92.25 55.492188 89.789062 46.320312 82.617188 42.175781 Z M 82.617188 42.175781 " style=" stroke:none;fill-rule:nonzero;fill-opacity:1;" />
</g>
</svg>