<?xml version="1.0" encoding="UTF-8" standalone="no"?>
<!-- Generator: Adobe Illustrator 16.0.3, SVG Export Plug-In . SVG Version: 6.00 Build 0)  -->

<svg
   xmlns:dc="http://purl.org/dc/elements/1.1/"
   xmlns:cc="http://creativecommons.org/ns#"
   xmlns:rdf="http://www.w3.org/1999/02/22-rdf-syntax-ns#"
   xmlns:svg="http://www.w3.org/2000/svg"
   xmlns="http://www.w3.org/2000/svg"
   xmlns:xlink="http://www.w3.org/1999/xlink"
   xmlns:sodipodi="http://sodipodi.sourceforge.net/DTD/sodipodi-0.dtd"
   xmlns:inkscape="http://www.inkscape.org/namespaces/inkscape"
   version="1.1"
   id="Layer_1"
   x="0px"
   y="0px"
   width="240px"
   height="240px"
   viewBox="0 0 240 240"
   enable-background="new 0 0 240 240"
   xml:space="preserve"
   sodipodi:docname="logo-bg.svg"
   inkscape:version="0.92.3 (d244b95, 2018-08-02)"
   inkscape:export-filename="/home/andy/Documents/giffon/www/images/logo-bg.png"
   inkscape:export-xdpi="409.60001"
   inkscape:export-ydpi="409.60001"><metadata
   id="metadata9"><rdf:RDF><cc:Work
       rdf:about=""><dc:format>image/svg+xml</dc:format><dc:type
         rdf:resource="http://purl.org/dc/dcmitype/StillImage" /><dc:title /></cc:Work></rdf:RDF></metadata><defs
   id="defs7"><linearGradient
     inkscape:collect="always"
     id="linearGradient3724"><stop
       style="stop-color:#b7f8db;stop-opacity:1"
       offset="0"
       id="stop3720" /><stop
       style="stop-color:#50a7c2;stop-opacity:1"
       offset="1"
       id="stop3722" /></linearGradient><linearGradient
     inkscape:collect="always"
     xlink:href="#linearGradient3724"
     id="linearGradient3726"
     x1="0"
     y1="2.8421709e-14"
     x2="240"
     y2="240"
     gradientUnits="userSpaceOnUse" /></defs><sodipodi:namedview
   pagecolor="#ffffff"
   bordercolor="#666666"
   borderopacity="1"
   objecttolerance="10"
   gridtolerance="10"
   guidetolerance="10"
   inkscape:pageopacity="0"
   inkscape:pageshadow="2"
   inkscape:window-width="1855"
   inkscape:window-height="1056"
   id="namedview5"
   showgrid="false"
   inkscape:zoom="0.98333333"
   inkscape:cx="-238.98305"
   inkscape:cy="120"
   inkscape:window-x="65"
   inkscape:window-y="24"
   inkscape:window-maximized="1"
   inkscape:current-layer="layer1" />

<g
   inkscape:groupmode="layer"
   id="layer1"
   inkscape:label="background"><rect
     id="rect3714"
     width="240"
     height="240"
     x="0"
     y="2.1316282e-14"
     style="stroke-width:0.84746367;fill-opacity:1;fill:url(#linearGradient3726)" /></g><g
   inkscape:groupmode="layer"
   id="layer2"
   inkscape:label="foreground"><path
     style="fill:#ffffff;stroke-width:0.65625"
     d="m 197.88581,42.039468 c -0.55454,-0.553875 -1.30595,-0.890531 -2.0895,-0.890531 h -40.70523 c -0.78159,0 -1.53102,0.335344 -2.08556,0.887906 L 61.536741,133.23066 c -0.558469,0.55715 -0.8715,1.32168 -0.868219,2.1105 l 0.139125,39.18534 -18.691968,18.69394 c -1.153688,1.15368 -1.153688,3.02399 0,4.17768 0.576843,0.57685 1.332843,0.86494 2.088843,0.86494 0.756,0 1.512,-0.28744 2.088844,-0.86428 l 18.365813,-18.47803 39.823871,0.0407 c 0.003,0 0.008,0 0.0105,0 0.78422,0 1.53563,-0.21263 2.09016,-0.7665 l 91.30078,-91.304702 c 0.55519,-0.554531 0.86559,-1.248844 0.86559,-2.032406 V 44.153906 c 0,-0.783563 -0.31106,-1.560563 -0.86427,-2.114438 z m -5.0446,39.796969 H 158.06258 V 47.106374 l 34.67035,-0.06825 z M 67.984397,135.19153 100.31259,102.96506 v 64.55335 z M 152.15633,82.964531 106.21883,129.15337 V 97.076531 l 45.9375,-46.043157 z m -45.9375,87.371159 v -32.88994 c 0,-0.0853 0.105,-0.16866 0.20869,-0.273 l 45.72881,-45.854157 v 32.805277 z m 51.84375,-82.593003 h 30.53269 L 158.06258,118.21369 Z M 66.600366,142.197 79.870399,155.46703 66.69421,168.64322 Z m 17.447063,17.44641 13.58372,13.58437 -27.072283,-0.0958 z"
     id="path2"
     inkscape:connector-curvature="0" /></g></svg>