<?xml version="1.0" encoding="UTF-8" standalone="no"?>
<!-- Generator: Adobe Illustrator 16.0.3, SVG Export Plug-In . SVG Version: 6.00 Build 0)  -->

<svg
   xmlns:dc="http://purl.org/dc/elements/1.1/"
   xmlns:cc="http://creativecommons.org/ns#"
   xmlns:rdf="http://www.w3.org/1999/02/22-rdf-syntax-ns#"
   xmlns:svg="http://www.w3.org/2000/svg"
   xmlns="http://www.w3.org/2000/svg"
   xmlns:xlink="http://www.w3.org/1999/xlink"
   xmlns:sodipodi="http://sodipodi.sourceforge.net/DTD/sodipodi-0.dtd"
   xmlns:inkscape="http://www.inkscape.org/namespaces/inkscape"
   version="1.1"
   id="Layer_1"
   x="0px"
   y="0px"
   width="240px"
   height="240px"
   viewBox="0 0 240 240"
   enable-background="new 0 0 240 240"
   xml:space="preserve"
   sodipodi:docname="logo-bg.svg"
   inkscape:version="0.92.3 (d244b95, 2018-08-02)"><metadata
   id="metadata9"><rdf:RDF><cc:Work
       rdf:about=""><dc:format>image/svg+xml</dc:format><dc:type
         rdf:resource="http://purl.org/dc/dcmitype/StillImage" /><dc:title></dc:title></cc:Work></rdf:RDF></metadata><defs
   id="defs7"><linearGradient
     inkscape:collect="always"
     id="linearGradient3724"><stop
       style="stop-color:#b7f8db;stop-opacity:1"
       offset="0"
       id="stop3720" /><stop
       style="stop-color:#50a7c2;stop-opacity:1"
       offset="1"
       id="stop3722" /></linearGradient><linearGradient
     inkscape:collect="always"
     xlink:href="#linearGradient3724"
     id="linearGradient3726"
     x1="0"
     y1="2.8421709e-14"
     x2="240"
     y2="240"
     gradientUnits="userSpaceOnUse" /></defs><sodipodi:namedview
   pagecolor="#ffffff"
   bordercolor="#666666"
   borderopacity="1"
   objecttolerance="10"
   gridtolerance="10"
   guidetolerance="10"
   inkscape:pageopacity="0"
   inkscape:pageshadow="2"
   inkscape:window-width="1855"
   inkscape:window-height="1056"
   id="namedview5"
   showgrid="false"
   inkscape:zoom="0.98333333"
   inkscape:cx="-59.491525"
   inkscape:cy="120"
   inkscape:window-x="1985"
   inkscape:window-y="24"
   inkscape:window-maximized="1"
   inkscape:current-layer="layer1" />

<g
   inkscape:groupmode="layer"
   id="layer1"
   inkscape:label="background"><rect
     id="rect3714"
     width="240"
     height="240"
     x="0"
     y="2.1316282e-14"
     style="stroke-width:0.84746367;fill-opacity:1;fill:url(#linearGradient3726)" /></g><g
   inkscape:groupmode="layer"
   id="layer2"
   inkscape:label="foreground"><path
     style="fill:#ffffff;stroke-width:0.75"
     d="m 209.01231,30.94425 c -0.63375,-0.633 -1.4925,-1.01775 -2.388,-1.01775 h -46.52025 c -0.89325,0 -1.74975,0.38325 -2.3835,1.01475 L 53.184812,135.16275 c -0.63825,0.63675 -0.996,1.5105 -0.99225,2.412 l 0.159,44.78325 -21.36225,21.3645 c -1.3185,1.3185 -1.3185,3.456 0,4.7745 0.65925,0.65925 1.52325,0.9885 2.38725,0.9885 0.864,0 1.728,-0.3285 2.38725,-0.98775 l 20.9895,-21.11775 45.512998,0.0465 c 0.004,0 0.009,0 0.012,0 0.89625,0 1.755,-0.243 2.38875,-0.876 L 209.01081,82.20225 c 0.6345,-0.63375 0.98925,-1.42725 0.98925,-2.32275 V 33.36075 c 0,-0.8955 -0.3555,-1.7835 -0.98775,-2.4165 z m -5.76525,45.48225 h -39.747 V 36.735 l 39.62325,-0.078 z M 60.553562,137.40375 97.500063,100.5735 v 73.77525 z m 96.196498,-59.688 -52.5,52.78725 V 93.84375 l 52.5,-52.62075 z m -52.5,99.85275 V 139.98 c 0,-0.0975 0.12,-0.19275 0.2385,-0.312 l 52.2615,-52.40475 V 124.755 Z m 59.25,-94.392 h 34.8945 l -34.8945,34.824 z M 58.971812,145.41 l 15.165751,15.16575 -15.058501,15.0585 z m 19.939501,19.93875 15.52425,15.525 -30.939751,-0.1095 z"
     id="path2"
     inkscape:connector-curvature="0" /></g></svg>