<svg id="Layer_1" enable-background="new 0 0 512.5 512.5" height="512" viewBox="0 0 512.5 512.5" width="512" xmlns="http://www.w3.org/2000/svg"><path fill="#E0E0E0" d="m255.542 119.192c-75.305 0-136.571 61.266-136.571 136.571 0 1.257.018 2.515.052 3.772.224 8.141 6.893 14.588 14.986 14.588.139 0 .28-.002.42-.006 8.281-.228 14.81-7.125 14.582-15.406-.027-.982-.041-1.965-.041-2.948 0-58.763 47.808-106.571 106.571-106.571 8.285 0 15-6.716 15-15s-6.715-15-14.999-15z"/><path fill="#E0E0E0" d="m504.525 238.439-37.43-19.842-19.843-37.43c-2.601-4.907-7.7-7.975-13.253-7.975-.468 0-.931.03-1.392.073-31.67-67.576-100.278-112.502-176.65-112.502-107.523 0-195 87.477-195 195 0 57.532 25.17 111.252 68.382 148.135-22.999 14.067-38.382 39.417-38.382 68.295v25c0 8.284 6.716 15 15 15h300c8.284 0 15-6.716 15-15v-25c0-28.886-15.391-54.241-38.401-68.307 23.432-20.079 41.882-45.475 53.655-73.862 4.667-.696 8.789-3.561 11.039-7.806l19.843-37.43 37.43-19.842c4.906-2.601 7.975-7.7 7.975-13.253s-3.066-10.653-7.973-13.254zm-113.566 243.753h-270v-10c0-27.57 22.43-50 50-50h170c27.57 0 50 22.43 50 50zm-42.179-90.147c-.223.153-182.571.272-184.907.478-45.709-30.89-72.915-81.774-72.915-136.761 0-90.981 74.019-165 165-165 69.582 0 131.55 44.079 155.085 108.708l-10.139 19.126-37.43 19.842c-4.906 2.601-7.975 7.7-7.975 13.253s3.068 10.652 7.975 13.253l37.43 19.842 11.844 22.342c-11.303 34.304-33.905 64.351-63.968 84.917zm100.195-131.606c-2.652 1.406-4.821 3.575-6.228 6.228l-8.747 16.5-8.747-16.5c-1.406-2.652-3.575-4.822-6.228-6.228l-16.5-8.747 16.5-8.747c2.652-1.406 4.821-3.575 6.228-6.228l7.307-13.784c.33-.067.659-.128.989-.219.517-.142 1.02-.312 1.508-.503l7.69 14.506c1.406 2.652 3.575 4.822 6.228 6.228l16.5 8.747z"/><path fill="#E0E0E0" d="m68.281 104.849 14.258-22.003 22.003-14.257c4.267-2.765 6.843-7.504 6.843-12.588 0-5.085-2.576-9.823-6.843-12.588l-22.004-14.259-14.257-22.003c-2.765-4.267-7.503-6.843-12.588-6.843-5.084 0-9.823 2.576-12.588 6.843l-14.259 22.003-22.003 14.258c-4.267 2.765-6.843 7.504-6.843 12.588 0 5.085 2.576 9.823 6.843 12.588l22.003 14.257 14.257 22.003c2.765 4.267 7.504 6.843 12.588 6.843s9.825-2.575 12.59-6.842zm-9.177-41.006-3.412 5.265-3.412-5.265c-1.149-1.773-2.659-3.283-4.432-4.432l-5.264-3.411 5.265-3.412c1.772-1.149 3.282-2.659 4.431-4.431l3.412-5.266 3.412 5.265c1.148 1.772 2.659 3.283 4.432 4.432l5.264 3.412-5.265 3.412c-1.772 1.149-3.282 2.658-4.431 4.431z"/></svg>