<?xml version="1.0" encoding="iso-8859-1"?>
<!-- Generator: Adobe Illustrator 19.0.0, SVG Export Plug-In . SVG Version: 6.00 Build 0)  -->
<svg version="1.1" id="Capa_1" xmlns="http://www.w3.org/2000/svg" xmlns:xlink="http://www.w3.org/1999/xlink" x="0px" y="0px"
	 viewBox="0 0 480.006 480.006" style="enable-background:new 0 0 480.006 480.006;" xml:space="preserve">
<g>
	<g>
		<path d="M320.003,40.006v-8c0.078-17.598-14.125-31.927-31.722-32.005c-9.321-0.041-18.192,4.001-24.278,11.061
			c-11.326-13.255-31.252-14.819-44.507-3.493c-1.254,1.071-2.422,2.239-3.493,3.493c-11.326-13.255-31.252-14.819-44.507-3.493
			c-1.254,1.071-2.422,2.239-3.493,3.493c-11.489-13.33-31.609-14.823-44.939-3.334c-7.06,6.085-11.102,14.957-11.061,24.278
			v201.368c0.233,16.852,7.022,32.951,18.928,44.88c8.408,8.68,13.098,20.299,13.072,32.384v1.368h-8c-4.418,0-8,3.582-8,8v40
			c-4.418,0-8,3.582-8,8v104c0,4.418,3.582,8,8,8h208c4.418,0,8-3.582,8-8v-104c0-4.418-3.582-8-8-8v-40c0-4.418-3.582-8-8-8h-8
			v-5.792c0.023-10.085,3.294-19.895,9.328-27.976l4.288-5.712c6.556-8.728,10.707-19.022,12.04-29.856l22.256-145.456
			c0.06-0.4,0.09-0.804,0.088-1.208v-8C367.972,61.509,346.5,40.037,320.003,40.006z M272.003,32.006c0-8.837,7.163-16,16-16
			s16,7.163,16,16v8h-32V32.006z M224.003,32.006c0-8.837,7.163-16,16-16s16,7.163,16,16v8h-32V32.006z M176.003,32.006
			c0-8.837,7.163-16,16-16s16,7.163,16,16v12.448c-15.214,8.676-20.515,28.042-11.839,43.257c2.815,4.936,6.904,9.025,11.839,11.839
			v28.456c0,8.837-7.163,16-16,16s-16-7.163-16-16V32.006z M128.003,32.006c0-8.837,7.163-16,16-16s16,7.163,16,16v96
			c0,8.837-7.163,16-16,16s-16-7.163-16-16V32.006z M144.003,328.006h176v32h-176V328.006z M328.003,376.006v88h-192v-88H328.003z
			 M352.003,95.398L329.811,240.51c-0.982,8.126-4.083,15.851-8.992,22.4l-4.288,5.712c-8.107,10.859-12.5,24.041-12.528,37.592
			v5.792h-144v-1.368c0.033-16.23-6.267-31.832-17.56-43.488c-9.019-8.955-14.198-21.069-14.44-33.776v-77.816
			c13.155,7.874,30.076,5.079,40-6.608c11.326,13.255,31.252,14.819,44.507,3.493c1.254-1.071,2.422-2.239,3.493-3.493
			c11.326,13.255,31.252,14.819,44.507,3.493c1.254-1.071,2.422-2.239,3.493-3.493c2.704,3.098,5.98,5.646,9.648,7.504
			l-15.136,17.664c-17.103,19.964-26.506,45.384-26.512,71.672v18.216h16V245.79c0.006-22.468,8.045-44.194,22.664-61.256
			l23.416-27.32c0.309-0.413,0.577-0.855,0.8-1.32c0.206-0.301,0.39-0.617,0.552-0.944c0.373-0.937,0.566-1.936,0.568-2.944v-56
			c0-4.418-3.582-8-8-8h-64c-8.837,0-16-7.163-16-16s7.163-16,16-16h96c17.673,0,32,14.327,32,32V95.398z M224.003,128.006v-24h32
			v24c0,8.837-7.163,16-16,16S224.003,136.842,224.003,128.006z M272.003,128.006v-24h8v37.848
			C275.055,138.997,272.006,133.719,272.003,128.006z"/>
	</g>
</g>
<g>
	<g>
		<rect x="392.003" y="88.006" width="16" height="16"/>
	</g>
</g>
<g>
	<g>
		<polygon points="408.003,144.006 408.003,120.006 392.003,120.006 392.003,144.006 376.003,144.006 376.003,160.006 
			392.003,160.006 392.003,184.006 408.003,184.006 408.003,160.006 424.003,160.006 424.003,144.006 		"/>
	</g>
</g>
<g>
	<g>
		<rect x="448.003" y="192.006" width="16" height="16"/>
	</g>
</g>
<g>
	<g>
		<polygon points="464.003,248.006 464.003,224.006 448.003,224.006 448.003,248.006 432.003,248.006 432.003,264.006 
			448.003,264.006 448.003,288.006 464.003,288.006 464.003,264.006 480.003,264.006 480.003,248.006 		"/>
	</g>
</g>
<g>
	<g>
		<path d="M472.003,32.006c-13.255,0-24-10.745-24-24c0-4.418-3.582-8-8-8s-8,3.582-8,8c0,13.255-10.745,24-24,24
			c-4.418,0-8,3.582-8,8s3.582,8,8,8c13.255,0,24,10.745,24,24c0,4.418,3.582,8,8,8s8-3.582,8-8c0-13.255,10.745-24,24-24
			c4.418,0,8-3.582,8-8S476.421,32.006,472.003,32.006z M440.003,48.006c-2.279-3.028-4.972-5.721-8-8c3.028-2.279,5.721-4.972,8-8
			c2.279,3.028,4.972,5.721,8,8C444.975,42.285,442.282,44.978,440.003,48.006z"/>
	</g>
</g>
<g>
	<g>
		<path d="M88.003,216.006c-13.255,0-24-10.745-24-24c0-4.418-3.582-8-8-8s-8,3.582-8,8c0,13.255-10.745,24-24,24
			c-4.418,0-8,3.582-8,8s3.582,8,8,8c13.255,0,24,10.745,24,24c0,4.418,3.582,8,8,8s8-3.582,8-8c0-13.255,10.745-24,24-24
			c4.418,0,8-3.582,8-8S92.421,216.006,88.003,216.006z M56.003,232.006c-2.279-3.028-4.972-5.721-8-8c3.028-2.279,5.721-4.972,8-8
			c2.279,3.028,4.972,5.721,8,8C60.975,226.285,58.282,228.978,56.003,232.006z"/>
	</g>
</g>
<g>
	<g>
		<rect x="16.003" y="0.006" width="16" height="16"/>
	</g>
</g>
<g>
	<g>
		<polygon points="32.003,56.006 32.003,32.006 16.003,32.006 16.003,56.006 0.003,56.006 0.003,72.006 16.003,72.006 
			16.003,96.006 32.003,96.006 32.003,72.006 48.003,72.006 48.003,56.006 		"/>
	</g>
</g>
<g>
</g>
<g>
</g>
<g>
</g>
<g>
</g>
<g>
</g>
<g>
</g>
<g>
</g>
<g>
</g>
<g>
</g>
<g>
</g>
<g>
</g>
<g>
</g>
<g>
</g>
<g>
</g>
<g>
</g>
</svg>
