<?xml version="1.0" encoding="iso-8859-1"?>
<!-- Generator: Adobe Illustrator 19.0.0, SVG Export Plug-In . SVG Version: 6.00 Build 0)  -->
<svg version="1.1" id="Capa_1" xmlns="http://www.w3.org/2000/svg" xmlns:xlink="http://www.w3.org/1999/xlink" x="0px" y="0px"
	 viewBox="0 0 512 512" style="enable-background:new 0 0 512 512;" xml:space="preserve">
<g>
	<g>
		<path d="M366.555,137.336c-1.947-4.22-6.948-6.062-11.167-4.115c-4.22,1.948-6.062,6.948-4.115,11.168
			c6.369,13.799,9.599,28.568,9.599,43.897c0,57.827-47.045,104.872-104.871,104.872c-57.827,0-104.872-47.045-104.872-104.872
			c0-57.826,47.045-104.872,104.872-104.872c29.573,0,57.924,12.585,77.781,34.528c3.12,3.446,8.439,3.711,11.888,0.594
			c3.446-3.12,3.712-8.441,0.592-11.888c-23.043-25.462-55.942-40.065-90.261-40.065c-67.108,0-121.704,54.596-121.704,121.704
			s54.596,121.704,121.704,121.704c67.107,0,121.703-54.596,121.703-121.704C377.703,170.505,373.952,153.362,366.555,137.336z"/>
	</g>
</g>
<g>
	<g>
		<path d="M424.083,188.286c0-6.442,2.82-13.903,5.806-21.802c4.508-11.925,9.169-24.257,5.228-36.393
			c-4.106-12.644-15.903-20.329-26.311-27.112c-6.836-4.454-13.294-8.66-16.812-13.495c-3.593-4.937-5.636-12.456-7.8-20.416
			c-3.235-11.905-6.902-25.398-17.505-33.114c-10.496-7.638-23.794-7.011-36.652-6.405c-8.306,0.392-16.151,0.762-22.081-1.164
			c-5.519-1.792-11.42-6.562-17.667-11.612C280.56,8.913,269.533,0,256.001,0c-13.533,0-24.56,8.913-34.289,16.777
			c-6.247,5.049-12.148,9.819-17.665,11.611c-5.93,1.926-13.776,1.555-22.082,1.164c-12.858-0.607-26.157-1.234-36.653,6.405
			c-10.603,7.716-14.269,21.209-17.505,33.114c-2.163,7.96-4.207,15.479-7.8,20.416c-3.518,4.834-9.976,9.041-16.812,13.495
			c-10.409,6.781-22.206,14.467-26.31,27.11c-3.941,12.136,0.72,24.468,5.228,36.394c2.985,7.899,5.805,15.36,5.805,21.802
			s-2.82,13.903-5.806,21.802c-4.508,11.926-9.169,24.258-5.228,36.394c4.106,12.643,15.903,20.329,26.311,27.11
			c6.836,4.454,13.294,8.661,16.812,13.495c3.593,4.937,5.636,12.457,7.8,20.416c3.235,11.905,6.902,25.398,17.505,33.114
			c10.495,7.638,23.793,7.011,36.652,6.405c8.305-0.393,16.151-0.762,22.081,1.164c5.519,1.792,11.42,6.562,17.668,11.612
			c4.701,3.799,9.71,7.836,15.153,11.002L204.6,486.541l-29.778-33.184c-2.186-2.436-5.585-3.383-8.717-2.431l-42.635,12.992
			l26.731-95.86c1.248-4.477-1.369-9.118-5.846-10.367c-4.479-1.247-9.119,1.369-10.367,5.846l-30.855,110.645
			c-0.825,2.96,0.028,6.135,2.227,8.282c2.199,2.148,5.395,2.925,8.333,2.029l52.184-15.902l36.443,40.613
			c1.616,1.801,3.904,2.796,6.264,2.795c0.637,0,1.28-0.072,1.917-0.221c2.993-0.7,5.365-2.975,6.191-5.935l36.088-129.46
			c1.059,0.111,2.128,0.187,3.219,0.187c1.088,0,2.156-0.077,3.213-0.187l36.103,129.46c0.825,2.96,3.199,5.235,6.191,5.935
			c0.636,0.148,1.278,0.221,1.915,0.221c2.361,0,4.649-0.995,6.265-2.796l36.431-40.613l52.195,15.901
			c2.938,0.895,6.132,0.118,8.332-2.029c2.198-2.148,3.052-5.322,2.227-8.281l-38.214-137.05
			c7.617-7.905,10.742-19.355,13.534-29.631c2.163-7.96,4.207-15.479,7.8-20.416c3.518-4.834,9.976-9.041,16.812-13.495
			c10.409-6.781,22.206-14.467,26.31-27.109c3.941-12.136-0.72-24.468-5.228-36.394
			C426.902,202.189,424.083,194.729,424.083,188.286z M388.538,463.918l-42.648-12.992c-3.131-0.956-6.532-0.006-8.718,2.431
			l-29.766,33.183l-32.277-115.739c5.446-3.167,10.456-7.204,15.159-11.006c6.247-5.049,12.148-9.818,17.667-11.612
			c5.932-1.926,13.777-1.555,22.082-1.164c8.648,0.408,17.49,0.814,25.549-1.28L388.538,463.918z M419.107,241.285
			c-2.268,6.985-10.633,12.435-19.49,18.205c-7.812,5.09-15.891,10.353-21.233,17.694c-5.415,7.441-7.967,16.828-10.433,25.906
			c-2.751,10.124-5.35,19.685-11.166,23.919c-5.712,4.155-15.544,3.692-25.956,3.201c-9.448-0.444-19.219-0.907-28.073,1.968
			c-8.48,2.754-15.886,8.74-23.049,14.53c-8.294,6.704-16.126,13.034-23.707,13.034c-7.581,0-15.415-6.332-23.708-13.036
			c-7.162-5.789-14.57-11.777-23.049-14.529c-5.584-1.813-11.533-2.299-17.535-2.299c-3.514,0-7.048,0.166-10.537,0.331
			c-10.41,0.492-20.243,0.955-25.955-3.201c-5.816-4.233-8.415-13.795-11.166-23.919c-2.466-9.078-5.018-18.466-10.433-25.906
			c-5.341-7.34-13.419-12.603-21.233-17.694c-8.857-5.77-17.222-11.221-19.49-18.206c-2.115-6.514,1.324-15.612,4.964-25.243
			c3.389-8.966,6.893-18.236,6.893-27.752s-3.504-18.788-6.892-27.752c-3.641-9.631-7.079-18.729-4.964-25.244
			c2.268-6.985,10.633-12.435,19.49-18.205c7.812-5.09,15.891-10.353,21.233-17.692c5.415-7.441,7.967-16.828,10.433-25.906
			c2.751-10.124,5.35-19.685,11.166-23.919c5.711-4.156,15.546-3.693,25.956-3.201c9.447,0.445,19.219,0.907,28.073-1.968
			c8.48-2.754,15.886-8.74,23.049-14.529c8.292-6.706,16.126-13.038,23.706-13.038c7.58,0,15.415,6.332,23.707,13.034
			c7.162,5.79,14.57,11.777,23.049,14.53c8.854,2.875,18.623,2.415,28.072,1.968c10.41-0.49,20.244-0.954,25.955,3.201
			c5.816,4.233,8.415,13.795,11.166,23.919c2.466,9.078,5.018,18.466,10.433,25.906c5.341,7.34,13.419,12.603,21.232,17.692
			c8.857,5.77,17.222,11.22,19.491,18.206c2.115,6.515-1.323,15.612-4.964,25.244c-3.389,8.965-6.893,18.236-6.893,27.752
			c0,9.517,3.506,18.786,6.895,27.752C417.784,225.67,421.223,234.768,419.107,241.285z"/>
	</g>
</g>
<g>
	<g>
		<path d="M288.506,135.945h-65.01c-4.648,0-8.416,3.768-8.416,8.416s3.768,8.416,8.416,8.416h65.01
			c4.648,0,8.416-3.768,8.416-8.416S293.154,135.945,288.506,135.945z"/>
	</g>
</g>
<g>
	<g>
		<path d="M288.506,223.795h-65.01c-4.648,0-8.416,3.768-8.416,8.416c0,4.648,3.768,8.416,8.416,8.416h65.01
			c4.648,0,8.416-3.768,8.416-8.416C296.922,227.563,293.154,223.795,288.506,223.795z"/>
	</g>
</g>
<g>
	<g>
		<path d="M311.811,179.87H286.46c-4.648,0-8.416,3.768-8.416,8.416c0,4.648,3.768,8.416,8.416,8.416h25.351
			c4.648,0,8.416-3.767,8.416-8.416C320.227,183.638,316.459,179.87,311.811,179.87z"/>
	</g>
</g>
<g>
	<g>
		<path d="M260.104,179.87H200.19c-4.648,0-8.416,3.768-8.416,8.416c0,4.648,3.768,8.416,8.416,8.416h59.914
			c4.648,0,8.416-3.768,8.416-8.416C268.52,183.638,264.752,179.87,260.104,179.87z"/>
	</g>
</g>
<g>
</g>
<g>
</g>
<g>
</g>
<g>
</g>
<g>
</g>
<g>
</g>
<g>
</g>
<g>
</g>
<g>
</g>
<g>
</g>
<g>
</g>
<g>
</g>
<g>
</g>
<g>
</g>
<g>
</g>
</svg>
