<?xml version="1.0" encoding="iso-8859-1"?>
<!-- Generator: Adobe Illustrator 16.0.0, SVG Export Plug-In . SVG Version: 6.00 Build 0)  -->
<!DOCTYPE svg PUBLIC "-//W3C//DTD SVG 1.1//EN" "http://www.w3.org/Graphics/SVG/1.1/DTD/svg11.dtd">
<svg version="1.1" id="Capa_1" xmlns="http://www.w3.org/2000/svg" xmlns:xlink="http://www.w3.org/1999/xlink" x="0px" y="0px"
	 width="421.943px" height="421.944px" viewBox="0 0 421.943 421.944" style="enable-background:new 0 0 421.943 421.944;"
	 xml:space="preserve">
<g>
	<path d="M418.054,273.641c-17.748-11.016-33.66-23.868-48.348-38.556c-4.896-4.896-13.464-1.225-13.464,5.508
		c0,5.508-0.612,11.016-0.612,16.523c-53.244,9.792-106.488,14.076-160.957,14.688c-45.9,1.224-107.712,6.12-149.328-15.912
		c-31.824-17.136-36.72-56.917-23.256-87.517c5.508-12.852,15.3-23.256,27.54-30.6c14.076-8.568,28.152-3.672,42.84-7.344
		c1.836-0.612,2.448-3.06,1.224-4.896c-22.644-23.868-62.424,3.672-77.112,23.256c-20.808,27.54-22.032,67.933-3.672,96.696
		c26.928,42.841,91.188,39.78,134.64,41.004c68.544,2.448,140.76,0.612,208.081-14.688c0,6.12,0.612,11.628,2.448,17.748
		c0,1.224,0.611,1.836,1.224,2.448c-4.896,4.283-0.612,15.3,7.956,13.464c17.748-3.672,35.496-9.181,52.02-17.136
		C423.562,284.657,422.338,276.701,418.054,273.641z M370.93,257.729c8.568,7.344,17.136,14.688,26.928,21.42
		c-8.567,3.672-17.748,6.12-26.928,8.568c0-0.612,0-1.225,0-2.448C369.094,276.089,369.706,266.909,370.93,257.729z"/>
</g>
<g>
</g>
<g>
</g>
<g>
</g>
<g>
</g>
<g>
</g>
<g>
</g>
<g>
</g>
<g>
</g>
<g>
</g>
<g>
</g>
<g>
</g>
<g>
</g>
<g>
</g>
<g>
</g>
<g>
</g>
</svg>
